<?xml version="1.0" encoding="UTF-8"?>
<svg xmlns="http://www.w3.org/2000/svg" xmlns:xlink="http://www.w3.org/1999/xlink" version="1.2" >
<font id="Gilroy Bold">
<font-face  font-family="Gilroy" units-per-em="1000" ascent="773" descent="-227" font-style="normal" font-weight="700" font-stretch="normal" cap-height="700" x-height="500" underline-position="-75" underline-thickness="50" />
<missing-glyph  horiz-adv-x="500" d="M93 800 L93 -200 L410 -200 L410 800 L93 800 Z M333 700 L267 700 L267 663 L333 663 L333 630 L167 630 L167 663 L233 663 L233 700 L168 700 L168 733 L333 733 L333 700 Z M267 534 L333 534 L333 500 L167 500 L167 604 L267 604 L267 534 Z M200 570 L200 534 L233 534 L233 570 L200 570 Z M333 440 L267 440 L267 370 L167 370 L167 403 L233 403 L233 440 L167 440 L167 473 L333 473 L333 440 Z M333 313 L167 313 L167 347 L300 347 L300 413 L333 413 L333 313 Z M333 178 L167 178 L167 291 L200 291 L200 211 L300 211 L300 258 L267 258 L267 235 L233 235 L233 291 L333 291 L333 178 Z M333 5 L167 5 L167 118 L333 118 L333 5 Z M200 85 L200 38 L300 38 L300 85 L200 85 Z M333 -51 L301 -51 L231 -98 L333 -98 L333 -131 L167 -131 L167 -98 L237 -51 L167 -51 L167 -18 L333 -18 L333 -51 Z " />
<glyph glyph-name="space" unicode="&#x20;" horiz-adv-x="250" d="" />
<glyph glyph-name="exclam" unicode="&#x21;" horiz-adv-x="268" d="M185 235 L211 500 L211 700 L56 700 L56 500 L83 235 L185 235 Z M134 -13 C157 -13 177 -5 194 12 C211 29 219 49 219 72 C219 95 211 115 194 132 C177 149 157 157 134 157 C111 157 91 149 74 132 C57 115 49 95 49 72 C49 49 57 29 74 12 C91 -5 111 -13 134 -13 L134 -13 Z " />
<glyph glyph-name="quotedbl" unicode="&#x22;" horiz-adv-x="378" d="M148 470 L165 700 L43 700 L60 470 L148 470 Z M318 470 L335 700 L213 700 L230 470 L318 470 Z " />
<glyph glyph-name="numbersign" unicode="&#x23;" horiz-adv-x="616" d="M593 493 L485 493 L511 650 L409 650 L383 493 L281 493 L307 650 L206 650 L180 493 L69 493 L53 395 L164 395 L149 305 L39 305 L23 208 L132 208 L106 50 L207 50 L233 208 L335 208 L309 50 L411 50 L437 208 L547 208 L563 305 L454 305 L469 395 L577 395 L593 493 Z M250 305 L265 395 L367 395 L352 305 L250 305 Z " />
<glyph glyph-name="dollar" unicode="&#x24;" horiz-adv-x="549" d="M468 54 C505 91 524 139 524 196 C524 261 498 312 447 349 C428 362 387 382 322 408 L322 575 C357 566 382 542 398 502 L514 570 C477 653 413 700 322 711 L322 800 L255 800 L255 713 C200 708 153 688 113 652 C75 617 56 570 56 511 C60 437 89 383 143 349 C175 329 211 312 252 297 L254 296 L255 296 L255 123 C202 130 165 160 144 214 L25 145 C62 48 138 -4 255 -13 L255 -100 L322 -100 L322 -12 C383 -5 432 17 468 54 L468 54 Z M255 438 C214 459 193 483 193 510 C193 547 214 570 255 578 L255 438 Z M322 269 C365 250 386 225 386 195 C386 157 365 134 322 125 L322 269 Z " />
<glyph glyph-name="percent" unicode="&#x25;" horiz-adv-x="765" d="M214 384 C261 384 301 400 334 431 C366 463 382 502 382 549 C382 596 366 635 334 666 C302 698 262 714 214 714 C167 714 126 698 93 666 C61 634 45 595 45 549 C45 503 61 464 93 432 C126 400 167 384 214 384 L214 384 Z M176 71 L633 579 L572 613 L116 106 L176 71 Z M213 485 C195 485 180 491 168 503 C157 516 151 531 151 549 C151 567 157 582 168 594 C180 606 195 612 213 612 C231 612 246 606 258 594 C270 582 276 567 276 549 C276 531 270 516 258 503 C246 491 231 485 213 485 L213 485 Z M552 -12 C600 -12 640 4 672 36 C704 68 720 107 720 153 C720 199 704 238 672 270 C640 302 600 318 552 318 C504 318 464 302 432 270 C400 238 384 199 384 153 C384 107 400 68 432 36 C464 4 504 -12 552 -12 L552 -12 Z M597 199 C608 186 614 171 614 153 C614 135 608 120 597 108 C585 95 570 89 552 89 C534 89 519 95 508 108 C496 120 490 135 490 153 C490 171 496 186 508 199 C519 211 534 217 552 217 C570 217 585 211 597 199 L597 199 Z " />
<glyph glyph-name="ampersand" unicode="&#x26;" horiz-adv-x="673" d="M562 139 C589 182 610 231 623 286 L507 352 C499 305 488 266 473 236 L323 400 C285 441 266 476 266 506 C266 527 274 545 290 559 C305 573 325 580 349 580 C399 580 433 552 452 496 L570 564 C551 612 521 649 481 675 C442 701 398 714 347 714 C284 714 231 695 190 657 C149 620 128 571 128 512 C128 469 139 430 162 395 C84 350 45 283 45 194 C45 131 68 80 113 42 C160 5 219 -14 290 -14 C361 -14 424 6 478 46 L542 -23 L652 40 L562 139 Z M392 138 C365 121 334 113 299 113 C262 113 234 122 213 139 C194 156 184 179 184 208 C184 250 202 282 239 305 C239 304 240 303 241 302 L392 138 Z " />
<glyph glyph-name="quotesingle" unicode="&#x27;" horiz-adv-x="208" d="M148 470 L165 700 L43 700 L60 470 L148 470 Z " />
<glyph glyph-name="parenleft" unicode="&#x28;" horiz-adv-x="307" d="M292 -100 C219 47 182 197 182 350 C182 503 219 653 292 800 L163 800 C90 653 53 503 53 350 C53 197 90 47 163 -100 L292 -100 Z " />
<glyph glyph-name="parenright" unicode="&#x29;" horiz-adv-x="307" d="M144 -100 C217 47 254 197 254 350 C254 503 217 653 144 800 L15 800 C88 653 125 503 125 350 C125 197 88 47 15 -100 L144 -100 Z " />
<glyph glyph-name="asterisk" unicode="&#x2a;" horiz-adv-x="398" d="M255 601 L310 672 L242 714 L199 630 L156 714 L89 672 L143 601 L53 609 L53 529 L143 536 L89 466 L156 424 L199 508 L242 424 L310 466 L255 536 L346 529 L346 609 L255 601 Z " />
<glyph glyph-name="plus" unicode="&#x2b;" horiz-adv-x="555" d="M338 411 L338 575 L217 575 L217 411 L53 411 L53 290 L217 290 L217 125 L338 125 L338 290 L503 290 L503 411 L338 411 Z " />
<glyph glyph-name="comma" unicode="&#x2c;" horiz-adv-x="278" d="M89 138 L49 -140 L154 -140 L229 138 L89 138 Z " />
<glyph glyph-name="hyphen" unicode="&#x2d;" horiz-adv-x="505" d="M440 240 L440 364 L65 364 L65 240 L440 240 Z " />
<glyph glyph-name="period" unicode="&#x2e;" horiz-adv-x="268" d="M134 -13 C157 -13 177 -5 194 12 C211 29 219 49 219 72 C219 95 211 115 194 132 C177 149 157 157 134 157 C111 157 91 149 74 132 C57 115 49 95 49 72 C49 49 57 29 74 12 C91 -5 111 -13 134 -13 L134 -13 Z " />
<glyph glyph-name="slash" unicode="&#x2f;" horiz-adv-x="523" d="M490 800 L433 800 L33 -100 L90 -100 L490 800 Z " />
<glyph glyph-name="zero" unicode="0" horiz-adv-x="630" d="M109 85 C159 19 228 -14 315 -14 C404 -14 472 19 521 85 C570 152 595 241 595 350 C595 459 570 547 521 614 C472 681 404 714 315 714 C228 714 159 681 109 614 C60 547 35 459 35 350 C35 241 60 152 109 85 L109 85 Z M315 580 C410 580 458 503 458 350 C458 197 410 121 315 121 C220 121 173 197 173 350 C173 503 220 580 315 580 L315 580 Z " />
<glyph glyph-name="one" unicode="1" horiz-adv-x="387" d="M11 635 L45 517 L177 554 L177 0 L315 0 L315 700 L195 700 L11 635 Z " />
<glyph glyph-name="two" unicode="2" horiz-adv-x="531" d="M495 0 L495 133 L232 133 L369 270 C446 347 484 421 484 494 C484 561 461 615 416 654 C371 694 317 714 253 714 C202 714 157 701 117 676 C75 650 43 613 22 566 L138 498 C163 553 202 580 255 580 C282 580 303 572 320 555 C337 538 346 516 346 489 C346 452 319 406 266 349 L27 103 L27 0 L495 0 Z " />
<glyph glyph-name="three" unicode="3" horiz-adv-x="545" d="M484 586 L484 700 L44 700 L44 571 L318 571 L180 391 L233 311 L263 311 C298 311 326 302 346 285 C365 268 375 245 375 216 C375 187 365 163 346 146 C326 129 298 121 263 121 C199 121 158 148 141 202 L23 134 C42 87 74 50 117 24 C159 -1 208 -14 263 -14 C334 -14 393 6 440 47 C489 88 513 144 513 216 C513 265 498 307 469 343 C440 378 402 402 353 416 L484 586 Z " />
<glyph glyph-name="four" unicode="4" horiz-adv-x="580" d="M491 247 L491 413 L352 413 L352 247 L170 247 L402 700 L254 700 L21 247 L21 119 L352 119 L352 0 L491 0 L491 119 L566 119 L566 247 L491 247 Z " />
<glyph glyph-name="five" unicode="5" horiz-adv-x="548" d="M208 445 L217 571 L486 571 L486 700 L89 700 L61 311 L273 311 C306 311 333 302 352 285 C371 268 381 245 381 216 C381 187 371 163 352 146 C332 129 304 121 269 121 C202 121 160 149 143 205 L25 136 C44 87 76 50 119 24 C162 -1 212 -14 269 -14 C340 -14 399 6 446 47 C495 88 519 144 519 216 C519 288 496 344 450 384 C405 425 348 445 280 445 L208 445 Z " />
<glyph glyph-name="six" unicode="6" horiz-adv-x="553" d="M440 700 L282 700 L64 371 C37 330 23 283 23 230 C23 157 46 99 93 54 C140 9 201 -14 276 -14 C351 -14 412 9 459 54 C506 100 530 159 530 230 C530 299 507 357 462 402 C417 447 358 471 285 473 L440 700 Z M360 312 C382 291 393 263 393 230 C393 196 382 168 360 147 C338 126 310 116 276 116 C242 116 214 126 193 147 C171 168 160 196 160 230 C160 264 171 291 193 312 C214 333 242 343 276 343 C310 343 338 333 360 312 L360 312 Z " />
<glyph glyph-name="seven" unicode="7" horiz-adv-x="490" d="M13 568 L312 568 L82 0 L228 0 L465 583 L465 700 L13 700 L13 568 Z " />
<glyph glyph-name="eight" unicode="8" horiz-adv-x="568" d="M535 195 C535 269 503 325 438 364 C487 399 511 447 511 509 C511 574 489 624 446 660 C403 696 349 714 284 714 C219 714 165 696 121 660 C78 624 56 574 56 509 C56 447 80 399 129 364 C65 325 33 269 33 195 C33 130 55 79 100 42 C145 5 206 -14 284 -14 C361 -14 423 5 468 42 C513 79 535 130 535 195 L535 195 Z M284 584 C311 584 332 577 349 562 C366 547 374 527 374 502 C374 476 366 456 349 441 C332 426 311 419 284 419 C257 419 236 426 219 441 C202 456 194 476 194 502 C194 527 202 547 219 562 C236 577 257 584 284 584 L284 584 Z M367 284 C388 267 398 243 398 213 C398 183 388 159 367 142 C346 125 319 116 284 116 C249 116 222 125 202 142 C181 159 170 183 170 213 C170 243 181 267 202 284 C222 301 249 309 284 309 C319 309 346 301 367 284 L367 284 Z " />
<glyph glyph-name="nine" unicode="9" horiz-adv-x="553" d="M488 329 C516 370 530 418 530 471 C530 542 506 601 459 646 C412 691 351 714 276 714 C201 714 140 691 93 646 C46 601 23 543 23 471 C23 400 46 342 91 297 C137 252 196 229 269 228 L113 0 L271 0 L489 329 L488 329 L488 329 Z M194 388 C171 409 160 437 160 471 C160 504 171 532 194 553 C215 574 243 584 276 584 C311 584 339 574 360 553 C382 532 393 505 393 471 C393 437 382 409 360 388 C339 367 311 357 276 357 C243 357 215 367 194 388 L194 388 Z " />
<glyph glyph-name="colon" unicode="&#x3a;" horiz-adv-x="268" d="M134 345 C157 345 177 353 194 370 C211 387 219 407 219 430 C219 453 211 473 194 490 C177 507 157 515 134 515 C111 515 91 507 74 490 C57 473 49 453 49 430 C49 407 57 387 74 370 C91 353 111 345 134 345 L134 345 Z M134 -13 C157 -13 177 -5 194 12 C211 29 219 49 219 72 C219 95 211 115 194 132 C177 149 157 157 134 157 C111 157 91 149 74 132 C57 115 49 95 49 72 C49 49 57 29 74 12 C91 -5 111 -13 134 -13 L134 -13 Z " />
<glyph glyph-name="semicolon" unicode="&#x3b;" horiz-adv-x="279" d="M145 345 C168 345 188 353 205 370 C222 387 230 407 230 430 C230 453 222 473 205 490 C188 507 168 515 145 515 C122 515 102 507 85 490 C68 473 60 453 60 430 C60 407 68 387 85 370 C102 353 122 345 145 345 L145 345 Z M89 138 L49 -140 L154 -140 L229 138 L89 138 Z " />
<glyph glyph-name="less" unicode="&#x3c;" horiz-adv-x="528" d="M45 408 L45 293 L483 103 L483 237 L192 350 L483 464 L483 598 L45 408 Z " />
<glyph glyph-name="equal" unicode="&#x3d;" horiz-adv-x="525" d="M480 393 L480 514 L45 514 L45 393 L480 393 Z M480 186 L480 307 L45 307 L45 186 L480 186 Z " />
<glyph glyph-name="greater" unicode="&#x3e;" horiz-adv-x="528" d="M45 464 L336 350 L45 237 L45 103 L483 293 L483 408 L45 598 L45 464 Z " />
<glyph glyph-name="question" unicode="&#x3f;" horiz-adv-x="553" d="M333 235 C333 254 342 274 359 295 C366 303 375 312 386 323 L401 338 L417 353 C473 408 501 462 501 517 C501 578 479 626 434 661 C389 696 337 714 277 714 C222 714 174 701 131 674 C87 646 55 608 35 559 L153 491 C176 550 216 580 272 580 C333 580 363 556 363 507 C363 487 354 465 336 441 C322 422 303 402 279 383 C256 365 237 344 222 319 C204 290 195 262 195 235 L333 235 Z M264 -13 C287 -13 307 -5 324 12 C341 29 349 49 349 72 C349 95 341 115 324 132 C307 149 287 157 264 157 C241 157 221 149 204 132 C187 115 179 95 179 72 C179 49 187 29 204 12 C221 -5 241 -13 264 -13 L264 -13 Z " />
<glyph glyph-name="at" unicode="&#x40;" horiz-adv-x="779" d="M585 560 C530 595 468 612 397 612 C294 612 207 577 137 506 C68 435 33 350 33 250 C33 145 69 59 142 -9 C215 -78 306 -112 415 -112 C477 -112 531 -104 577 -89 L577 -53 C533 -70 479 -78 415 -78 C316 -78 233 -47 168 15 C103 77 70 155 70 250 C70 343 101 420 164 483 C227 546 305 578 397 578 C484 578 558 548 619 489 C679 430 709 357 709 270 C709 215 700 172 682 142 C665 113 642 99 613 99 C574 99 555 123 555 172 L555 403 L448 403 L448 377 C423 402 393 414 357 414 C314 414 279 398 251 367 C224 336 210 297 210 250 C210 203 224 163 251 132 C279 101 314 86 357 86 C398 86 431 101 456 132 C477 79 521 53 588 53 C635 53 673 72 702 109 C732 148 747 202 747 270 C747 328 734 382 707 432 C679 484 638 527 585 560 L585 560 Z M429 201 C418 188 403 182 384 182 C365 182 349 188 337 201 C325 214 319 230 319 250 C319 271 325 287 337 299 C349 312 365 318 384 318 C403 318 418 312 429 299 C441 287 447 271 447 250 C447 230 441 214 429 201 L429 201 Z " />
<glyph glyph-name="A" unicode="A" horiz-adv-x="668" d="M665 0 L419 700 L248 700 L3 0 L152 0 L194 126 L473 126 L515 0 L665 0 Z M334 541 L430 255 L238 255 L334 541 Z " />
<glyph glyph-name="B" unicode="B" horiz-adv-x="605" d="M580 203 C580 274 549 328 488 363 C532 398 554 445 554 503 C554 560 533 607 492 644 C451 681 400 700 341 700 L65 700 L65 0 L362 0 C423 0 475 19 517 57 C559 95 580 144 580 203 L580 203 Z M341 571 C363 571 381 564 395 549 C409 534 416 516 416 494 C416 472 409 454 395 439 C380 424 362 417 341 417 L203 417 L203 571 L341 571 Z M203 129 L203 294 L362 294 C385 294 405 286 420 271 C435 255 443 235 443 212 C443 188 435 168 420 153 C405 137 385 129 362 129 L203 129 Z " />
<glyph glyph-name="C" unicode="C" horiz-adv-x="726" d="M136 91 C205 21 292 -14 397 -14 C460 -14 519 1 573 31 C626 60 668 100 698 151 L579 220 C562 189 538 165 506 148 C473 130 437 121 397 121 C329 121 274 142 232 185 C191 228 170 283 170 350 C170 417 191 473 232 516 C274 559 329 580 397 580 C481 580 542 547 579 480 L698 549 C668 600 626 640 573 669 C519 699 460 714 397 714 C292 714 205 679 136 609 C67 540 33 454 33 350 C33 247 67 160 136 91 L136 91 Z " />
<glyph glyph-name="D" unicode="D" horiz-adv-x="713" d="M65 700 L65 0 L343 0 C439 0 519 34 583 101 C648 168 680 251 680 350 C680 449 648 532 583 599 C519 666 439 700 343 700 L65 700 Z M203 132 L203 568 L343 568 C404 568 453 548 491 507 C529 467 548 415 548 350 C548 286 529 233 491 192 C453 152 404 132 343 132 L203 132 Z " />
<glyph glyph-name="E" unicode="E" horiz-adv-x="530" d="M203 289 L468 289 L468 419 L203 419 L203 568 L493 568 L493 700 L65 700 L65 0 L498 0 L498 132 L203 132 L203 289 Z " />
<glyph glyph-name="F" unicode="F" horiz-adv-x="519" d="M483 700 L65 700 L65 0 L203 0 L203 270 L475 270 L475 402 L203 402 L203 568 L483 568 L483 700 Z " />
<glyph glyph-name="G" unicode="G" horiz-adv-x="785" d="M401 376 L401 254 L613 254 C586 165 518 121 409 121 C336 121 278 142 235 185 C192 228 170 283 170 349 C170 416 191 471 234 514 C277 558 332 580 399 580 C440 580 477 571 512 553 C545 535 570 512 587 483 L705 551 C674 601 632 641 579 670 C524 699 465 714 400 714 C296 714 209 679 138 608 C68 537 33 451 33 349 C33 248 68 162 139 91 C210 21 300 -14 408 -14 C509 -14 592 17 656 79 C720 141 752 222 752 322 L752 376 L401 376 Z " />
<glyph glyph-name="H" unicode="H" horiz-adv-x="665" d="M463 422 L203 422 L203 700 L65 700 L65 0 L203 0 L203 290 L463 290 L463 0 L600 0 L600 700 L463 700 L463 422 Z " />
<glyph glyph-name="I" unicode="I" horiz-adv-x="268" d="M65 0 L203 0 L203 700 L65 700 L65 0 Z " />
<glyph glyph-name="J" unicode="J" horiz-adv-x="569" d="M33 119 C77 30 154 -14 264 -14 C337 -14 396 6 441 47 C487 88 510 145 510 218 L510 700 L373 700 L373 218 C373 153 337 121 264 121 C211 121 174 143 152 187 L33 119 L33 119 Z " />
<glyph glyph-name="K" unicode="K" horiz-adv-x="615" d="M343 360 L602 700 L443 700 L203 391 L203 700 L65 700 L65 0 L203 0 L203 328 L453 0 L612 0 L343 360 Z " />
<glyph glyph-name="L" unicode="L" horiz-adv-x="483" d="M203 700 L65 700 L65 0 L470 0 L470 132 L203 132 L203 700 Z " />
<glyph glyph-name="M" unicode="M" horiz-adv-x="815" d="M608 700 L408 369 L207 700 L65 700 L65 0 L203 0 L203 453 L400 129 L416 129 L613 454 L613 0 L750 0 L750 700 L608 700 Z " />
<glyph glyph-name="N" unicode="N" horiz-adv-x="673" d="M470 273 L170 700 L65 700 L65 0 L203 0 L203 428 L503 0 L608 0 L608 700 L470 700 L470 273 Z " />
<glyph glyph-name="O" unicode="O" horiz-adv-x="792" d="M396 -14 C497 -14 583 21 654 91 C725 162 760 248 760 350 C760 452 725 538 654 608 C583 679 497 714 396 714 C295 714 209 679 138 608 C68 538 33 452 33 350 C33 249 68 162 138 91 C209 21 295 -14 396 -14 L396 -14 Z M396 121 C331 121 278 142 235 185 C192 228 170 283 170 350 C170 417 192 472 235 515 C278 558 332 580 396 580 C460 580 514 558 557 515 C600 472 622 417 622 350 C622 283 600 228 557 185 C514 142 461 121 396 121 L396 121 Z " />
<glyph glyph-name="P" unicode="P" horiz-adv-x="590" d="M65 700 L65 0 L203 0 L203 230 L326 230 C393 230 449 253 496 298 C542 343 565 399 565 465 C565 532 542 587 496 632 C449 677 393 700 326 700 L65 700 Z M203 359 L203 571 L326 571 C355 571 380 561 399 541 C418 521 428 496 428 465 C428 435 418 410 399 390 C380 369 355 359 326 359 L203 359 Z " />
<glyph glyph-name="Q" unicode="Q" horiz-adv-x="797" d="M674 114 C731 181 760 260 760 350 C760 452 724 538 653 608 C582 679 497 714 396 714 C295 714 210 679 139 608 C68 538 33 452 33 350 C33 248 68 162 139 91 C210 21 296 -14 396 -14 C459 -14 518 1 572 31 L648 -48 L746 39 L674 114 L674 114 Z M474 134 C449 125 423 121 396 121 C332 121 278 143 235 186 C192 229 170 284 170 350 C170 417 192 472 235 515 C278 558 332 580 396 580 C460 580 514 558 557 515 C600 472 622 417 622 350 C622 299 608 253 580 213 L457 341 L359 254 L474 134 L474 134 Z " />
<glyph glyph-name="R" unicode="R" horiz-adv-x="614" d="M598 0 L443 264 C484 283 516 310 541 347 C566 384 578 425 578 468 C578 532 555 587 510 632 C465 677 410 700 345 700 L65 700 L65 0 L203 0 L203 243 L308 243 L449 0 L598 0 Z M345 571 C371 571 393 561 412 541 C431 521 440 497 440 468 C440 439 431 415 412 395 C393 374 371 364 345 364 L203 364 L203 571 L345 571 Z " />
<glyph glyph-name="S" unicode="S" horiz-adv-x="583" d="M129 32 C177 1 235 -14 304 -14 C379 -14 440 5 487 43 C534 81 558 132 558 197 C558 235 549 268 532 296 C526 307 516 318 502 331 C491 341 479 350 466 358 C457 365 442 372 422 379 C401 388 386 393 377 396 L329 412 C278 427 243 442 223 456 C205 470 196 488 196 510 C196 531 204 547 221 560 C238 573 260 580 288 580 C349 580 394 550 422 490 L538 557 C487 662 404 714 288 714 C225 714 170 695 125 657 C80 620 58 570 58 506 C58 443 80 395 124 362 C159 337 208 316 269 297 C326 281 365 266 387 252 C409 239 420 220 420 195 C420 146 383 121 308 121 C228 121 174 157 147 228 L29 159 C49 105 82 63 129 32 L129 32 Z " />
<glyph glyph-name="T" unicode="T" horiz-adv-x="540" d="M13 700 L13 568 L201 568 L201 0 L339 0 L339 568 L528 568 L528 700 L13 700 Z " />
<glyph glyph-name="U" unicode="U" horiz-adv-x="653" d="M134 52 C184 8 248 -14 326 -14 C405 -14 469 8 519 52 C569 96 594 155 594 229 L594 700 L456 700 L456 240 C456 161 413 121 326 121 C239 121 196 161 196 240 L196 700 L59 700 L59 229 C59 155 84 96 134 52 L134 52 Z " />
<glyph glyph-name="V" unicode="V" horiz-adv-x="647" d="M409 0 L645 700 L494 700 L324 162 L153 700 L3 700 L238 0 L409 0 Z " />
<glyph glyph-name="W" unicode="W" horiz-adv-x="999" d="M368 0 L499 462 L631 0 L788 0 L984 700 L839 700 L705 181 L558 700 L440 700 L294 181 L160 700 L15 700 L211 0 L368 0 Z " />
<glyph glyph-name="X" unicode="X" horiz-adv-x="610" d="M383 360 L586 700 L430 700 L305 490 L180 700 L24 700 L227 359 L13 0 L169 0 L305 228 L441 0 L598 0 L383 360 Z " />
<glyph glyph-name="Y" unicode="Y" horiz-adv-x="621" d="M463 700 L311 408 L159 700 L3 700 L242 273 L242 0 L379 0 L379 273 L619 700 L463 700 Z " />
<glyph glyph-name="Z" unicode="Z" horiz-adv-x="535" d="M503 591 L503 700 L43 700 L43 568 L327 568 L36 110 L36 0 L509 0 L509 132 L212 132 L503 591 Z " />
<glyph glyph-name="bracketleft" unicode="&#x5b;" horiz-adv-x="310" d="M290 800 L53 800 L53 -100 L290 -100 L290 24 L182 24 L182 676 L290 676 L290 800 Z " />
<glyph glyph-name="backslash" unicode="&#x5c;" horiz-adv-x="523" d="M490 -100 L90 800 L33 800 L433 -100 L490 -100 Z " />
<glyph glyph-name="bracketright" unicode="&#x5d;" horiz-adv-x="310" d="M20 800 L20 676 L128 676 L128 24 L20 24 L20 -100 L257 -100 L257 800 L20 800 Z " />
<glyph glyph-name="asciicircum" unicode="&#x5e;" horiz-adv-x="560" d="M231 700 L40 370 L179 370 L280 552 L381 370 L520 370 L329 700 L231 700 Z " />
<glyph glyph-name="underscore" unicode="&#x5f;" horiz-adv-x="520" d="M488 -171 L488 -47 L33 -47 L33 -171 L488 -171 Z " />
<glyph glyph-name="grave" unicode="&#x60;" horiz-adv-x="275" d="M220 563 L164 659 L55 659 L133 563 L220 563 Z " />
<glyph glyph-name="A001" unicode="a" horiz-adv-x="626" d="M439 441 C400 490 346 514 276 514 C209 514 152 488 104 437 C57 386 33 323 33 250 C33 176 57 113 104 62 C152 11 209 -14 276 -14 C346 -14 400 10 439 59 L439 0 L568 0 L568 500 L439 500 L439 441 Z M300 109 C260 109 227 122 201 148 C175 175 162 209 162 250 C162 291 175 325 201 351 C227 378 260 391 300 391 C340 391 373 378 399 351 C426 325 439 291 439 250 C439 209 426 175 399 148 C373 122 340 109 300 109 L300 109 Z " />
<glyph glyph-name="B002" unicode="b" horiz-adv-x="626" d="M522 437 C475 488 417 514 350 514 C280 514 226 490 188 441 L188 700 L59 700 L59 0 L188 0 L188 59 C226 10 280 -14 350 -14 C418 -14 475 11 522 62 C570 113 594 176 594 250 C594 324 570 386 522 437 L522 437 Z M326 109 C286 109 253 122 227 148 C201 175 188 209 188 250 C188 291 201 325 227 351 C253 378 286 391 326 391 C366 391 399 378 425 351 C452 325 465 291 465 250 C465 209 452 175 425 148 C399 122 366 109 326 109 L326 109 Z " />
<glyph glyph-name="C003" unicode="c" horiz-adv-x="536" d="M108 62 C159 11 222 -14 297 -14 C345 -14 389 -2 430 21 C470 44 501 76 523 116 L411 180 C390 136 351 114 296 114 C257 114 225 127 200 152 C175 179 162 211 162 250 C162 290 175 323 200 349 C225 374 257 387 296 387 C350 387 388 365 410 320 L521 385 C500 424 470 456 430 479 C390 502 346 514 297 514 C222 514 159 489 108 438 C58 387 33 325 33 250 C33 176 58 113 108 62 L108 62 Z " />
<glyph glyph-name="D004" unicode="d" horiz-adv-x="626" d="M438 441 C400 490 346 514 276 514 C209 514 151 488 103 437 C56 386 32 323 32 250 C32 176 56 113 103 62 C151 11 209 -14 276 -14 C346 -14 400 10 438 59 L438 0 L567 0 L567 700 L438 700 L438 441 Z M300 109 C261 109 227 122 200 148 C174 175 161 209 161 250 C161 291 174 325 200 351 C227 378 260 391 300 391 C340 391 373 378 399 351 C425 325 438 291 438 250 C438 209 425 175 399 148 C373 122 340 109 300 109 L300 109 Z " />
<glyph glyph-name="E005" unicode="e" horiz-adv-x="581" d="M545 197 C548 218 550 236 550 250 C550 325 526 387 478 438 C431 489 371 514 297 514 C219 514 156 489 107 438 C58 387 33 325 33 250 C33 174 58 111 108 61 C158 11 224 -14 307 -14 C403 -14 476 22 525 93 L421 153 C396 120 358 103 309 103 C232 103 185 134 168 197 L545 197 Z M166 297 C182 364 226 398 297 398 C365 398 406 364 421 297 L166 297 Z " />
<glyph glyph-name="F006" unicode="f" horiz-adv-x="328" d="M328 714 C251 719 192 703 152 666 C113 630 93 576 93 505 L93 500 L21 500 L21 376 L93 376 L93 0 L222 0 L222 376 L328 376 L328 500 L222 500 L222 505 C222 566 257 595 328 590 L328 714 Z " />
<glyph glyph-name="G007" unicode="g" horiz-adv-x="626" d="M442 438 C404 489 351 514 282 514 C212 514 153 489 105 439 C57 389 33 329 33 258 C33 187 57 127 104 76 C152 27 211 2 282 2 C351 2 404 27 442 78 L442 24 C442 -15 430 -46 407 -67 C384 -88 352 -99 311 -99 C248 -99 205 -76 180 -29 L70 -92 C115 -173 194 -214 307 -214 C379 -214 440 -194 491 -153 C542 -112 568 -53 568 24 L568 500 L442 500 L442 438 Z M402 355 C429 330 442 298 442 258 C442 218 429 185 402 160 C376 134 343 121 302 121 C261 121 228 134 202 160 C175 185 162 218 162 258 C162 298 175 330 201 355 C228 381 262 394 302 394 C343 394 376 381 402 355 L402 355 Z " />
<glyph glyph-name="H008" unicode="h" horiz-adv-x="577" d="M472 459 C437 496 392 514 337 514 C268 514 219 491 188 444 L188 700 L59 700 L59 0 L188 0 L188 270 C188 353 225 394 298 394 C329 394 353 385 370 368 C388 349 397 324 397 291 L397 0 L526 0 L526 307 C526 372 508 422 472 459 L472 459 Z " />
<glyph glyph-name="I009" unicode="i" horiz-adv-x="247" d="M67 583 C83 568 102 560 123 560 C145 560 164 568 180 583 C195 599 203 618 203 639 C203 660 195 679 180 695 C164 711 145 719 123 719 C102 719 83 711 67 695 C52 679 44 660 44 639 C44 618 52 599 67 583 L67 583 Z M188 0 L188 500 L59 500 L59 0 L188 0 Z " />
<glyph glyph-name="J010" unicode="j" horiz-adv-x="264" d="M85 583 C100 568 119 560 141 560 C162 560 181 568 197 583 C212 599 220 618 220 639 C220 660 212 679 197 695 C181 711 162 719 141 719 C119 719 100 711 85 695 C69 679 61 660 61 639 C61 618 69 599 85 583 L85 583 Z M76 -10 C76 -67 46 -94 -13 -90 L-13 -214 C132 -223 205 -155 205 -10 L205 500 L76 500 L76 -10 Z " />
<glyph glyph-name="K011" unicode="k" horiz-adv-x="525" d="M313 253 L514 500 L360 500 L188 280 L188 700 L59 700 L59 0 L188 0 L188 227 L370 0 L520 0 L313 253 Z " />
<glyph glyph-name="L012" unicode="l" horiz-adv-x="247" d="M188 0 L188 730 L59 730 L59 0 L188 0 Z " />
<glyph glyph-name="M013" unicode="m" horiz-adv-x="852" d="M750 458 C715 495 669 514 612 514 C546 514 496 490 463 442 C434 490 389 514 327 514 C264 514 218 492 188 447 L188 500 L59 500 L59 0 L188 0 L188 281 C188 317 197 345 214 365 C231 384 253 394 282 394 C338 394 366 362 366 299 L366 0 L495 0 L495 281 C495 356 526 394 588 394 C644 394 672 362 672 299 L672 0 L801 0 L801 308 C801 371 784 421 750 458 L750 458 Z " />
<glyph glyph-name="N014" unicode="n" horiz-adv-x="577" d="M472 459 C437 496 392 514 337 514 C268 514 219 491 188 444 L188 500 L59 500 L59 0 L188 0 L188 270 C188 353 225 394 298 394 C329 394 353 385 370 368 C388 349 397 324 397 291 L397 0 L526 0 L526 307 C526 372 508 422 472 459 L472 459 Z " />
<glyph glyph-name="O015" unicode="o" horiz-adv-x="594" d="M297 -14 C372 -14 434 11 485 62 C536 113 562 176 562 250 C562 323 536 386 485 437 C434 488 371 514 297 514 C223 514 160 488 109 437 C58 386 33 324 33 250 C33 175 58 113 109 62 C160 11 222 -14 297 -14 L297 -14 Z M297 112 C258 112 226 125 200 151 C175 178 162 211 162 250 C162 289 175 322 200 349 C226 375 258 388 297 388 C336 388 368 375 394 349 C420 323 433 290 433 250 C433 210 420 177 394 151 C368 125 336 112 297 112 L297 112 Z " />
<glyph glyph-name="P016" unicode="p" horiz-adv-x="626" d="M522 437 C475 488 417 514 350 514 C280 514 226 490 188 441 L188 500 L59 500 L59 -200 L188 -200 L188 59 C226 10 280 -14 350 -14 C418 -14 475 11 522 62 C570 113 594 176 594 250 C594 324 570 386 522 437 L522 437 Z M326 109 C286 109 253 122 227 148 C201 175 188 209 188 250 C188 291 201 325 227 351 C253 378 286 391 326 391 C366 391 399 378 425 351 C452 325 465 291 465 250 C465 209 452 175 425 148 C399 122 366 109 326 109 L326 109 Z " />
<glyph glyph-name="Q017" unicode="q" horiz-adv-x="626" d="M438 441 C400 490 346 514 276 514 C209 514 151 488 103 437 C56 386 32 323 32 250 C32 176 56 113 103 62 C151 11 209 -14 276 -14 C346 -14 400 10 438 59 L438 -200 L567 -200 L567 500 L438 500 L438 441 Z M300 109 C261 109 227 122 200 148 C174 175 161 209 161 250 C161 291 174 325 200 351 C227 378 260 391 300 391 C340 391 373 378 399 351 C425 325 438 291 438 250 C438 209 425 175 399 148 C373 122 340 109 300 109 L300 109 Z " />
<glyph glyph-name="R018" unicode="r" horiz-adv-x="356" d="M188 500 L59 500 L59 0 L188 0 L188 239 C188 287 203 321 234 342 C265 363 301 371 340 366 L340 510 C263 510 212 478 188 414 L188 500 Z " />
<glyph glyph-name="S019" unicode="s" horiz-adv-x="465" d="M269 303 C208 318 178 337 178 358 C178 385 197 399 236 399 C273 399 300 382 316 348 L426 408 C385 479 322 514 236 514 C182 514 137 500 100 471 C64 443 46 404 46 355 C46 309 65 273 102 246 C117 235 135 226 156 218 C171 213 190 207 213 201 C274 186 304 167 304 146 C304 117 281 103 235 103 C185 103 152 125 137 168 L25 105 C62 26 132 -14 235 -14 C292 -14 339 0 378 27 C417 55 436 95 436 146 C437 194 418 232 380 259 C353 278 316 293 269 303 L269 303 Z " />
<glyph glyph-name="T020" unicode="t" horiz-adv-x="385" d="M345 500 L232 500 L232 640 L103 601 L103 500 L16 500 L16 376 L103 376 L103 168 C103 99 121 51 158 25 C195 -2 258 -10 345 0 L345 117 C303 115 275 116 261 121 C242 128 232 143 232 168 L232 376 L345 376 L345 500 Z " />
<glyph glyph-name="U021" unicode="u" horiz-adv-x="577" d="M389 230 C389 147 352 106 279 106 C248 106 224 115 207 132 C189 151 180 176 180 209 L180 500 L51 500 L51 193 C51 129 69 78 104 41 C140 4 185 -14 240 -14 C309 -14 358 9 389 56 L389 0 L518 0 L518 500 L389 500 L389 230 Z " />
<glyph glyph-name="V022" unicode="v" horiz-adv-x="533" d="M266 150 L145 500 L3 500 L193 0 L340 0 L530 500 L388 500 L266 150 Z " />
<glyph glyph-name="W023" unicode="w" horiz-adv-x="770" d="M537 192 L446 500 L324 500 L233 193 L148 500 L11 500 L170 0 L293 0 L385 303 L477 0 L600 0 L759 500 L622 500 L537 192 Z " />
<glyph glyph-name="X024" unicode="x" horiz-adv-x="525" d="M337 256 L512 500 L364 500 L263 359 L162 500 L13 500 L188 255 L5 0 L154 0 L263 152 L371 0 L520 0 L337 256 Z " />
<glyph glyph-name="Y025" unicode="y" horiz-adv-x="525" d="M274 164 L144 500 L3 500 L208 16 C185 -49 142 -81 77 -80 L77 -200 C202 -207 290 -140 341 0 L523 500 L385 500 L274 164 Z " />
<glyph glyph-name="Z026" unicode="z" horiz-adv-x="474" d="M428 414 L428 500 L53 500 L53 379 L254 379 L43 86 L43 0 L438 0 L438 121 L216 121 L428 414 Z " />
<glyph glyph-name="braceleft" unicode="&#x7b;" horiz-adv-x="359" d="M339 17 C310 14 290 16 278 25 C265 34 258 52 258 79 L258 227 C258 288 238 329 198 352 C238 374 258 415 258 476 L258 624 C258 651 265 669 278 678 C290 687 310 689 339 686 L339 810 C199 820 129 758 129 624 L129 476 C129 449 123 432 110 423 C99 415 79 412 50 414 L50 289 C79 291 99 288 110 280 C123 271 129 254 129 227 L129 79 C129 -55 199 -117 339 -107 L339 17 Z " />
<glyph glyph-name="bar" unicode="&#x7c;" horiz-adv-x="259" d="M194 -200 L194 720 L65 720 L65 -200 L194 -200 Z " />
<glyph glyph-name="braceright" unicode="&#x7d;" horiz-adv-x="359" d="M20 -107 C160 -117 230 -55 230 79 L230 227 C230 254 236 271 249 280 C260 288 280 291 309 289 L309 414 C280 412 260 415 249 423 C236 432 230 449 230 476 L230 624 C230 758 160 820 20 810 L20 686 C49 689 69 687 82 678 C95 669 101 651 101 624 L101 476 C101 415 121 374 161 352 C121 329 101 288 101 227 L101 79 C101 52 95 34 82 25 C69 16 49 14 20 17 L20 -107 Z " />
<glyph glyph-name="asciitilde" unicode="&#x7e;" horiz-adv-x="599" d="M449 443 C434 408 418 389 400 386 C383 384 348 395 295 419 C237 448 185 452 140 433 C94 412 62 370 45 305 L150 255 C163 290 179 309 199 312 C218 315 253 304 304 279 C362 249 414 244 459 264 C505 284 537 327 554 392 L449 443 Z " />
<glyph glyph-name="exclamdown" unicode="&#xa1;" horiz-adv-x="268" d="M134 513 C111 513 91 505 74 488 C57 471 49 451 49 428 C49 405 57 385 74 368 C91 351 111 343 134 343 C157 343 177 351 194 368 C211 385 219 405 219 428 C219 451 211 471 194 488 C177 505 157 513 134 513 L134 513 Z M56 0 L56 -200 L211 -200 L211 0 L185 265 L83 265 L56 0 Z " />
<glyph glyph-name="cent" unicode="&#xa2;" horiz-adv-x="536" d="M411 280 C390 236 351 214 296 214 C285 214 279 214 276 215 L358 472 C381 461 399 443 410 420 L521 485 C494 536 453 572 398 594 L432 700 L374 700 L345 610 C332 613 316 614 297 614 C222 614 159 589 108 538 C58 487 33 425 33 350 C33 296 47 248 74 205 C101 162 137 131 183 110 L148 0 L206 0 L236 93 C253 88 273 86 297 86 C345 86 389 98 430 121 C470 144 501 176 523 216 L411 280 Z M223 234 C182 259 162 297 162 350 C162 390 175 423 200 449 C225 474 257 487 296 487 L305 487 L223 234 L223 234 Z " />
<glyph glyph-name="sterling" unicode="&#xa3;" horiz-adv-x="581" d="M243 274 L446 274 L446 395 L243 395 L243 490 C243 519 251 541 268 557 C283 572 304 580 329 580 C375 580 407 553 424 500 L543 568 C524 614 496 650 459 676 C421 701 377 714 326 714 C267 714 215 695 171 657 C128 620 106 566 106 495 L106 395 L45 395 L45 274 L106 274 L106 133 L33 133 L33 0 L570 0 L570 133 L243 133 L243 274 Z " />
<glyph glyph-name="currency" unicode="&#xa4;" horiz-adv-x="543" d="M441 219 C471 256 486 300 486 350 C486 399 471 442 441 481 L511 551 L473 589 L402 519 C363 547 320 561 272 561 C224 561 180 547 141 519 L71 589 L33 551 L102 482 C72 443 57 399 57 350 C57 300 72 256 102 219 L33 149 L71 111 L141 181 C180 154 223 140 272 140 C323 140 366 154 402 182 L473 111 L511 149 L441 219 L441 219 Z M335 287 C318 270 297 262 272 262 C246 262 225 270 209 287 C193 303 185 324 185 350 C185 376 193 397 209 414 C225 430 246 438 272 438 C297 438 318 430 335 414 C351 397 359 376 359 350 C359 325 351 304 335 287 L335 287 Z " />
<glyph glyph-name="yen" unicode="&#xa5;" horiz-adv-x="601" d="M463 700 L311 408 L159 700 L3 700 L192 362 L71 362 L71 282 L237 282 L242 273 L242 237 L71 237 L71 156 L242 156 L242 0 L379 0 L379 156 L531 156 L531 237 L379 237 L379 273 L384 282 L531 282 L531 362 L429 362 L619 700 L463 700 Z " />
<glyph glyph-name="brokenbar" unicode="&#xa6;" horiz-adv-x="259" d="M194 350 L194 720 L65 720 L65 350 L194 350 Z M194 -200 L194 170 L65 170 L65 -200 L194 -200 Z " />
<glyph glyph-name="section" unicode="&#xa7;" horiz-adv-x="542" d="M446 156 C485 190 505 233 505 284 C505 329 488 366 454 394 C429 415 394 435 347 454 L343 456 L339 458 C334 459 330 461 327 462 L266 487 C255 492 243 500 228 513 C216 524 210 536 210 549 C210 583 231 600 272 600 C314 600 345 577 366 530 L472 588 C435 672 369 714 272 714 C219 714 173 699 136 670 C99 641 81 601 81 549 C81 509 91 476 111 450 C70 419 49 377 49 325 C49 284 63 249 91 220 C114 196 151 173 202 151 C205 150 210 148 216 145 L233 139 C248 133 259 129 264 126 L277 120 L292 114 C303 109 311 105 316 102 C339 87 350 72 350 56 C350 20 326 2 278 2 C225 2 190 28 172 80 L57 14 C92 -70 166 -112 278 -112 C335 -112 383 -97 422 -68 C460 -39 479 3 479 56 C479 96 468 129 446 156 L446 156 Z M259 254 C205 275 178 301 178 332 C178 354 186 371 202 383 L287 351 C319 338 341 327 354 316 C369 303 376 288 376 269 C376 249 368 232 353 219 L299 239 L259 254 L259 254 Z " />
<glyph glyph-name="dieresis" unicode="&#xa8;" horiz-adv-x="365" d="M88 549 C107 549 122 555 135 568 C148 581 155 597 155 616 C155 635 148 651 135 664 C122 677 107 684 88 684 C69 684 53 677 40 664 C27 651 20 635 20 616 C20 597 27 581 40 568 C53 555 69 549 88 549 L88 549 Z M278 549 C297 549 312 555 325 568 C338 581 345 597 345 616 C345 635 338 651 325 664 C312 677 297 684 278 684 C259 684 243 677 230 664 C217 651 210 635 210 616 C210 597 217 581 230 568 C243 555 259 549 278 549 L278 549 Z " />
<glyph glyph-name="copyright" unicode="&#xa9;" horiz-adv-x="789" d="M395 -12 C495 -12 580 23 651 94 C722 165 757 250 757 350 C757 450 722 535 651 606 C580 677 495 712 395 712 C295 712 210 677 139 606 C68 535 33 450 33 350 C33 250 68 165 139 94 C210 23 295 -12 395 -12 L395 -12 Z M624 118 C561 54 485 22 395 22 C305 22 228 54 165 118 C102 183 70 260 70 350 C70 440 102 517 165 582 C228 646 305 678 395 678 C485 678 561 646 624 582 C687 517 719 440 719 350 C719 260 687 183 624 118 L624 118 Z M258 212 C297 173 343 154 398 154 C433 154 465 163 496 180 C526 197 549 221 566 250 L469 307 C454 279 430 265 395 265 C370 265 350 273 334 290 C319 306 311 326 311 350 C311 374 319 394 334 410 C350 427 370 435 395 435 C430 435 455 421 469 394 L565 450 C548 480 525 504 495 521 C465 538 433 546 398 546 C343 546 297 527 258 488 C219 449 200 403 200 350 C200 297 219 251 258 212 L258 212 Z " />
<glyph glyph-name="guillemotleft" unicode="&#xab;" horiz-adv-x="545" d="M173 497 L63 309 L173 122 L292 122 L182 309 L292 497 L173 497 Z M363 497 L253 309 L363 122 L482 122 L372 309 L482 497 L363 497 Z " />
<glyph glyph-name="logicalnot" unicode="&#xac;" horiz-adv-x="550" d="M45 290 L376 290 L376 171 L505 171 L505 411 L45 411 L45 290 Z " />
<glyph glyph-name="registered" unicode="&#xae;" horiz-adv-x="789" d="M395 712 C295 712 210 677 139 606 C68 535 33 450 33 350 C33 250 68 165 139 94 C210 23 295 -12 395 -12 C495 -12 580 23 651 94 C722 165 757 250 757 350 C757 450 722 535 651 606 C580 677 495 712 395 712 L395 712 Z M624 118 C561 54 485 22 395 22 C305 22 228 54 165 118 C102 183 70 260 70 350 C70 440 102 517 165 582 C228 646 305 678 395 678 C485 678 561 646 624 582 C687 517 719 440 719 350 C719 260 687 183 624 118 L624 118 Z M495 301 C532 327 550 364 550 412 C550 448 536 478 509 501 C482 524 448 535 407 535 L258 535 L258 165 L365 165 L365 275 L403 275 L456 165 L571 165 L495 301 L495 301 Z M398 438 C428 438 443 426 443 401 C443 377 428 365 398 365 L365 365 L365 438 L398 438 Z " />
<glyph glyph-name="macron" unicode="&#xaf;" horiz-adv-x="330" d="M310 564 L310 669 L20 669 L20 564 L310 564 Z " />
<glyph glyph-name="degree" unicode="&#xb0;" horiz-adv-x="401" d="M81 528 C113 496 153 480 201 480 C250 480 290 496 321 528 C353 560 369 599 369 645 C369 691 353 730 321 762 C289 794 249 810 201 810 C153 810 113 794 81 762 C49 730 33 691 33 645 C33 600 49 561 81 528 L81 528 Z M201 585 C184 585 169 591 158 602 C147 613 142 628 142 645 C142 662 147 677 158 688 C169 699 184 705 201 705 C218 705 232 699 243 688 C254 677 260 662 260 645 C260 628 254 613 243 602 C232 591 218 585 201 585 L201 585 Z " />
<glyph glyph-name="plusminus" unicode="&#xb1;" horiz-adv-x="555" d="M338 648 L217 648 L217 502 L53 502 L53 381 L217 381 L217 235 L338 235 L338 381 L503 381 L503 502 L338 502 L338 648 Z M503 53 L503 174 L53 174 L53 53 L503 53 Z " />
<glyph glyph-name="acute" unicode="&#xb4;" horiz-adv-x="275" d="M55 563 L142 563 L220 659 L111 659 L55 563 Z " />
<glyph glyph-name="mu" unicode="&#xb5;" horiz-adv-x="617" d="M558 121 C537 121 526 132 526 153 L526 500 L397 500 L397 230 C397 147 360 106 287 106 C256 106 232 115 215 133 C197 151 188 177 188 210 L188 500 L59 500 L59 -200 L188 -200 L188 8 C213 -7 243 -14 278 -14 C344 -14 392 7 423 50 C447 17 484 0 534 0 L594 0 L594 121 L558 121 Z " />
<glyph glyph-name="paragraph" unicode="&#xb6;" horiz-adv-x="669" d="M240 700 C181 700 130 679 88 637 C46 595 25 544 25 485 C25 426 46 375 88 333 C130 291 181 270 240 270 L240 -200 L361 -200 L361 587 L440 587 L440 -200 L561 -200 L561 587 L623 587 L623 700 L240 700 Z " />
<glyph glyph-name="periodcentered" unicode="&#xb7;" horiz-adv-x="268" d="M134 262 C157 262 177 270 194 287 C211 304 219 324 219 347 C219 370 211 390 194 407 C177 424 157 432 134 432 C111 432 91 424 74 407 C57 390 49 370 49 347 C49 324 57 304 74 287 C91 270 111 262 134 262 L134 262 Z " />
<glyph glyph-name="cedilla" unicode="&#xb8;" horiz-adv-x="260" d="M170 0 L65 0 L65 -80 C107 -83 128 -91 128 -105 C128 -123 92 -130 20 -125 L20 -216 C167 -225 240 -194 240 -124 C240 -83 217 -57 170 -46 L170 0 Z " />
<glyph glyph-name="guillemotright" unicode="&#xbb;" horiz-adv-x="545" d="M63 497 L173 309 L63 122 L182 122 L292 309 L182 497 L63 497 Z M253 497 L363 309 L253 122 L372 122 L482 309 L372 497 L253 497 Z " />
<glyph glyph-name="onequarter" unicode="&#xbc;" horiz-adv-x="814" d="M217 700 L123 700 L3 657 L28 569 L110 592 L110 300 L217 300 L217 700 Z M117 0 L207 0 L607 700 L517 700 L117 0 Z M757 162 L757 231 L655 231 L655 162 L588 162 L711 400 L597 400 L468 162 L468 64 L655 64 L655 0 L757 0 L757 64 L798 64 L798 162 L757 162 Z " />
<glyph glyph-name="onehalf" unicode="&#xbd;" horiz-adv-x="813" d="M217 700 L123 700 L3 657 L28 569 L110 592 L110 300 L217 300 L217 700 Z M117 0 L207 0 L607 700 L517 700 L117 0 Z M706 159 C751 204 774 247 774 288 C774 325 760 355 732 378 C704 402 669 414 626 414 C554 414 504 381 476 315 L563 265 C577 299 598 316 625 316 C652 316 666 304 666 280 C666 261 654 241 631 219 L481 70 L481 0 L780 0 L780 97 L641 97 L706 159 Z " />
<glyph glyph-name="threequarters" unicode="&#xbe;" horiz-adv-x="895" d="M280 321 C307 344 321 378 321 421 C321 480 291 518 231 535 L303 621 L303 700 L28 700 L28 603 L173 603 L104 519 L144 461 L163 461 C197 461 214 448 214 421 C214 394 198 380 166 380 C133 380 111 396 100 427 L10 375 C37 316 89 286 166 286 C215 286 253 298 280 321 L280 321 Z M198 0 L288 0 L688 700 L598 700 L198 0 Z M838 162 L838 231 L736 231 L736 162 L669 162 L792 400 L678 400 L549 162 L549 64 L736 64 L736 0 L838 0 L838 64 L879 64 L879 162 L838 162 Z " />
<glyph glyph-name="questiondown" unicode="&#xbf;" horiz-adv-x="553" d="M289 513 C266 513 246 505 229 488 C212 471 204 451 204 428 C204 405 212 385 229 368 C246 351 266 343 289 343 C312 343 332 351 349 368 C366 385 374 405 374 428 C374 451 366 471 349 488 C332 505 312 513 289 513 L289 513 Z M220 265 C220 246 211 226 194 205 C187 197 178 188 167 177 L152 162 L136 147 C80 92 52 38 52 -17 C52 -78 74 -126 118 -161 C163 -196 216 -214 276 -214 C331 -214 380 -201 423 -174 C466 -146 498 -108 518 -59 L400 9 C377 -50 337 -80 281 -80 C220 -80 190 -56 190 -7 C190 17 202 43 227 71 C235 80 247 91 262 106 L280 123 L298 140 C338 179 358 220 358 265 L220 265 Z " />
<glyph glyph-name="Agrave" unicode="&#xc0;" horiz-adv-x="668" d="M336 900 L181 900 L292 763 L416 763 L336 900 Z M665 0 L419 700 L248 700 L3 0 L152 0 L194 126 L473 126 L515 0 L665 0 Z M334 541 L430 255 L238 255 L334 541 Z " />
<glyph glyph-name="Aacute" unicode="&#xc1;" horiz-adv-x="668" d="M334 900 L254 763 L378 763 L489 900 L334 900 Z M665 0 L419 700 L248 700 L3 0 L152 0 L194 126 L473 126 L515 0 L665 0 Z M334 541 L430 255 L238 255 L334 541 Z " />
<glyph glyph-name="Acircumflex" unicode="&#xc2;" horiz-adv-x="668" d="M374 755 L502 755 L396 900 L265 900 L159 755 L287 755 L331 820 L374 755 Z M665 0 L419 700 L248 700 L3 0 L152 0 L194 126 L473 126 L515 0 L665 0 Z M334 541 L430 255 L238 255 L334 541 Z " />
<glyph glyph-name="Atilde" unicode="&#xc3;" horiz-adv-x="668" d="M280 800 C287 803 301 798 321 784 C368 754 409 747 444 764 C483 783 503 830 503 905 L398 905 C398 882 394 868 387 865 C380 862 366 867 346 881 C299 912 258 918 223 900 C184 881 164 834 164 760 L268 760 C268 783 272 797 280 800 L280 800 Z M665 0 L419 700 L248 700 L3 0 L152 0 L194 126 L473 126 L515 0 L665 0 Z M334 541 L430 255 L238 255 L334 541 Z " />
<glyph glyph-name="Adieresis" unicode="&#xc4;" horiz-adv-x="668" d="M239 749 C258 749 273 755 286 768 C299 781 306 797 306 816 C306 835 299 851 286 864 C273 877 258 884 239 884 C220 884 204 877 191 864 C178 851 171 835 171 816 C171 797 178 781 191 768 C204 755 220 749 239 749 L239 749 Z M429 749 C448 749 463 755 476 768 C489 781 496 797 496 816 C496 835 489 851 476 864 C463 877 448 884 429 884 C410 884 394 877 381 864 C368 851 361 835 361 816 C361 797 368 781 381 768 C394 755 410 749 429 749 L429 749 Z M665 0 L419 700 L248 700 L3 0 L152 0 L194 126 L473 126 L515 0 L665 0 Z M334 541 L430 255 L238 255 L334 541 Z " />
<glyph glyph-name="Aring" unicode="&#xc5;" horiz-adv-x="668" d="M665 0 L425 683 C448 705 460 733 460 768 C460 802 448 830 425 853 C402 875 371 886 334 886 C297 886 267 875 244 853 C220 830 208 802 208 768 C208 735 219 707 242 684 L3 0 L152 0 L194 126 L473 126 L515 0 L665 0 Z M295 768 C295 793 308 805 334 805 C361 805 374 793 374 768 C374 743 361 730 334 730 C308 730 295 743 295 768 L295 768 Z M334 541 L430 255 L238 255 L334 541 Z " />
<glyph glyph-name="AE" unicode="&#xc6;" horiz-adv-x="880" d="M584 289 L820 289 L820 419 L584 419 L584 568 L843 568 L843 700 L414 700 L0 0 L155 0 L229 126 L450 126 L450 0 L848 0 L848 132 L584 132 L584 289 Z M450 501 L450 255 L305 255 L450 501 Z " />
<glyph glyph-name="Ccedilla" unicode="&#xc7;" horiz-adv-x="726" d="M506 148 C473 130 437 121 397 121 C329 121 274 142 232 185 C191 228 170 283 170 350 C170 417 191 473 232 516 C274 559 329 580 397 580 C481 580 542 547 579 480 L698 549 C668 600 626 640 573 669 C519 699 460 714 397 714 C292 714 205 679 136 609 C67 540 33 454 33 350 C33 255 62 173 121 106 C180 39 256 0 350 -11 L350 -80 C392 -83 413 -91 413 -105 C413 -123 377 -130 305 -125 L305 -216 C452 -225 525 -194 525 -124 C525 -83 502 -57 455 -46 L455 -10 C563 8 644 62 698 151 L579 220 C562 189 538 165 506 148 L506 148 Z " />
<glyph glyph-name="Egrave" unicode="&#xc8;" horiz-adv-x="530" d="M281 900 L126 900 L237 763 L361 763 L281 900 Z M203 289 L468 289 L468 419 L203 419 L203 568 L493 568 L493 700 L65 700 L65 0 L498 0 L498 132 L203 132 L203 289 Z " />
<glyph glyph-name="Eacute" unicode="&#xc9;" horiz-adv-x="530" d="M279 900 L199 763 L323 763 L434 900 L279 900 Z M203 289 L468 289 L468 419 L203 419 L203 568 L493 568 L493 700 L65 700 L65 0 L498 0 L498 132 L203 132 L203 289 Z " />
<glyph glyph-name="Ecircumflex" unicode="&#xca;" horiz-adv-x="530" d="M319 755 L447 755 L341 900 L210 900 L104 755 L232 755 L276 820 L319 755 Z M203 289 L468 289 L468 419 L203 419 L203 568 L493 568 L493 700 L65 700 L65 0 L498 0 L498 132 L203 132 L203 289 Z " />
<glyph glyph-name="Edieresis" unicode="&#xcb;" horiz-adv-x="530" d="M184 749 C203 749 218 755 231 768 C244 781 251 797 251 816 C251 835 244 851 231 864 C218 877 203 884 184 884 C165 884 149 877 136 864 C123 851 116 835 116 816 C116 797 123 781 136 768 C149 755 165 749 184 749 L184 749 Z M374 749 C393 749 408 755 421 768 C434 781 441 797 441 816 C441 835 434 851 421 864 C408 877 393 884 374 884 C355 884 339 877 326 864 C313 851 306 835 306 816 C306 797 313 781 326 768 C339 755 355 749 374 749 L374 749 Z M203 289 L468 289 L468 419 L203 419 L203 568 L493 568 L493 700 L65 700 L65 0 L498 0 L498 132 L203 132 L203 289 Z " />
<glyph glyph-name="Igrave" unicode="&#xcc;" horiz-adv-x="268" d="M92 763 L-19 900 L136 900 L216 763 L92 763 Z M65 0 L203 0 L203 700 L65 700 L65 0 Z " />
<glyph glyph-name="Iacute" unicode="&#xcd;" horiz-adv-x="268" d="M134 900 L289 900 L178 763 L54 763 L134 900 Z M65 0 L203 0 L203 700 L65 700 L65 0 Z " />
<glyph glyph-name="Icircumflex" unicode="&#xce;" horiz-adv-x="268" d="M174 755 L302 755 L196 900 L65 900 L-41 755 L87 755 L131 820 L174 755 Z M203 0 L203 700 L65 700 L65 0 L203 0 Z " />
<glyph glyph-name="Idieresis" unicode="&#xcf;" horiz-adv-x="268" d="M39 749 C58 749 73 755 86 768 C99 781 106 797 106 816 C106 835 99 851 86 864 C73 877 58 884 39 884 C20 884 4 877 -9 864 C-22 851 -29 835 -29 816 C-29 797 -22 781 -9 768 C4 755 20 749 39 749 L39 749 Z M229 749 C248 749 263 755 276 768 C289 781 296 797 296 816 C296 835 289 851 276 864 C263 877 248 884 229 884 C210 884 194 877 181 864 C168 851 161 835 161 816 C161 797 168 781 181 768 C194 755 210 749 229 749 L229 749 Z M65 0 L203 0 L203 700 L65 700 L65 0 Z " />
<glyph glyph-name="Eth" unicode="&#xd0;" horiz-adv-x="748" d="M100 700 L100 405 L22 405 L22 281 L100 281 L100 0 L378 0 C474 0 554 34 618 101 C683 168 715 251 715 350 C715 449 683 532 618 599 C554 666 474 700 378 700 L100 700 Z M238 132 L238 281 L397 281 L397 405 L238 405 L238 568 L378 568 C439 568 488 548 526 507 C564 467 583 415 583 350 C583 286 564 233 526 192 C488 152 439 132 378 132 L238 132 Z " />
<glyph glyph-name="Ntilde" unicode="&#xd1;" horiz-adv-x="673" d="M263 760 C263 783 267 797 275 800 C282 803 296 798 316 784 C363 754 404 747 439 764 C478 783 498 830 498 905 L393 905 C393 882 389 868 382 865 C375 862 361 867 341 881 C294 912 253 918 218 900 C179 881 159 834 159 760 L263 760 Z M470 273 L170 700 L65 700 L65 0 L203 0 L203 428 L503 0 L608 0 L608 700 L470 700 L470 273 Z " />
<glyph glyph-name="Ograve" unicode="&#xd2;" horiz-adv-x="792" d="M354 771 L243 908 L398 908 L478 771 L354 771 Z M760 350 C760 452 725 538 654 608 C583 679 497 714 396 714 C295 714 209 679 138 608 C68 538 33 452 33 350 C33 249 68 162 138 91 C209 21 295 -14 396 -14 C497 -14 583 21 654 91 C725 162 760 248 760 350 L760 350 Z M170 350 C170 417 192 472 235 515 C278 558 332 580 396 580 C460 580 514 558 557 515 C600 472 622 417 622 350 C622 283 600 228 557 185 C514 142 461 121 396 121 C331 121 278 142 235 185 C192 228 170 283 170 350 L170 350 Z " />
<glyph glyph-name="Oacute" unicode="&#xd3;" horiz-adv-x="792" d="M396 908 L551 908 L440 771 L316 771 L396 908 Z M760 350 C760 452 725 538 654 608 C583 679 497 714 396 714 C295 714 209 679 138 608 C68 538 33 452 33 350 C33 249 68 162 138 91 C209 21 295 -14 396 -14 C497 -14 583 21 654 91 C725 162 760 248 760 350 L760 350 Z M170 350 C170 417 192 472 235 515 C278 558 332 580 396 580 C460 580 514 558 557 515 C600 472 622 417 622 350 C622 283 600 228 557 185 C514 142 461 121 396 121 C331 121 278 142 235 185 C192 228 170 283 170 350 L170 350 Z " />
<glyph glyph-name="Ocircumflex" unicode="&#xd4;" horiz-adv-x="792" d="M436 763 L564 763 L458 908 L327 908 L221 763 L349 763 L393 828 L436 763 Z M396 714 C295 714 209 679 138 608 C68 538 33 452 33 350 C33 249 68 162 138 91 C209 21 295 -14 396 -14 C497 -14 583 21 654 91 C725 162 760 248 760 350 C760 452 725 538 654 608 C583 679 497 714 396 714 L396 714 Z M396 121 C331 121 278 142 235 185 C192 228 170 283 170 350 C170 417 192 472 235 515 C278 558 332 580 396 580 C460 580 514 558 557 515 C600 472 622 417 622 350 C622 283 600 228 557 185 C514 142 461 121 396 121 L396 121 Z " />
<glyph glyph-name="Otilde" unicode="&#xd5;" horiz-adv-x="792" d="M330 768 C330 791 334 805 342 808 C349 811 363 806 383 792 C430 762 471 755 506 772 C545 791 565 838 565 913 L460 913 C460 890 456 876 449 873 C442 870 428 875 408 889 C361 920 320 926 285 908 C246 889 226 842 226 768 L330 768 Z M396 -14 C497 -14 583 21 654 91 C725 162 760 248 760 350 C760 452 725 538 654 608 C583 679 497 714 396 714 C295 714 209 679 138 608 C68 538 33 452 33 350 C33 249 68 162 138 91 C209 21 295 -14 396 -14 L396 -14 Z M396 121 C331 121 278 142 235 185 C192 228 170 283 170 350 C170 417 192 472 235 515 C278 558 332 580 396 580 C460 580 514 558 557 515 C600 472 622 417 622 350 C622 283 600 228 557 185 C514 142 461 121 396 121 L396 121 Z " />
<glyph glyph-name="Odieresis" unicode="&#xd6;" horiz-adv-x="792" d="M301 757 C320 757 335 763 348 776 C361 789 368 805 368 824 C368 843 361 859 348 872 C335 885 320 892 301 892 C282 892 266 885 253 872 C240 859 233 843 233 824 C233 805 240 789 253 776 C266 763 282 757 301 757 L301 757 Z M491 757 C510 757 525 763 538 776 C551 789 558 805 558 824 C558 843 551 859 538 872 C525 885 510 892 491 892 C472 892 456 885 443 872 C430 859 423 843 423 824 C423 805 430 789 443 776 C456 763 472 757 491 757 L491 757 Z M396 -14 C497 -14 583 21 654 91 C725 162 760 248 760 350 C760 452 725 538 654 608 C583 679 497 714 396 714 C295 714 209 679 138 608 C68 538 33 452 33 350 C33 249 68 162 138 91 C209 21 295 -14 396 -14 L396 -14 Z M396 121 C331 121 278 142 235 185 C192 228 170 283 170 350 C170 417 192 472 235 515 C278 558 332 580 396 580 C460 580 514 558 557 515 C600 472 622 417 622 350 C622 283 600 228 557 185 C514 142 461 121 396 121 L396 121 Z " />
<glyph glyph-name="multiply" unicode="&#xd7;" horiz-adv-x="512" d="M376 555 L256 435 L136 555 L50 471 L171 350 L50 229 L136 145 L256 265 L376 145 L462 229 L341 350 L462 471 L376 555 Z " />
<glyph glyph-name="Oslash" unicode="&#xd8;" horiz-adv-x="798" d="M719 672 L651 711 L604 654 C543 694 476 714 402 714 C301 714 215 679 144 608 C74 538 39 452 39 350 C39 251 73 166 141 95 L86 29 L154 -11 L201 46 C261 6 328 -14 402 -14 C503 -14 589 21 660 91 C731 162 766 248 766 350 C766 450 732 535 664 605 L719 672 Z M228 200 C193 241 176 291 176 350 C176 417 198 472 241 515 C284 558 338 580 402 580 C443 580 482 570 518 550 L228 200 Z M563 185 C520 142 467 121 402 121 C361 121 322 131 287 150 L577 500 C611 459 628 409 628 350 C628 283 606 228 563 185 L563 185 Z " />
<glyph glyph-name="Ugrave" unicode="&#xd9;" horiz-adv-x="653" d="M284 763 L173 900 L328 900 L408 763 L284 763 Z M519 52 C569 96 594 155 594 229 L594 700 L456 700 L456 240 C456 161 413 121 326 121 C239 121 196 161 196 240 L196 700 L59 700 L59 229 C59 155 84 96 134 52 C184 8 248 -14 326 -14 C405 -14 469 8 519 52 L519 52 Z " />
<glyph glyph-name="Uacute" unicode="&#xda;" horiz-adv-x="653" d="M326 900 L481 900 L370 763 L246 763 L326 900 Z M519 52 C569 96 594 155 594 229 L594 700 L456 700 L456 240 C456 161 413 121 326 121 C239 121 196 161 196 240 L196 700 L59 700 L59 229 C59 155 84 96 134 52 C184 8 248 -14 326 -14 C405 -14 469 8 519 52 L519 52 Z " />
<glyph glyph-name="Ucircumflex" unicode="&#xdb;" horiz-adv-x="653" d="M366 755 L494 755 L388 900 L257 900 L151 755 L279 755 L323 820 L366 755 Z M456 240 C456 161 413 121 326 121 C239 121 196 161 196 240 L196 700 L59 700 L59 229 C59 155 84 96 134 52 C184 8 248 -14 326 -14 C405 -14 469 8 519 52 C569 96 594 155 594 229 L594 700 L456 700 L456 240 Z " />
<glyph glyph-name="Udieresis" unicode="&#xdc;" horiz-adv-x="653" d="M231 749 C250 749 265 755 278 768 C291 781 298 797 298 816 C298 835 291 851 278 864 C265 877 250 884 231 884 C212 884 196 877 183 864 C170 851 163 835 163 816 C163 797 170 781 183 768 C196 755 212 749 231 749 L231 749 Z M421 749 C440 749 455 755 468 768 C481 781 488 797 488 816 C488 835 481 851 468 864 C455 877 440 884 421 884 C402 884 386 877 373 864 C360 851 353 835 353 816 C353 797 360 781 373 768 C386 755 402 749 421 749 L421 749 Z M134 52 C184 8 248 -14 326 -14 C405 -14 469 8 519 52 C569 96 594 155 594 229 L594 700 L456 700 L456 240 C456 161 413 121 326 121 C239 121 196 161 196 240 L196 700 L59 700 L59 229 C59 155 84 96 134 52 L134 52 Z " />
<glyph glyph-name="Yacute" unicode="&#xdd;" horiz-adv-x="621" d="M310 900 L230 763 L354 763 L465 900 L310 900 Z M463 700 L311 408 L159 700 L3 700 L242 273 L242 0 L379 0 L379 273 L619 700 L463 700 Z " />
<glyph glyph-name="Thorn" unicode="&#xde;" horiz-adv-x="590" d="M203 585 L203 700 L65 700 L65 0 L203 0 L203 115 L330 115 C395 115 451 138 496 183 C542 229 565 285 565 350 C565 416 542 471 496 516 C451 562 396 585 330 585 L203 585 Z M203 244 L203 456 L330 456 C357 456 381 446 400 426 C419 405 428 380 428 350 C428 320 419 295 400 275 C381 254 357 244 330 244 L203 244 Z " />
<glyph glyph-name="germandbls" unicode="&#xdf;" horiz-adv-x="537" d="M279 -6 C366 -14 427 -4 464 25 C502 54 521 94 521 145 C521 196 502 246 463 294 C446 315 433 333 423 350 C411 371 405 387 405 398 C405 405 415 425 435 459 C455 493 465 524 465 552 C465 597 448 635 413 666 C378 698 332 714 273 714 C208 714 156 695 117 658 C78 621 59 571 59 508 L59 0 L188 0 L188 509 C188 567 215 596 268 596 C288 596 304 590 317 578 C330 565 336 550 336 532 C336 513 325 489 304 460 C283 431 273 408 273 390 C273 371 283 348 302 319 L362 236 C382 209 392 186 392 167 C392 120 354 101 279 108 L279 -6 Z " />
<glyph glyph-name="Agrave027" unicode="&#xe0;" horiz-adv-x="626" d="M311 700 L156 700 L267 563 L391 563 L311 700 Z M439 441 C400 490 346 514 276 514 C209 514 152 488 104 437 C57 386 33 323 33 250 C33 176 57 113 104 62 C152 11 209 -14 276 -14 C346 -14 400 10 439 59 L439 0 L568 0 L568 500 L439 500 L439 441 Z M300 109 C260 109 227 122 201 148 C175 175 162 209 162 250 C162 291 175 325 201 351 C227 378 260 391 300 391 C340 391 373 378 399 351 C426 325 439 291 439 250 C439 209 426 175 399 148 C373 122 340 109 300 109 L300 109 Z " />
<glyph glyph-name="Aacute028" unicode="&#xe1;" horiz-adv-x="626" d="M309 700 L229 563 L353 563 L464 700 L309 700 Z M439 441 C400 490 346 514 276 514 C209 514 152 488 104 437 C57 386 33 323 33 250 C33 176 57 113 104 62 C152 11 209 -14 276 -14 C346 -14 400 10 439 59 L439 0 L568 0 L568 500 L439 500 L439 441 Z M300 109 C260 109 227 122 201 148 C175 175 162 209 162 250 C162 291 175 325 201 351 C227 378 260 391 300 391 C340 391 373 378 399 351 C426 325 439 291 439 250 C439 209 426 175 399 148 C373 122 340 109 300 109 L300 109 Z " />
<glyph glyph-name="Acircumflex029" unicode="&#xe2;" horiz-adv-x="626" d="M349 555 L477 555 L371 700 L240 700 L134 555 L262 555 L306 620 L349 555 Z M439 441 C400 490 346 514 276 514 C209 514 152 488 104 437 C57 386 33 323 33 250 C33 176 57 113 104 62 C152 11 209 -14 276 -14 C346 -14 400 10 439 59 L439 0 L568 0 L568 500 L439 500 L439 441 Z M300 109 C260 109 227 122 201 148 C175 175 162 209 162 250 C162 291 175 325 201 351 C227 378 260 391 300 391 C340 391 373 378 399 351 C426 325 439 291 439 250 C439 209 426 175 399 148 C373 122 340 109 300 109 L300 109 Z " />
<glyph glyph-name="Atilde030" unicode="&#xe3;" horiz-adv-x="626" d="M255 600 C262 603 276 598 296 584 C343 554 384 547 419 564 C458 583 478 630 478 705 L373 705 C373 682 369 668 362 665 C355 662 341 667 321 681 C274 712 233 718 198 700 C159 681 139 634 139 560 L243 560 C243 583 247 597 255 600 L255 600 Z M439 441 C400 490 346 514 276 514 C209 514 152 488 104 437 C57 386 33 323 33 250 C33 176 57 113 104 62 C152 11 209 -14 276 -14 C346 -14 400 10 439 59 L439 0 L568 0 L568 500 L439 500 L439 441 Z M300 109 C260 109 227 122 201 148 C175 175 162 209 162 250 C162 291 175 325 201 351 C227 378 260 391 300 391 C340 391 373 378 399 351 C426 325 439 291 439 250 C439 209 426 175 399 148 C373 122 340 109 300 109 L300 109 Z " />
<glyph glyph-name="Adieresis031" unicode="&#xe4;" horiz-adv-x="626" d="M214 549 C233 549 248 555 261 568 C274 581 281 597 281 616 C281 635 274 651 261 664 C248 677 233 684 214 684 C195 684 179 677 166 664 C153 651 146 635 146 616 C146 597 153 581 166 568 C179 555 195 549 214 549 L214 549 Z M404 549 C423 549 438 555 451 568 C464 581 471 597 471 616 C471 635 464 651 451 664 C438 677 423 684 404 684 C385 684 369 677 356 664 C343 651 336 635 336 616 C336 597 343 581 356 568 C369 555 385 549 404 549 L404 549 Z M439 441 C400 490 346 514 276 514 C209 514 152 488 104 437 C57 386 33 323 33 250 C33 176 57 113 104 62 C152 11 209 -14 276 -14 C346 -14 400 10 439 59 L439 0 L568 0 L568 500 L439 500 L439 441 Z M300 109 C260 109 227 122 201 148 C175 175 162 209 162 250 C162 291 175 325 201 351 C227 378 260 391 300 391 C340 391 373 378 399 351 C426 325 439 291 439 250 C439 209 426 175 399 148 C373 122 340 109 300 109 L300 109 Z " />
<glyph glyph-name="Aring032" unicode="&#xe5;" horiz-adv-x="626" d="M219 573 C242 550 272 539 309 539 C346 539 377 550 400 573 C423 595 435 623 435 658 C435 692 423 720 400 743 C377 765 346 776 309 776 C272 776 242 765 219 743 C195 720 183 692 183 658 C183 624 195 596 219 573 L219 573 Z M270 658 C270 683 283 695 309 695 C336 695 349 683 349 658 C349 633 336 620 309 620 C283 620 270 633 270 658 L270 658 Z M439 441 C400 490 346 514 276 514 C209 514 152 488 104 437 C57 386 33 323 33 250 C33 176 57 113 104 62 C152 11 209 -14 276 -14 C346 -14 400 10 439 59 L439 0 L568 0 L568 500 L439 500 L439 441 Z M300 109 C260 109 227 122 201 148 C175 175 162 209 162 250 C162 291 175 325 201 351 C227 378 260 391 300 391 C340 391 373 378 399 351 C426 325 439 291 439 250 C439 209 426 175 399 148 C373 122 340 109 300 109 L300 109 Z " />
<glyph glyph-name="AE033" unicode="&#xe6;" horiz-adv-x="988" d="M952 197 C955 218 957 236 957 250 C957 325 936 388 895 439 C854 489 798 514 726 514 C657 514 602 489 560 438 L560 500 L439 500 L439 441 C400 490 346 514 276 514 C209 514 152 488 104 437 C57 386 33 323 33 250 C33 176 57 113 104 62 C152 11 209 -14 276 -14 C346 -14 400 10 439 59 L439 0 L560 0 L560 63 C603 12 660 -14 730 -14 C815 -14 883 22 932 93 L828 153 C803 120 765 103 715 103 C640 103 594 134 575 197 L952 197 Z M573 298 C590 365 634 398 705 398 C772 398 813 365 828 298 L573 298 Z M300 109 C260 109 227 122 201 148 C175 175 162 209 162 250 C162 291 175 325 201 351 C227 378 260 391 300 391 C340 391 373 378 399 351 C426 325 439 291 439 250 C439 209 426 175 399 148 C373 122 340 109 300 109 L300 109 Z " />
<glyph glyph-name="Ccedilla034" unicode="&#xe7;" horiz-adv-x="536" d="M411 180 C390 136 351 114 296 114 C257 114 225 127 200 152 C175 179 162 211 162 250 C162 290 175 323 200 349 C225 374 257 387 296 387 C350 387 388 365 410 320 L521 385 C500 424 470 456 430 479 C390 502 346 514 297 514 C222 514 159 489 108 438 C58 387 33 325 33 250 C33 183 53 126 93 78 C134 30 186 1 250 -10 L250 -80 C292 -83 313 -91 313 -105 C313 -123 277 -130 205 -125 L205 -216 C352 -225 425 -194 425 -124 C425 -83 402 -57 355 -46 L355 -8 C430 9 486 50 523 116 L411 180 Z " />
<glyph glyph-name="Egrave035" unicode="&#xe8;" horiz-adv-x="581" d="M293 704 L138 704 L249 567 L373 567 L293 704 Z M545 197 C548 218 550 236 550 250 C550 325 526 387 478 438 C431 489 371 514 297 514 C219 514 156 489 107 438 C58 387 33 325 33 250 C33 174 58 111 108 61 C158 11 224 -14 307 -14 C403 -14 476 22 525 93 L421 153 C396 120 358 103 309 103 C232 103 185 134 168 197 L545 197 Z M166 297 C182 364 226 398 297 398 C365 398 406 364 421 297 L166 297 Z " />
<glyph glyph-name="Eacute036" unicode="&#xe9;" horiz-adv-x="581" d="M291 704 L211 567 L335 567 L446 704 L291 704 Z M545 197 C548 218 550 236 550 250 C550 325 526 387 478 438 C431 489 371 514 297 514 C219 514 156 489 107 438 C58 387 33 325 33 250 C33 174 58 111 108 61 C158 11 224 -14 307 -14 C403 -14 476 22 525 93 L421 153 C396 120 358 103 309 103 C232 103 185 134 168 197 L545 197 Z M166 297 C182 364 226 398 297 398 C365 398 406 364 421 297 L166 297 Z " />
<glyph glyph-name="Ecircumflex037" unicode="&#xea;" horiz-adv-x="581" d="M331 559 L459 559 L353 704 L222 704 L116 559 L244 559 L288 624 L331 559 Z M545 197 C548 218 550 236 550 250 C550 325 526 387 478 438 C431 489 371 514 297 514 C219 514 156 489 107 438 C58 387 33 325 33 250 C33 174 58 111 108 61 C158 11 224 -14 307 -14 C403 -14 476 22 525 93 L421 153 C396 120 358 103 309 103 C232 103 185 134 168 197 L545 197 Z M166 297 C182 364 226 398 297 398 C365 398 406 364 421 297 L166 297 Z " />
<glyph glyph-name="Edieresis038" unicode="&#xeb;" horiz-adv-x="581" d="M196 553 C215 553 230 559 243 572 C256 585 263 601 263 620 C263 639 256 655 243 668 C230 681 215 688 196 688 C177 688 161 681 148 668 C135 655 128 639 128 620 C128 601 135 585 148 572 C161 559 177 553 196 553 L196 553 Z M386 553 C405 553 420 559 433 572 C446 585 453 601 453 620 C453 639 446 655 433 668 C420 681 405 688 386 688 C367 688 351 681 338 668 C325 655 318 639 318 620 C318 601 325 585 338 572 C351 559 367 553 386 553 L386 553 Z M545 197 C548 218 550 236 550 250 C550 325 526 387 478 438 C431 489 371 514 297 514 C219 514 156 489 107 438 C58 387 33 325 33 250 C33 174 58 111 108 61 C158 11 224 -14 307 -14 C403 -14 476 22 525 93 L421 153 C396 120 358 103 309 103 C232 103 185 134 168 197 L545 197 Z M166 297 C182 364 226 398 297 398 C365 398 406 364 421 297 L166 297 Z " />
<glyph glyph-name="Igrave039" unicode="&#xec;" horiz-adv-x="247" d="M60 555 L-7 700 L141 700 L184 555 L60 555 Z M188 500 L59 500 L59 0 L188 0 L188 500 Z " />
<glyph glyph-name="Iacute040" unicode="&#xed;" horiz-adv-x="247" d="M102 700 L250 700 L184 555 L60 555 L102 700 Z M188 0 L188 500 L59 500 L59 0 L188 0 Z " />
<glyph glyph-name="Icircumflex041" unicode="&#xee;" horiz-adv-x="247" d="M155 555 L282 555 L189 700 L58 700 L-36 555 L92 555 L124 609 L155 555 Z M188 0 L188 500 L59 500 L59 0 L188 0 Z " />
<glyph glyph-name="Idieresis042" unicode="&#xef;" horiz-adv-x="247" d="M38 553 C57 553 73 559 86 572 C99 585 106 601 106 620 C106 639 99 655 86 668 C73 681 57 688 38 688 C19 688 4 681 -9 668 C-22 655 -29 639 -29 620 C-29 601 -22 585 -9 572 C4 559 19 553 38 553 L38 553 Z M208 553 C227 553 243 559 256 572 C269 585 276 601 276 620 C276 639 269 655 256 668 C243 681 227 688 208 688 C189 688 173 681 160 668 C147 655 141 639 141 620 C141 601 147 585 160 572 C173 559 189 553 208 553 L208 553 Z M188 0 L188 500 L59 500 L59 0 L188 0 Z " />
<glyph glyph-name="Eth043" unicode="&#xf0;" horiz-adv-x="571" d="M329 590 L398 624 L398 714 L280 656 L247 700 L98 700 L170 601 L91 562 L91 472 L218 535 L276 455 C209 460 152 440 104 395 C57 351 33 296 33 230 C33 157 58 98 107 54 C156 10 216 -12 286 -12 C357 -12 416 10 465 54 C514 98 539 157 539 230 C539 282 524 329 493 370 L329 590 Z M375 141 C352 120 323 109 286 109 C249 109 220 120 197 141 C174 163 162 193 162 230 C162 265 174 294 197 315 C220 336 249 347 286 347 C329 347 364 331 389 300 C403 280 410 257 410 230 C410 193 398 164 375 141 L375 141 Z " />
<glyph glyph-name="Ntilde044" unicode="&#xf1;" horiz-adv-x="577" d="M244 608 C251 611 265 606 285 592 C332 562 373 555 408 572 C447 591 467 638 467 713 L362 713 C362 690 358 676 351 673 C344 670 330 675 310 689 C263 720 222 726 187 708 C148 689 128 642 128 568 L232 568 C232 591 236 605 244 608 L244 608 Z M472 459 C437 496 392 514 337 514 C268 514 219 491 188 444 L188 500 L59 500 L59 0 L188 0 L188 270 C188 353 225 394 298 394 C329 394 353 385 370 368 C388 349 397 324 397 291 L397 0 L526 0 L526 307 C526 372 508 422 472 459 L472 459 Z " />
<glyph glyph-name="Ograve045" unicode="&#xf2;" horiz-adv-x="594" d="M255 571 L144 708 L299 708 L379 571 L255 571 Z M562 250 C562 323 536 386 485 437 C434 488 371 514 297 514 C223 514 160 488 109 437 C58 386 33 324 33 250 C33 175 58 113 109 62 C160 11 222 -14 297 -14 C372 -14 434 11 485 62 C536 113 562 176 562 250 L562 250 Z M162 250 C162 289 175 322 200 349 C226 375 258 388 297 388 C336 388 368 375 394 349 C420 323 433 290 433 250 C433 210 420 177 394 151 C368 125 336 112 297 112 C258 112 226 125 200 151 C175 178 162 211 162 250 L162 250 Z " />
<glyph glyph-name="Oacute046" unicode="&#xf3;" horiz-adv-x="594" d="M297 708 L452 708 L341 571 L217 571 L297 708 Z M562 250 C562 323 536 386 485 437 C434 488 371 514 297 514 C223 514 160 488 109 437 C58 386 33 324 33 250 C33 175 58 113 109 62 C160 11 222 -14 297 -14 C372 -14 434 11 485 62 C536 113 562 176 562 250 L562 250 Z M162 250 C162 289 175 322 200 349 C226 375 258 388 297 388 C336 388 368 375 394 349 C420 323 433 290 433 250 C433 210 420 177 394 151 C368 125 336 112 297 112 C258 112 226 125 200 151 C175 178 162 211 162 250 L162 250 Z " />
<glyph glyph-name="Ocircumflex047" unicode="&#xf4;" horiz-adv-x="594" d="M337 563 L465 563 L359 708 L228 708 L122 563 L250 563 L294 628 L337 563 Z M297 514 C223 514 160 488 109 437 C58 386 33 324 33 250 C33 175 58 113 109 62 C160 11 222 -14 297 -14 C372 -14 434 11 485 62 C536 113 562 176 562 250 C562 323 536 386 485 437 C434 488 371 514 297 514 L297 514 Z M297 112 C258 112 226 125 200 151 C175 178 162 211 162 250 C162 289 175 322 200 349 C226 375 258 388 297 388 C336 388 368 375 394 349 C420 323 433 290 433 250 C433 210 420 177 394 151 C368 125 336 112 297 112 L297 112 Z " />
<glyph glyph-name="Otilde048" unicode="&#xf5;" horiz-adv-x="594" d="M231 568 C231 591 235 605 243 608 C250 611 264 606 284 592 C331 562 372 555 407 572 C446 591 466 638 466 713 L361 713 C361 690 357 676 350 673 C343 670 329 675 309 689 C262 720 221 726 186 708 C147 689 127 642 127 568 L231 568 Z M297 -14 C372 -14 434 11 485 62 C536 113 562 176 562 250 C562 323 536 386 485 437 C434 488 371 514 297 514 C223 514 160 488 109 437 C58 386 33 324 33 250 C33 175 58 113 109 62 C160 11 222 -14 297 -14 L297 -14 Z M297 112 C258 112 226 125 200 151 C175 178 162 211 162 250 C162 289 175 322 200 349 C226 375 258 388 297 388 C336 388 368 375 394 349 C420 323 433 290 433 250 C433 210 420 177 394 151 C368 125 336 112 297 112 L297 112 Z " />
<glyph glyph-name="Odieresis049" unicode="&#xf6;" horiz-adv-x="594" d="M202 557 C221 557 236 563 249 576 C262 589 269 605 269 624 C269 643 262 659 249 672 C236 685 221 692 202 692 C183 692 167 685 154 672 C141 659 134 643 134 624 C134 605 141 589 154 576 C167 563 183 557 202 557 L202 557 Z M392 557 C411 557 426 563 439 576 C452 589 459 605 459 624 C459 643 452 659 439 672 C426 685 411 692 392 692 C373 692 357 685 344 672 C331 659 324 643 324 624 C324 605 331 589 344 576 C357 563 373 557 392 557 L392 557 Z M297 -14 C372 -14 434 11 485 62 C536 113 562 176 562 250 C562 323 536 386 485 437 C434 488 371 514 297 514 C223 514 160 488 109 437 C58 386 33 324 33 250 C33 175 58 113 109 62 C160 11 222 -14 297 -14 L297 -14 Z M297 112 C258 112 226 125 200 151 C175 178 162 211 162 250 C162 289 175 322 200 349 C226 375 258 388 297 388 C336 388 368 375 394 349 C420 323 433 290 433 250 C433 210 420 177 394 151 C368 125 336 112 297 112 L297 112 Z " />
<glyph glyph-name="divide" unicode="&#xf7;" horiz-adv-x="565" d="M224 486 C240 471 260 463 283 463 C318 460 342 477 357 514 C372 550 366 580 341 603 C318 628 288 634 252 619 C215 604 198 580 201 545 C201 522 209 502 224 486 L224 486 Z M520 290 L520 411 L45 411 L45 290 L520 290 Z M208 125 C223 88 248 71 283 74 C306 74 325 82 340 97 C356 113 364 133 364 156 C367 191 350 215 314 230 C278 245 248 239 224 213 C199 190 193 161 208 125 L208 125 Z " />
<glyph glyph-name="Oslash050" unicode="&#xf8;" horiz-adv-x="594" d="M530 477 L475 509 L443 471 C398 500 350 514 297 514 C223 514 160 488 109 437 C58 386 33 324 33 250 C33 179 57 118 104 69 L65 23 L120 -9 L152 28 C195 0 244 -14 297 -14 C372 -14 434 11 485 62 C536 113 562 176 562 250 C562 319 538 380 491 431 L530 477 Z M187 167 C170 190 162 218 162 250 C162 290 175 323 201 349 C226 375 258 388 297 388 C321 388 342 383 361 373 L187 167 Z M394 151 C368 125 336 112 297 112 C274 112 253 117 234 127 L408 332 C425 309 433 282 433 250 C433 210 420 177 394 151 L394 151 Z " />
<glyph glyph-name="Ugrave051" unicode="&#xf9;" horiz-adv-x="577" d="M286 700 L131 700 L242 563 L366 563 L286 700 Z M389 230 C389 147 352 106 279 106 C248 106 224 115 207 132 C189 151 180 176 180 209 L180 500 L51 500 L51 193 C51 129 69 78 104 41 C140 4 185 -14 240 -14 C309 -14 358 9 389 56 L389 0 L518 0 L518 500 L389 500 L389 230 Z " />
<glyph glyph-name="Uacute052" unicode="&#xfa;" horiz-adv-x="577" d="M284 700 L204 563 L328 563 L439 700 L284 700 Z M389 230 C389 147 352 106 279 106 C248 106 224 115 207 132 C189 151 180 176 180 209 L180 500 L51 500 L51 193 C51 129 69 78 104 41 C140 4 185 -14 240 -14 C309 -14 358 9 389 56 L389 0 L518 0 L518 500 L389 500 L389 230 Z " />
<glyph glyph-name="Ucircumflex053" unicode="&#xfb;" horiz-adv-x="577" d="M324 555 L452 555 L346 700 L215 700 L109 555 L237 555 L281 620 L324 555 Z M389 230 C389 147 352 106 279 106 C248 106 224 115 207 132 C189 151 180 176 180 209 L180 500 L51 500 L51 193 C51 129 69 78 104 41 C140 4 185 -14 240 -14 C309 -14 358 9 389 56 L389 0 L518 0 L518 500 L389 500 L389 230 Z " />
<glyph glyph-name="Udieresis054" unicode="&#xfc;" horiz-adv-x="577" d="M189 549 C208 549 223 555 236 568 C249 581 256 597 256 616 C256 635 249 651 236 664 C223 677 208 684 189 684 C170 684 154 677 141 664 C128 651 121 635 121 616 C121 597 128 581 141 568 C154 555 170 549 189 549 L189 549 Z M379 549 C398 549 413 555 426 568 C439 581 446 597 446 616 C446 635 439 651 426 664 C413 677 398 684 379 684 C360 684 344 677 331 664 C318 651 311 635 311 616 C311 597 318 581 331 568 C344 555 360 549 379 549 L379 549 Z M389 230 C389 147 352 106 279 106 C248 106 224 115 207 132 C189 151 180 176 180 209 L180 500 L51 500 L51 193 C51 129 69 78 104 41 C140 4 185 -14 240 -14 C309 -14 358 9 389 56 L389 0 L518 0 L518 500 L389 500 L389 230 Z " />
<glyph glyph-name="Yacute055" unicode="&#xfd;" horiz-adv-x="525" d="M263 700 L183 563 L307 563 L418 700 L263 700 Z M274 164 L144 500 L3 500 L208 16 C185 -49 142 -81 77 -80 L77 -200 C202 -207 290 -140 341 0 L523 500 L385 500 L274 164 Z " />
<glyph glyph-name="Thorn056" unicode="&#xfe;" horiz-adv-x="626" d="M522 437 C475 488 417 514 350 514 C280 514 226 490 188 441 L188 700 L59 700 L59 -200 L188 -200 L188 59 C226 10 280 -14 350 -14 C418 -14 475 11 522 62 C570 113 594 176 594 250 C594 324 570 386 522 437 L522 437 Z M326 109 C286 109 253 122 227 148 C201 175 188 209 188 250 C188 291 201 325 227 351 C253 378 286 391 326 391 C366 391 399 378 425 351 C452 325 465 291 465 250 C465 209 452 175 425 148 C399 122 366 109 326 109 L326 109 Z " />
<glyph glyph-name="Ydieresis" unicode="&#xff;" horiz-adv-x="525" d="M168 549 C187 549 202 555 215 568 C228 581 235 597 235 616 C235 635 228 651 215 664 C202 677 187 684 168 684 C149 684 133 677 120 664 C107 651 100 635 100 616 C100 597 107 581 120 568 C133 555 149 549 168 549 L168 549 Z M358 549 C377 549 392 555 405 568 C418 581 425 597 425 616 C425 635 418 651 405 664 C392 677 377 684 358 684 C339 684 323 677 310 664 C297 651 290 635 290 616 C290 597 297 581 310 568 C323 555 339 549 358 549 L358 549 Z M274 164 L144 500 L3 500 L208 16 C185 -49 142 -81 77 -80 L77 -200 C202 -207 290 -140 341 0 L523 500 L385 500 L274 164 Z " />
<glyph glyph-name="Amacron" unicode="&#x100;" horiz-adv-x="668" d="M189 869 L189 764 L479 764 L479 869 L189 869 Z M665 0 L419 700 L248 700 L3 0 L152 0 L194 126 L473 126 L515 0 L665 0 Z M334 541 L430 255 L238 255 L334 541 Z " />
<glyph glyph-name="Amacron057" unicode="&#x101;" horiz-adv-x="626" d="M164 669 L164 564 L454 564 L454 669 L164 669 Z M439 441 C400 490 346 514 276 514 C209 514 152 488 104 437 C57 386 33 323 33 250 C33 176 57 113 104 62 C152 11 209 -14 276 -14 C346 -14 400 10 439 59 L439 0 L568 0 L568 500 L439 500 L439 441 Z M300 109 C260 109 227 122 201 148 C175 175 162 209 162 250 C162 291 175 325 201 351 C227 378 260 391 300 391 C340 391 373 378 399 351 C426 325 439 291 439 250 C439 209 426 175 399 148 C373 122 340 109 300 109 L300 109 Z " />
<glyph glyph-name="Abreve" unicode="&#x102;" horiz-adv-x="668" d="M212 785 C241 760 281 747 334 747 C387 747 429 760 458 785 C487 810 501 846 501 892 L386 892 C386 857 369 840 334 840 C300 840 283 857 283 892 L168 892 C168 846 183 810 212 785 L212 785 Z M665 0 L419 700 L248 700 L3 0 L152 0 L194 126 L473 126 L515 0 L665 0 Z M334 541 L430 255 L238 255 L334 541 Z " />
<glyph glyph-name="Abreve058" unicode="&#x103;" horiz-adv-x="626" d="M187 585 C216 560 256 547 309 547 C362 547 404 560 433 585 C462 610 476 646 476 692 L361 692 C361 657 344 640 309 640 C275 640 258 657 258 692 L143 692 C143 646 158 610 187 585 L187 585 Z M439 441 C400 490 346 514 276 514 C209 514 152 488 104 437 C57 386 33 323 33 250 C33 176 57 113 104 62 C152 11 209 -14 276 -14 C346 -14 400 10 439 59 L439 0 L568 0 L568 500 L439 500 L439 441 Z M300 109 C260 109 227 122 201 148 C175 175 162 209 162 250 C162 291 175 325 201 351 C227 378 260 391 300 391 C340 391 373 378 399 351 C426 325 439 291 439 250 C439 209 426 175 399 148 C373 122 340 109 300 109 L300 109 Z " />
<glyph glyph-name="Aogonek" unicode="&#x104;" horiz-adv-x="668" d="M665 -117 C654 -121 644 -123 637 -122 C620 -122 612 -113 612 -95 C612 -69 630 -37 665 0 L419 700 L248 700 L3 0 L152 0 L194 126 L473 126 L515 0 L555 0 C511 -46 489 -88 489 -126 C489 -154 498 -176 516 -191 C533 -206 555 -214 584 -214 C614 -214 641 -209 665 -198 L665 -117 L665 -117 Z M334 541 L430 255 L238 255 L334 541 Z " />
<glyph glyph-name="Aogonek059" unicode="&#x105;" horiz-adv-x="626" d="M568 500 L439 500 L439 441 C400 490 346 514 276 514 C209 514 152 488 104 437 C57 386 33 323 33 250 C33 176 57 113 104 62 C152 11 209 -14 276 -14 C346 -14 400 10 439 59 L439 0 L455 0 C412 -47 391 -89 391 -126 C391 -154 400 -176 418 -191 C435 -206 458 -214 487 -214 C515 -214 542 -209 568 -198 L568 -117 C556 -121 547 -123 540 -122 C523 -122 514 -113 515 -95 C515 -69 533 -37 568 0 L568 500 Z M300 109 C260 109 227 122 201 148 C175 175 162 209 162 250 C162 291 175 325 201 351 C227 378 260 391 300 391 C340 391 373 378 399 351 C426 325 439 291 439 250 C439 209 426 175 399 148 C373 122 340 109 300 109 L300 109 Z " />
<glyph glyph-name="Cacute" unicode="&#x106;" horiz-adv-x="726" d="M397 908 L552 908 L441 771 L317 771 L397 908 Z M573 31 C626 60 668 100 698 151 L579 220 C562 189 538 165 506 148 C473 130 437 121 397 121 C329 121 274 142 232 185 C191 228 170 283 170 350 C170 417 191 473 232 516 C274 559 329 580 397 580 C481 580 542 547 579 480 L698 549 C668 600 626 640 573 669 C519 699 460 714 397 714 C292 714 205 679 136 609 C67 540 33 454 33 350 C33 247 67 160 136 91 C205 21 292 -14 397 -14 C460 -14 519 1 573 31 L573 31 Z " />
<glyph glyph-name="Cacute060" unicode="&#x107;" horiz-adv-x="536" d="M296 700 L451 700 L340 563 L216 563 L296 700 Z M430 21 C470 44 501 76 523 116 L411 180 C390 136 351 114 296 114 C257 114 225 127 200 152 C175 179 162 211 162 250 C162 290 175 323 200 349 C225 374 257 387 296 387 C350 387 388 365 410 320 L521 385 C500 424 470 456 430 479 C390 502 346 514 297 514 C222 514 159 489 108 438 C58 387 33 325 33 250 C33 176 58 113 108 62 C159 11 222 -14 297 -14 C345 -14 389 -2 430 21 L430 21 Z " />
<glyph glyph-name="Cdotaccent" unicode="&#x10a;" horiz-adv-x="726" d="M342 782 C357 767 376 759 397 759 C418 759 436 767 451 782 C466 797 474 816 474 837 C474 858 466 876 451 891 C436 906 418 914 397 914 C376 914 357 907 342 892 C327 877 319 858 319 837 C319 816 327 797 342 782 L342 782 Z M136 91 C205 21 292 -14 397 -14 C460 -14 519 1 573 31 C626 60 668 100 698 151 L579 220 C562 189 538 165 506 148 C473 130 437 121 397 121 C329 121 274 142 232 185 C191 228 170 283 170 350 C170 417 191 473 232 516 C274 559 329 580 397 580 C481 580 542 547 579 480 L698 549 C668 600 626 640 573 669 C519 699 460 714 397 714 C292 714 205 679 136 609 C67 540 33 454 33 350 C33 247 67 160 136 91 L136 91 Z " />
<glyph glyph-name="Cdotaccent061" unicode="&#x10b;" horiz-adv-x="536" d="M225 599 C239 565 263 549 296 551 C317 551 335 559 350 574 C365 589 373 608 373 629 C375 662 359 685 325 699 C291 714 263 708 241 683 C216 662 210 634 225 599 L225 599 Z M108 62 C159 11 222 -14 297 -14 C345 -14 389 -2 430 21 C470 44 501 76 523 116 L411 180 C390 136 351 114 296 114 C257 114 225 127 200 152 C175 179 162 211 162 250 C162 290 175 323 200 349 C225 374 257 387 296 387 C350 387 388 365 410 320 L521 385 C500 424 470 456 430 479 C390 502 346 514 297 514 C222 514 159 489 108 438 C58 387 33 325 33 250 C33 176 58 113 108 62 L108 62 Z " />
<glyph glyph-name="Ccaron" unicode="&#x10c;" horiz-adv-x="726" d="M459 763 L565 908 L437 908 L394 843 L350 908 L222 908 L328 763 L459 763 Z M506 148 C473 130 437 121 397 121 C329 121 274 142 232 185 C191 228 170 283 170 350 C170 417 191 473 232 516 C274 559 329 580 397 580 C481 580 542 547 579 480 L698 549 C668 600 626 640 573 669 C519 699 460 714 397 714 C292 714 205 679 136 609 C67 540 33 454 33 350 C33 247 67 160 136 91 C205 21 292 -14 397 -14 C460 -14 519 1 573 31 C626 60 668 100 698 151 L579 220 C562 189 538 165 506 148 L506 148 Z " />
<glyph glyph-name="Ccaron062" unicode="&#x10d;" horiz-adv-x="536" d="M358 555 L464 700 L336 700 L293 635 L249 700 L121 700 L227 555 L358 555 Z M411 180 C390 136 351 114 296 114 C257 114 225 127 200 152 C175 179 162 211 162 250 C162 290 175 323 200 349 C225 374 257 387 296 387 C350 387 388 365 410 320 L521 385 C500 424 470 456 430 479 C390 502 346 514 297 514 C222 514 159 489 108 438 C58 387 33 325 33 250 C33 176 58 113 108 62 C159 11 222 -14 297 -14 C345 -14 389 -2 430 21 C470 44 501 76 523 116 L411 180 Z " />
<glyph glyph-name="Dcaron" unicode="&#x10e;" horiz-adv-x="713" d="M397 755 L503 900 L375 900 L332 835 L288 900 L160 900 L266 755 L397 755 Z M65 700 L65 0 L343 0 C439 0 519 34 583 101 C648 168 680 251 680 350 C680 449 648 532 583 599 C519 666 439 700 343 700 L65 700 Z M203 132 L203 568 L343 568 C404 568 453 548 491 507 C529 467 548 415 548 350 C548 286 529 233 491 192 C453 152 404 132 343 132 L203 132 Z " />
<glyph glyph-name="Dcaron063" unicode="&#x10f;" horiz-adv-x="735" d="M438 441 C400 490 346 514 276 514 C209 514 151 488 103 437 C56 386 32 323 32 250 C32 176 56 113 103 62 C151 11 209 -14 276 -14 C346 -14 400 10 438 59 L438 0 L567 0 L567 700 L438 700 L438 441 Z M614 500 L715 500 L745 700 L624 700 L614 500 Z M300 109 C261 109 227 122 200 148 C174 175 161 209 161 250 C161 291 174 325 200 351 C227 378 260 391 300 391 C340 391 373 378 399 351 C425 325 438 291 438 250 C438 209 425 175 399 148 C373 122 340 109 300 109 L300 109 Z " />
<glyph glyph-name="Dcroat" unicode="&#x110;" horiz-adv-x="748" d="M100 700 L100 405 L22 405 L22 281 L100 281 L100 0 L378 0 C474 0 554 34 618 101 C683 168 715 251 715 350 C715 449 683 532 618 599 C554 666 474 700 378 700 L100 700 Z M238 132 L238 281 L397 281 L397 405 L238 405 L238 568 L378 568 C439 568 488 548 526 507 C564 467 583 415 583 350 C583 286 564 233 526 192 C488 152 439 132 378 132 L238 132 Z " />
<glyph glyph-name="Dcroat064" unicode="&#x111;" horiz-adv-x="633" d="M568 638 L568 700 L439 700 L439 638 L288 638 L288 554 L439 554 L439 441 C400 490 346 514 276 514 C209 514 152 488 104 437 C57 386 33 323 33 250 C33 176 57 113 104 62 C152 11 209 -14 276 -14 C346 -14 400 10 439 59 L439 0 L568 0 L568 554 L630 554 L630 638 L568 638 Z M300 109 C260 109 227 122 201 148 C175 175 162 209 162 250 C162 291 175 325 201 351 C227 378 260 391 300 391 C340 391 373 378 399 351 C426 325 439 291 439 250 C439 209 426 175 399 148 C373 122 340 109 300 109 L300 109 Z " />
<glyph glyph-name="Emacron" unicode="&#x112;" horiz-adv-x="530" d="M134 869 L134 764 L424 764 L424 869 L134 869 Z M203 289 L468 289 L468 419 L203 419 L203 568 L493 568 L493 700 L65 700 L65 0 L498 0 L498 132 L203 132 L203 289 Z " />
<glyph glyph-name="Emacron065" unicode="&#x113;" horiz-adv-x="581" d="M146 673 L146 568 L436 568 L436 673 L146 673 Z M545 197 C548 218 550 236 550 250 C550 325 526 387 478 438 C431 489 371 514 297 514 C219 514 156 489 107 438 C58 387 33 325 33 250 C33 174 58 111 108 61 C158 11 224 -14 307 -14 C403 -14 476 22 525 93 L421 153 C396 120 358 103 309 103 C232 103 185 134 168 197 L545 197 Z M166 297 C182 364 226 398 297 398 C365 398 406 364 421 297 L166 297 Z " />
<glyph glyph-name="Edotaccent" unicode="&#x116;" horiz-adv-x="530" d="M224 774 C239 759 258 751 279 751 C300 751 318 759 333 774 C348 789 356 808 356 829 C356 850 348 868 333 883 C318 898 300 906 279 906 C258 906 239 899 224 884 C209 869 201 850 201 829 C201 808 209 789 224 774 L224 774 Z M203 289 L468 289 L468 419 L203 419 L203 568 L493 568 L493 700 L65 700 L65 0 L498 0 L498 132 L203 132 L203 289 Z " />
<glyph glyph-name="Edotaccent066" unicode="&#x117;" horiz-adv-x="581" d="M236 578 C251 563 270 555 291 555 C312 555 330 563 345 578 C360 593 368 612 368 633 C368 654 360 672 345 687 C330 702 312 710 291 710 C270 710 251 703 236 688 C221 673 213 654 213 633 C213 612 221 593 236 578 L236 578 Z M545 197 C548 218 550 236 550 250 C550 325 526 387 478 438 C431 489 371 514 297 514 C219 514 156 489 107 438 C58 387 33 325 33 250 C33 174 58 111 108 61 C158 11 224 -14 307 -14 C403 -14 476 22 525 93 L421 153 C396 120 358 103 309 103 C232 103 185 134 168 197 L545 197 Z M166 297 C182 364 226 398 297 398 C365 398 406 364 421 297 L166 297 Z " />
<glyph glyph-name="Eogonek" unicode="&#x118;" horiz-adv-x="530" d="M203 289 L468 289 L468 419 L203 419 L203 568 L493 568 L493 700 L65 700 L65 0 L387 0 C343 -46 321 -88 321 -126 C321 -154 330 -176 348 -191 C365 -206 388 -214 417 -214 C446 -214 473 -209 497 -198 L497 -117 C486 -121 477 -123 470 -122 C453 -122 444 -113 445 -95 C445 -68 462 -37 497 0 L498 0 L498 132 L203 132 L203 289 Z " />
<glyph glyph-name="Eogonek067" unicode="&#x119;" horiz-adv-x="581" d="M545 197 C548 218 550 236 550 250 C550 325 526 387 478 438 C431 489 371 514 297 514 C219 514 156 489 107 438 C58 387 33 325 33 250 C33 174 58 111 108 61 C158 11 224 -14 307 -14 C310 -14 323 -13 346 -12 C303 -49 281 -87 281 -126 C281 -154 290 -176 307 -191 C324 -206 347 -214 376 -214 C404 -214 431 -209 457 -198 L457 -117 C446 -121 436 -123 429 -122 C412 -122 404 -113 404 -95 C404 -58 432 -10 488 50 C504 66 516 80 525 93 L421 153 C396 120 358 103 309 103 C232 103 185 134 168 197 L545 197 Z M166 297 C182 364 226 398 297 398 C365 398 406 364 421 297 L166 297 Z " />
<glyph glyph-name="Ecaron" unicode="&#x11a;" horiz-adv-x="530" d="M341 755 L447 900 L319 900 L276 835 L232 900 L104 900 L210 755 L341 755 Z M203 289 L468 289 L468 419 L203 419 L203 568 L493 568 L493 700 L65 700 L65 0 L498 0 L498 132 L203 132 L203 289 Z " />
<glyph glyph-name="Ecaron068" unicode="&#x11b;" horiz-adv-x="581" d="M353 559 L459 704 L331 704 L288 639 L244 704 L116 704 L222 559 L353 559 Z M545 197 C548 218 550 236 550 250 C550 325 526 387 478 438 C431 489 371 514 297 514 C219 514 156 489 107 438 C58 387 33 325 33 250 C33 174 58 111 108 61 C158 11 224 -14 307 -14 C403 -14 476 22 525 93 L421 153 C396 120 358 103 309 103 C232 103 185 134 168 197 L545 197 Z M166 297 C182 364 226 398 297 398 C365 398 406 364 421 297 L166 297 Z " />
<glyph glyph-name="Gbreve" unicode="&#x11e;" horiz-adv-x="785" d="M275 793 C304 768 344 755 397 755 C450 755 492 768 521 793 C550 818 564 854 564 900 L449 900 C449 865 432 848 397 848 C363 848 346 865 346 900 L231 900 C231 854 246 818 275 793 L275 793 Z M401 376 L401 254 L613 254 C586 165 518 121 409 121 C336 121 278 142 235 185 C192 228 170 283 170 349 C170 416 191 471 234 514 C277 558 332 580 399 580 C440 580 477 571 512 553 C545 535 570 512 587 483 L705 551 C674 601 632 641 579 670 C524 699 465 714 400 714 C296 714 209 679 138 608 C68 537 33 451 33 349 C33 248 68 162 139 91 C210 21 300 -14 408 -14 C509 -14 592 17 656 79 C720 141 752 222 752 322 L752 376 L401 376 Z " />
<glyph glyph-name="Gbreve069" unicode="&#x11f;" horiz-adv-x="626" d="M175 593 C204 568 244 555 297 555 C350 555 392 568 421 593 C450 618 464 654 464 700 L349 700 C349 665 332 648 297 648 C263 648 246 665 246 700 L131 700 C131 654 146 618 175 593 L175 593 Z M442 438 C404 489 351 514 282 514 C212 514 153 489 105 439 C57 389 33 329 33 258 C33 187 57 127 104 76 C152 27 211 2 282 2 C351 2 404 27 442 78 L442 24 C442 -15 430 -46 407 -67 C384 -88 352 -99 311 -99 C248 -99 205 -76 180 -29 L70 -92 C115 -173 194 -214 307 -214 C379 -214 440 -194 491 -153 C542 -112 568 -53 568 24 L568 500 L442 500 L442 438 Z M402 355 C429 330 442 298 442 258 C442 218 429 185 402 160 C376 134 343 121 302 121 C261 121 228 134 202 160 C175 185 162 218 162 258 C162 298 175 330 201 355 C228 381 262 394 302 394 C343 394 376 381 402 355 L402 355 Z " />
<glyph glyph-name="Gdotaccent" unicode="&#x120;" horiz-adv-x="785" d="M342 782 C357 767 376 759 397 759 C418 759 436 767 451 782 C466 797 474 816 474 837 C474 858 466 876 451 891 C436 906 418 914 397 914 C376 914 357 907 342 892 C327 877 319 858 319 837 C319 816 327 797 342 782 L342 782 Z M401 376 L401 254 L613 254 C586 165 518 121 409 121 C336 121 278 142 235 185 C192 228 170 283 170 349 C170 416 191 471 234 514 C277 558 332 580 399 580 C440 580 477 571 512 553 C545 535 570 512 587 483 L705 551 C674 601 632 641 579 670 C524 699 465 714 400 714 C296 714 209 679 138 608 C68 537 33 451 33 349 C33 248 68 162 139 91 C210 21 300 -14 408 -14 C509 -14 592 17 656 79 C720 141 752 222 752 322 L752 376 L401 376 Z " />
<glyph glyph-name="Gdotaccent070" unicode="&#x121;" horiz-adv-x="626" d="M242 582 C257 567 276 559 297 559 C318 559 336 567 351 582 C366 597 374 616 374 637 C374 658 366 676 351 691 C336 706 318 714 297 714 C276 714 257 707 242 692 C227 677 219 658 219 637 C219 616 227 597 242 582 L242 582 Z M442 438 C404 489 351 514 282 514 C212 514 153 489 105 439 C57 389 33 329 33 258 C33 187 57 127 104 76 C152 27 211 2 282 2 C351 2 404 27 442 78 L442 24 C442 -15 430 -46 407 -67 C384 -88 352 -99 311 -99 C248 -99 205 -76 180 -29 L70 -92 C115 -173 194 -214 307 -214 C379 -214 440 -194 491 -153 C542 -112 568 -53 568 24 L568 500 L442 500 L442 438 Z M402 355 C429 330 442 298 442 258 C442 218 429 185 402 160 C376 134 343 121 302 121 C261 121 228 134 202 160 C175 185 162 218 162 258 C162 298 175 330 201 355 C228 381 262 394 302 394 C343 394 376 381 402 355 L402 355 Z " />
<glyph glyph-name="Gcommaaccent" unicode="&#x122;" horiz-adv-x="785" d="M401 376 L401 254 L613 254 C586 165 518 121 409 121 C336 121 278 142 235 185 C192 228 170 283 170 349 C170 416 191 471 234 514 C277 558 332 580 399 580 C440 580 477 571 512 553 C545 535 570 512 587 483 L705 551 C674 601 632 641 579 670 C524 699 465 714 400 714 C296 714 209 679 138 608 C68 537 33 451 33 349 C33 248 68 162 139 91 C210 21 300 -14 408 -14 C509 -14 592 17 656 79 C720 141 752 222 752 322 L752 376 L401 376 Z M443 -263 L473 -63 L351 -63 L341 -263 L443 -263 Z " />
<glyph glyph-name="Gcommaaccent071" unicode="&#x123;" horiz-adv-x="626" d="M259 783 L229 583 L351 583 L361 783 L259 783 Z M442 438 C404 489 351 514 282 514 C212 514 153 489 105 439 C57 389 33 329 33 258 C33 187 57 127 104 76 C152 27 211 2 282 2 C351 2 404 27 442 78 L442 24 C442 -15 430 -46 407 -67 C384 -88 352 -99 311 -99 C248 -99 205 -76 180 -29 L70 -92 C115 -173 194 -214 307 -214 C379 -214 440 -194 491 -153 C542 -112 568 -53 568 24 L568 500 L442 500 L442 438 Z M402 355 C429 330 442 298 442 258 C442 218 429 185 402 160 C376 134 343 121 302 121 C261 121 228 134 202 160 C175 185 162 218 162 258 C162 298 175 330 201 355 C228 381 262 394 302 394 C343 394 376 381 402 355 L402 355 Z " />
<glyph glyph-name="Hbar" unicode="&#x126;" horiz-adv-x="708" d="M621 602 L621 700 L484 700 L484 602 L224 602 L224 700 L86 700 L86 602 L25 602 L25 501 L86 501 L86 0 L224 0 L224 272 L484 272 L484 0 L621 0 L621 501 L683 501 L683 602 L621 602 Z M224 404 L224 501 L484 501 L484 404 L224 404 Z " />
<glyph glyph-name="Hbar072" unicode="&#x127;" horiz-adv-x="583" d="M479 459 C444 496 399 514 343 514 C275 514 225 490 194 443 L194 554 L335 554 L335 638 L194 638 L194 700 L65 700 L65 638 L3 638 L3 554 L65 554 L65 0 L194 0 L194 270 C194 353 231 394 304 394 C335 394 359 385 377 368 C395 349 404 324 404 291 L404 0 L533 0 L533 307 C533 372 515 422 479 459 L479 459 Z " />
<glyph glyph-name="Itilde" unicode="&#x128;" horiz-adv-x="268" d="M65 0 L203 0 L203 700 L65 700 L65 0 Z M89 759 C89 775 92 784 97 787 C102 789 112 785 126 775 C159 754 187 750 212 761 C239 775 253 808 253 860 L180 860 C180 844 177 835 172 832 C167 830 157 834 143 843 C110 864 82 869 57 857 C30 843 16 810 16 759 L89 759 Z " />
<glyph glyph-name="Itilde159" unicode="&#x129;" horiz-adv-x="247" d="M188 0 L188 500 L59 500 L59 0 L188 0 Z M78 559 C78 575 81 584 86 587 C91 589 101 585 115 575 C148 554 176 550 201 561 C228 575 242 608 242 660 L169 660 C169 644 166 635 161 632 C156 630 146 634 132 643 C99 664 71 669 46 657 C19 643 5 610 5 559 L78 559 Z " />
<glyph glyph-name="Imacron" unicode="&#x12a;" horiz-adv-x="268" d="M279 764 L279 869 L-11 869 L-11 764 L279 764 Z M65 0 L203 0 L203 700 L65 700 L65 0 Z " />
<glyph glyph-name="Imacron073" unicode="&#x12b;" horiz-adv-x="247" d="M238 564 L238 676 L8 676 L8 564 L238 564 Z M188 0 L188 500 L59 500 L59 0 L188 0 Z " />
<glyph glyph-name="Iogonek" unicode="&#x12e;" horiz-adv-x="268" d="M222 -117 C210 -121 201 -123 194 -122 C177 -122 168 -113 169 -95 C169 -68 180 -37 203 0 L203 700 L65 700 L65 0 L91 0 C60 -47 45 -89 45 -126 C45 -154 54 -176 72 -191 C89 -206 112 -214 141 -214 C169 -214 196 -209 222 -198 L222 -117 L222 -117 Z " />
<glyph glyph-name="Iogonek074" unicode="&#x12f;" horiz-adv-x="247" d="M67 583 C83 568 102 560 123 560 C145 560 164 568 180 583 C195 599 203 618 203 639 C203 660 195 679 180 695 C164 711 145 719 123 719 C102 719 83 711 67 695 C52 679 44 660 44 639 C44 618 52 599 67 583 L67 583 Z M206 -117 C195 -121 186 -123 179 -122 C162 -122 153 -112 154 -92 C154 -67 165 -37 188 0 L188 500 L59 500 L59 0 L73 0 C44 -47 30 -88 30 -124 C30 -152 39 -174 57 -190 C74 -206 97 -214 126 -214 C155 -214 182 -209 206 -198 L206 -117 L206 -117 Z " />
<glyph glyph-name="Idotaccent" unicode="&#x130;" horiz-adv-x="268" d="M63 799 C77 765 101 749 134 751 C155 751 173 759 188 774 C203 789 211 808 211 829 C213 862 197 885 163 899 C129 914 101 908 79 883 C54 862 48 834 63 799 L63 799 Z M65 0 L203 0 L203 700 L65 700 L65 0 Z " />
<glyph glyph-name="dotlessi" unicode="&#x131;" horiz-adv-x="247" d="M188 0 L188 500 L59 500 L59 0 L188 0 Z " />
<glyph glyph-name="Kcommaaccent" unicode="&#x136;" horiz-adv-x="615" d="M602 700 L443 700 L203 391 L203 700 L65 700 L65 0 L203 0 L203 328 L453 0 L612 0 L343 360 L602 700 Z M344 -263 L374 -63 L252 -63 L242 -263 L344 -263 Z " />
<glyph glyph-name="Kcommaaccent075" unicode="&#x137;" horiz-adv-x="525" d="M514 500 L360 500 L188 280 L188 700 L59 700 L59 0 L188 0 L188 227 L370 0 L520 0 L313 253 L514 500 Z M317 -263 L347 -63 L225 -63 L215 -263 L317 -263 Z " />
<glyph glyph-name="Lacute" unicode="&#x139;" horiz-adv-x="483" d="M147 900 L67 763 L191 763 L302 900 L147 900 Z M203 700 L65 700 L65 0 L470 0 L470 132 L203 132 L203 700 Z " />
<glyph glyph-name="Lacute076" unicode="&#x13a;" horiz-adv-x="247" d="M137 900 L292 900 L181 763 L57 763 L137 900 Z M188 0 L188 730 L59 730 L59 0 L188 0 Z " />
<glyph glyph-name="Lcommaaccent" unicode="&#x13b;" horiz-adv-x="483" d="M203 700 L65 700 L65 0 L470 0 L470 132 L203 132 L203 700 Z M311 -263 L341 -63 L219 -63 L209 -263 L311 -263 Z " />
<glyph glyph-name="Lcommaaccent077" unicode="&#x13c;" horiz-adv-x="247" d="M188 0 L188 730 L59 730 L59 0 L188 0 Z M157 -263 L187 -63 L65 -63 L55 -263 L157 -263 Z " />
<glyph glyph-name="Lcaron" unicode="&#x13d;" horiz-adv-x="483" d="M203 700 L65 700 L65 0 L470 0 L470 132 L203 132 L203 700 Z M277 700 L267 515 L376 515 L406 700 L277 700 Z " />
<glyph glyph-name="Lcaron078" unicode="&#x13e;" horiz-adv-x="354" d="M188 0 L188 730 L59 730 L59 0 L188 0 Z M334 530 L364 730 L242 730 L232 530 L334 530 Z " />
<glyph glyph-name="Lslash" unicode="&#x141;" horiz-adv-x="503" d="M223 293 L355 371 L355 509 L223 431 L223 700 L85 700 L85 349 L25 313 L25 175 L85 211 L85 0 L490 0 L490 132 L223 132 L223 293 Z " />
<glyph glyph-name="Lslash079" unicode="&#x142;" horiz-adv-x="263" d="M196 453 L196 730 L67 730 L67 365 L13 328 L13 205 L67 242 L67 0 L196 0 L196 330 L250 367 L250 490 L196 453 Z " />
<glyph glyph-name="Nacute" unicode="&#x143;" horiz-adv-x="673" d="M329 900 L484 900 L373 763 L249 763 L329 900 Z M470 273 L170 700 L65 700 L65 0 L203 0 L203 428 L503 0 L608 0 L608 700 L470 700 L470 273 Z " />
<glyph glyph-name="Nacute080" unicode="&#x144;" horiz-adv-x="577" d="M298 708 L218 571 L342 571 L453 708 L298 708 Z M472 459 C437 496 392 514 337 514 C268 514 219 491 188 444 L188 500 L59 500 L59 0 L188 0 L188 270 C188 353 225 394 298 394 C329 394 353 385 370 368 C388 349 397 324 397 291 L397 0 L526 0 L526 307 C526 372 508 422 472 459 L472 459 Z " />
<glyph glyph-name="Ncommaaccent" unicode="&#x145;" horiz-adv-x="673" d="M470 273 L170 700 L65 700 L65 0 L203 0 L203 428 L503 0 L608 0 L608 700 L470 700 L470 273 Z M373 -263 L403 -63 L281 -63 L271 -263 L373 -263 Z " />
<glyph glyph-name="Ncommaaccent081" unicode="&#x146;" horiz-adv-x="577" d="M472 459 C437 496 392 514 337 514 C268 514 219 491 188 444 L188 500 L59 500 L59 0 L188 0 L188 270 C188 353 225 394 298 394 C329 394 353 385 370 368 C388 349 397 324 397 291 L397 0 L526 0 L526 307 C526 372 508 422 472 459 L472 459 Z M330 -263 L360 -63 L238 -63 L228 -263 L330 -263 Z " />
<glyph glyph-name="Ncaron" unicode="&#x147;" horiz-adv-x="673" d="M391 755 L497 900 L369 900 L326 835 L282 900 L154 900 L260 755 L391 755 Z M470 273 L170 700 L65 700 L65 0 L203 0 L203 428 L503 0 L608 0 L608 700 L470 700 L470 273 Z " />
<glyph glyph-name="Ncaron082" unicode="&#x148;" horiz-adv-x="577" d="M360 563 L466 708 L338 708 L295 643 L251 708 L123 708 L229 563 L360 563 Z M472 459 C437 496 392 514 337 514 C268 514 219 491 188 444 L188 500 L59 500 L59 0 L188 0 L188 270 C188 353 225 394 298 394 C329 394 353 385 370 368 C388 349 397 324 397 291 L397 0 L526 0 L526 307 C526 372 508 422 472 459 L472 459 Z " />
<glyph glyph-name="Eng" unicode="&#x14a;" horiz-adv-x="673" d="M470 273 L170 700 L65 700 L65 0 L203 0 L203 428 L470 47 L470 8 C470 -23 462 -44 447 -57 C432 -68 408 -74 375 -74 L375 -200 C449 -204 506 -189 547 -154 C588 -119 608 -68 608 0 L608 700 L470 700 L470 273 Z " />
<glyph glyph-name="Eng083" unicode="&#x14b;" horiz-adv-x="577" d="M472 459 C437 496 392 514 337 514 C268 514 219 491 188 444 L188 500 L59 500 L59 0 L188 0 L188 270 C188 353 225 394 298 394 C329 394 353 385 370 368 C388 349 397 324 397 291 L397 -10 C397 -68 370 -95 316 -90 L316 -214 C456 -223 526 -155 526 -10 L526 307 C526 372 508 422 472 459 L472 459 Z " />
<glyph glyph-name="Omacron" unicode="&#x14c;" horiz-adv-x="792" d="M541 772 L541 877 L251 877 L251 772 L541 772 Z M396 -14 C497 -14 583 21 654 91 C725 162 760 248 760 350 C760 452 725 538 654 608 C583 679 497 714 396 714 C295 714 209 679 138 608 C68 538 33 452 33 350 C33 249 68 162 138 91 C209 21 295 -14 396 -14 L396 -14 Z M396 121 C331 121 278 142 235 185 C192 228 170 283 170 350 C170 417 192 472 235 515 C278 558 332 580 396 580 C460 580 514 558 557 515 C600 472 622 417 622 350 C622 283 600 228 557 185 C514 142 461 121 396 121 L396 121 Z " />
<glyph glyph-name="Omacron084" unicode="&#x14d;" horiz-adv-x="594" d="M442 572 L442 677 L152 677 L152 572 L442 572 Z M297 -14 C372 -14 434 11 485 62 C536 113 562 176 562 250 C562 323 536 386 485 437 C434 488 371 514 297 514 C223 514 160 488 109 437 C58 386 33 324 33 250 C33 175 58 113 109 62 C160 11 222 -14 297 -14 L297 -14 Z M297 112 C258 112 226 125 200 151 C175 178 162 211 162 250 C162 289 175 322 200 349 C226 375 258 388 297 388 C336 388 368 375 394 349 C420 323 433 290 433 250 C433 210 420 177 394 151 C368 125 336 112 297 112 L297 112 Z " />
<glyph glyph-name="Ohungarumlaut" unicode="&#x150;" horiz-adv-x="792" d="M299 901 L433 901 L349 763 L221 763 L299 901 Z M482 901 L616 901 L522 763 L394 763 L482 901 Z M760 350 C760 452 725 538 654 608 C583 679 497 714 396 714 C295 714 209 679 138 608 C68 538 33 452 33 350 C33 249 68 162 138 91 C209 21 295 -14 396 -14 C497 -14 583 21 654 91 C725 162 760 248 760 350 L760 350 Z M170 350 C170 417 192 472 235 515 C278 558 332 580 396 580 C460 580 514 558 557 515 C600 472 622 417 622 350 C622 283 600 228 557 185 C514 142 461 121 396 121 C331 121 278 142 235 185 C192 228 170 283 170 350 L170 350 Z " />
<glyph glyph-name="Ohungarumlaut085" unicode="&#x151;" horiz-adv-x="594" d="M200 701 L334 701 L250 563 L122 563 L200 701 Z M383 701 L517 701 L423 563 L295 563 L383 701 Z M562 250 C562 323 536 386 485 437 C434 488 371 514 297 514 C223 514 160 488 109 437 C58 386 33 324 33 250 C33 175 58 113 109 62 C160 11 222 -14 297 -14 C372 -14 434 11 485 62 C536 113 562 176 562 250 L562 250 Z M162 250 C162 289 175 322 200 349 C226 375 258 388 297 388 C336 388 368 375 394 349 C420 323 433 290 433 250 C433 210 420 177 394 151 C368 125 336 112 297 112 C258 112 226 125 200 151 C175 178 162 211 162 250 L162 250 Z " />
<glyph glyph-name="OE" unicode="&#x152;" horiz-adv-x="916" d="M623 289 L856 289 L856 419 L623 419 L623 568 L878 568 L878 700 L486 700 C453 709 419 714 386 714 C285 714 201 679 134 609 C67 538 33 452 33 350 C33 248 67 162 134 91 C201 21 285 -14 386 -14 C419 -14 453 -9 486 0 L883 0 L883 132 L623 132 L623 289 Z M486 136 C459 126 426 121 386 121 C323 121 271 142 230 185 C190 228 170 283 170 350 C170 417 190 472 230 515 C271 558 323 580 386 580 C423 580 456 575 486 565 L486 136 Z " />
<glyph glyph-name="OE086" unicode="&#x153;" horiz-adv-x="981" d="M945 197 C948 218 950 236 950 250 C950 325 927 387 881 438 C835 489 776 514 703 514 C608 514 539 477 496 403 C452 477 384 514 293 514 C219 514 157 489 107 438 C58 387 33 324 33 250 C33 176 58 113 107 62 C157 11 219 -14 293 -14 C383 -14 451 23 497 98 C541 23 611 -14 707 -14 C803 -14 876 22 925 93 L821 153 C796 120 757 103 705 103 C632 103 587 134 568 197 L945 197 Z M566 298 C583 365 627 398 698 398 C765 398 806 365 821 298 L566 298 Z M394 151 C368 125 336 112 297 112 C258 112 225 125 200 151 C175 176 162 209 162 250 C162 291 175 324 200 349 C225 375 258 388 297 388 C336 388 368 375 394 349 C420 323 433 290 433 250 C433 210 420 177 394 151 L394 151 Z " />
<glyph glyph-name="Racute" unicode="&#x154;" horiz-adv-x="614" d="M295 900 L215 763 L339 763 L450 900 L295 900 Z M598 0 L443 264 C484 283 516 310 541 347 C566 384 578 425 578 468 C578 532 555 587 510 632 C465 677 410 700 345 700 L65 700 L65 0 L203 0 L203 243 L308 243 L449 0 L598 0 Z M345 571 C371 571 393 561 412 541 C431 521 440 497 440 468 C440 439 431 415 412 395 C393 374 371 364 345 364 L203 364 L203 571 L345 571 Z " />
<glyph glyph-name="Racute087" unicode="&#x155;" horiz-adv-x="356" d="M193 700 L113 563 L237 563 L348 700 L193 700 Z M188 500 L59 500 L59 0 L188 0 L188 239 C188 287 203 321 234 342 C265 363 301 371 340 366 L340 510 C263 510 212 478 188 414 L188 500 Z " />
<glyph glyph-name="Rcommaaccent" unicode="&#x156;" horiz-adv-x="614" d="M443 264 C484 283 516 310 541 347 C566 384 578 425 578 468 C578 532 555 587 510 632 C465 677 410 700 345 700 L65 700 L65 0 L203 0 L203 243 L308 243 L449 0 L598 0 L443 264 Z M345 571 C371 571 393 561 412 541 C431 521 440 497 440 468 C440 439 431 415 412 395 C393 374 371 364 345 364 L203 364 L203 571 L345 571 Z M360 -263 L390 -63 L268 -63 L258 -263 L360 -263 Z " />
<glyph glyph-name="Rcommaaccent088" unicode="&#x157;" horiz-adv-x="356" d="M188 500 L59 500 L59 0 L188 0 L188 239 C188 287 203 321 234 342 C265 363 301 371 340 366 L340 510 C263 510 212 478 188 414 L188 500 Z M157 -263 L187 -63 L65 -63 L55 -263 L157 -263 Z " />
<glyph glyph-name="Rcaron" unicode="&#x158;" horiz-adv-x="614" d="M357 755 L463 900 L335 900 L292 835 L248 900 L120 900 L226 755 L357 755 Z M598 0 L443 264 C484 283 516 310 541 347 C566 384 578 425 578 468 C578 532 555 587 510 632 C465 677 410 700 345 700 L65 700 L65 0 L203 0 L203 243 L308 243 L449 0 L598 0 Z M345 571 C371 571 393 561 412 541 C431 521 440 497 440 468 C440 439 431 415 412 395 C393 374 371 364 345 364 L203 364 L203 571 L345 571 Z " />
<glyph glyph-name="Rcaron089" unicode="&#x159;" horiz-adv-x="356" d="M255 555 L361 700 L233 700 L190 635 L146 700 L18 700 L124 555 L255 555 Z M188 500 L59 500 L59 0 L188 0 L188 239 C188 287 203 321 234 342 C265 363 301 371 340 366 L340 510 C263 510 212 478 188 414 L188 500 Z " />
<glyph glyph-name="Sacute" unicode="&#x15a;" horiz-adv-x="583" d="M293 908 L448 908 L337 771 L213 771 L293 908 Z M487 43 C534 81 558 132 558 197 C558 235 549 268 532 296 C526 307 516 318 502 331 C491 341 479 350 466 358 C457 365 442 372 422 379 C401 388 386 393 377 396 L329 412 C278 427 243 442 223 456 C205 470 196 488 196 510 C196 531 204 547 221 560 C238 573 260 580 288 580 C349 580 394 550 422 490 L538 557 C487 662 404 714 288 714 C225 714 170 695 125 657 C80 620 58 570 58 506 C58 443 80 395 124 362 C159 337 208 316 269 297 C326 281 365 266 387 252 C409 239 420 220 420 195 C420 146 383 121 308 121 C228 121 174 157 147 228 L29 159 C49 105 82 63 129 32 C177 1 235 -14 304 -14 C379 -14 440 5 487 43 L487 43 Z " />
<glyph glyph-name="Sacute090" unicode="&#x15b;" horiz-adv-x="465" d="M231 708 L151 571 L275 571 L386 708 L231 708 Z M269 303 C208 318 178 337 178 358 C178 385 197 399 236 399 C273 399 300 382 316 348 L426 408 C385 479 322 514 236 514 C182 514 137 500 100 471 C64 443 46 404 46 355 C46 309 65 273 102 246 C117 235 135 226 156 218 C171 213 190 207 213 201 C274 186 304 167 304 146 C304 117 281 103 235 103 C185 103 152 125 137 168 L25 105 C62 26 132 -14 235 -14 C292 -14 339 0 378 27 C417 55 436 95 436 146 C437 194 418 232 380 259 C353 278 316 293 269 303 L269 303 Z " />
<glyph glyph-name="Scedilla" unicode="&#x15e;" horiz-adv-x="583" d="M504 58 C540 95 558 141 558 197 C558 235 549 268 532 296 C526 307 516 318 502 331 C491 341 479 350 466 358 C457 365 442 372 422 379 C401 388 386 393 377 396 L329 412 C278 427 243 442 223 456 C205 470 196 488 196 510 C196 531 204 547 221 560 C238 573 260 580 288 580 C349 580 394 550 422 490 L538 557 C487 662 404 714 288 714 C225 714 170 695 125 657 C80 620 58 570 58 506 C58 443 80 395 124 362 C159 337 208 316 269 297 C326 281 365 266 387 252 C409 239 420 220 420 195 C420 146 383 121 308 121 C228 121 174 157 147 228 L29 159 C64 61 138 4 253 -11 L253 -80 C295 -83 316 -91 316 -105 C316 -123 280 -130 208 -125 L208 -216 C355 -225 428 -194 428 -124 C428 -83 405 -57 358 -46 L358 -10 C420 -1 469 21 504 58 L504 58 Z " />
<glyph glyph-name="Scedilla091" unicode="&#x15f;" horiz-adv-x="465" d="M398 44 C423 71 436 105 436 146 C437 194 418 232 380 259 C353 278 316 293 269 303 C208 318 178 337 178 358 C178 385 197 399 236 399 C273 399 300 382 316 348 L426 408 C385 479 322 514 236 514 C182 514 137 500 100 471 C64 443 46 404 46 355 C46 309 65 273 102 246 C117 235 135 226 156 218 C171 213 190 207 213 201 C274 186 304 167 304 146 C304 117 281 103 235 103 C185 103 152 125 137 168 L25 105 C56 38 112 -1 192 -11 L192 -80 C234 -83 255 -91 255 -105 C255 -123 219 -130 147 -125 L147 -216 C294 -225 367 -194 367 -124 C367 -83 344 -57 297 -46 L297 -8 C340 1 373 18 398 44 L398 44 Z " />
<glyph glyph-name="Scaron" unicode="&#x160;" horiz-adv-x="583" d="M355 763 L461 908 L333 908 L290 843 L246 908 L118 908 L224 763 L355 763 Z M329 412 C278 427 243 442 223 456 C205 470 196 488 196 510 C196 531 204 547 221 560 C238 573 260 580 288 580 C349 580 394 550 422 490 L538 557 C487 662 404 714 288 714 C225 714 170 695 125 657 C80 620 58 570 58 506 C58 443 80 395 124 362 C159 337 208 316 269 297 C326 281 365 266 387 252 C409 239 420 220 420 195 C420 146 383 121 308 121 C228 121 174 157 147 228 L29 159 C49 105 82 63 129 32 C177 1 235 -14 304 -14 C379 -14 440 5 487 43 C534 81 558 132 558 197 C558 235 549 268 532 296 C526 307 516 318 502 331 C491 341 479 350 466 358 C457 365 442 372 422 379 C401 388 386 393 377 396 L329 412 Z " />
<glyph glyph-name="Scaron092" unicode="&#x161;" horiz-adv-x="465" d="M293 563 L399 708 L271 708 L228 643 L184 708 L56 708 L162 563 L293 563 Z M269 303 C208 318 178 337 178 358 C178 385 197 399 236 399 C273 399 300 382 316 348 L426 408 C385 479 322 514 236 514 C182 514 137 500 100 471 C64 443 46 404 46 355 C46 309 65 273 102 246 C117 235 135 226 156 218 C171 213 190 207 213 201 C274 186 304 167 304 146 C304 117 281 103 235 103 C185 103 152 125 137 168 L25 105 C62 26 132 -14 235 -14 C292 -14 339 0 378 27 C417 55 436 95 436 146 C437 194 418 232 380 259 C353 278 316 293 269 303 L269 303 Z " />
<glyph glyph-name="Tcedilla" unicode="&#x162;" horiz-adv-x="540" d="M13 700 L13 568 L201 568 L201 0 L339 0 L339 568 L528 568 L528 700 L13 700 Z M307 -263 L337 -63 L215 -63 L205 -263 L307 -263 Z " />
<glyph glyph-name="Tcedilla093" unicode="&#x163;" horiz-adv-x="385" d="M345 500 L232 500 L232 640 L103 601 L103 500 L16 500 L16 376 L103 376 L103 168 C103 99 121 51 158 25 C195 -2 258 -10 345 0 L345 117 C303 115 275 116 261 121 C242 128 232 143 232 168 L232 376 L345 376 L345 500 Z M264 -263 L294 -63 L172 -63 L162 -263 L264 -263 Z " />
<glyph glyph-name="Tcaron" unicode="&#x164;" horiz-adv-x="540" d="M332 755 L438 900 L310 900 L267 835 L223 900 L95 900 L201 755 L332 755 Z M13 700 L13 568 L201 568 L201 0 L339 0 L339 568 L528 568 L528 700 L13 700 Z " />
<glyph glyph-name="Tcaron094" unicode="&#x165;" horiz-adv-x="406" d="M276 544 L378 544 L408 726 L286 726 L276 544 Z M103 601 L103 500 L16 500 L16 376 L103 376 L103 168 C103 99 121 51 158 25 C195 -2 258 -10 345 0 L345 117 C303 115 275 116 261 121 C242 128 232 143 232 168 L232 376 L345 376 L345 500 L232 500 L232 640 L103 601 Z " />
<glyph glyph-name="Tbar" unicode="&#x166;" horiz-adv-x="540" d="M528 700 L13 700 L13 568 L201 568 L201 405 L83 405 L83 281 L201 281 L201 0 L339 0 L339 281 L458 281 L458 405 L339 405 L339 568 L528 568 L528 700 Z " />
<glyph glyph-name="Tbar095" unicode="&#x167;" horiz-adv-x="385" d="M345 500 L232 500 L232 640 L103 601 L103 500 L16 500 L16 376 L103 376 L103 303 L45 303 L45 199 L103 199 L103 168 C103 99 121 51 158 25 C195 -2 258 -10 345 0 L345 117 C303 115 275 116 261 121 C242 128 232 143 232 168 L232 199 L312 199 L312 303 L232 303 L232 376 L345 376 L345 500 Z " />
<glyph glyph-name="Utilde" unicode="&#x168;" horiz-adv-x="653" d="M134 52 C184 8 248 -14 326 -14 C405 -14 469 8 519 52 C569 96 594 155 594 229 L594 700 L456 700 L456 240 C456 161 413 121 326 121 C239 121 196 161 196 240 L196 700 L59 700 L59 229 C59 155 84 96 134 52 L134 52 Z M281 759 C281 775 284 784 289 787 C294 789 304 785 318 775 C351 754 379 750 404 761 C431 775 445 808 445 860 L372 860 C372 844 369 835 364 832 C359 830 349 834 335 843 C302 864 274 869 249 857 C222 843 208 810 208 759 L281 759 Z " />
<glyph glyph-name="Utilde149" unicode="&#x169;" horiz-adv-x="577" d="M389 230 C389 147 352 106 279 106 C248 106 224 115 207 132 C189 151 180 176 180 209 L180 500 L51 500 L51 193 C51 129 69 78 104 41 C140 4 185 -14 240 -14 C309 -14 358 9 389 56 L389 0 L518 0 L518 500 L389 500 L389 230 Z M239 559 C239 575 242 584 247 587 C252 589 262 585 276 575 C309 554 337 550 362 561 C389 575 403 608 403 660 L330 660 C330 644 327 635 322 632 C317 630 307 634 293 643 C260 664 232 669 207 657 C180 643 166 610 166 559 L239 559 Z " />
<glyph glyph-name="Umacron" unicode="&#x16a;" horiz-adv-x="653" d="M471 764 L471 869 L181 869 L181 764 L471 764 Z M134 52 C184 8 248 -14 326 -14 C405 -14 469 8 519 52 C569 96 594 155 594 229 L594 700 L456 700 L456 240 C456 161 413 121 326 121 C239 121 196 161 196 240 L196 700 L59 700 L59 229 C59 155 84 96 134 52 L134 52 Z " />
<glyph glyph-name="Umacron096" unicode="&#x16b;" horiz-adv-x="577" d="M139 669 L139 564 L429 564 L429 669 L139 669 Z M389 230 C389 147 352 106 279 106 C248 106 224 115 207 132 C189 151 180 176 180 209 L180 500 L51 500 L51 193 C51 129 69 78 104 41 C140 4 185 -14 240 -14 C309 -14 358 9 389 56 L389 0 L518 0 L518 500 L389 500 L389 230 Z " />
<glyph glyph-name="Uring" unicode="&#x16e;" horiz-adv-x="653" d="M236 743 C259 720 289 709 326 709 C363 709 394 720 417 743 C440 765 452 793 452 828 C452 862 440 890 417 913 C394 935 363 946 326 946 C289 946 259 935 236 913 C212 890 200 862 200 828 C200 794 212 766 236 743 L236 743 Z M366 828 C366 803 353 790 326 790 C300 790 287 803 287 828 C287 853 300 865 326 865 C353 865 366 853 366 828 L366 828 Z M134 52 C184 8 248 -14 326 -14 C405 -14 469 8 519 52 C569 96 594 155 594 229 L594 700 L456 700 L456 240 C456 161 413 121 326 121 C239 121 196 161 196 240 L196 700 L59 700 L59 229 C59 155 84 96 134 52 L134 52 Z " />
<glyph glyph-name="Uring097" unicode="&#x16f;" horiz-adv-x="577" d="M194 573 C217 550 247 539 284 539 C321 539 352 550 375 573 C398 595 410 623 410 658 C410 692 398 720 375 743 C352 765 321 776 284 776 C247 776 217 765 194 743 C170 720 158 692 158 658 C158 624 170 596 194 573 L194 573 Z M245 658 C245 683 258 695 284 695 C311 695 324 683 324 658 C324 633 311 620 284 620 C258 620 245 633 245 658 L245 658 Z M389 230 C389 147 352 106 279 106 C248 106 224 115 207 132 C189 151 180 176 180 209 L180 500 L51 500 L51 193 C51 129 69 78 104 41 C140 4 185 -14 240 -14 C309 -14 358 9 389 56 L389 0 L518 0 L518 500 L389 500 L389 230 Z " />
<glyph glyph-name="Uhungarumlaut" unicode="&#x170;" horiz-adv-x="653" d="M229 893 L363 893 L279 755 L151 755 L229 893 Z M412 893 L546 893 L452 755 L324 755 L412 893 Z M519 52 C569 96 594 155 594 229 L594 700 L456 700 L456 240 C456 161 413 121 326 121 C239 121 196 161 196 240 L196 700 L59 700 L59 229 C59 155 84 96 134 52 C184 8 248 -14 326 -14 C405 -14 469 8 519 52 L519 52 Z " />
<glyph glyph-name="Uhungarumlaut098" unicode="&#x171;" horiz-adv-x="577" d="M187 693 L109 555 L237 555 L321 693 L187 693 Z M504 693 L370 693 L282 555 L410 555 L504 693 Z M389 230 C389 147 352 106 279 106 C248 106 224 115 207 132 C189 151 180 176 180 209 L180 500 L51 500 L51 193 C51 129 69 78 104 41 C140 4 185 -14 240 -14 C309 -14 358 9 389 56 L389 0 L518 0 L518 500 L389 500 L389 230 Z " />
<glyph glyph-name="Uogonek" unicode="&#x172;" horiz-adv-x="653" d="M456 240 C456 161 413 121 326 121 C239 121 196 161 196 240 L196 700 L59 700 L59 229 C59 155 84 96 134 52 C184 8 248 -14 326 -14 L342 -14 C306 -55 288 -92 288 -126 C288 -154 297 -176 315 -191 C332 -206 355 -214 384 -214 C413 -214 440 -209 464 -198 L464 -117 C453 -121 444 -123 437 -122 C420 -121 411 -112 412 -95 C413 -62 443 -17 504 40 C564 85 594 148 594 229 L594 700 L456 700 L456 240 Z " />
<glyph glyph-name="Uogonek099" unicode="&#x173;" horiz-adv-x="577" d="M389 500 L389 230 C389 147 352 106 279 106 C248 106 224 115 207 132 C189 151 180 176 180 209 L180 500 L51 500 L51 193 C51 129 69 78 104 41 C140 4 185 -14 240 -14 C309 -14 358 9 389 56 L389 0 L406 0 C363 -49 342 -91 342 -126 C342 -154 351 -176 369 -191 C386 -206 408 -214 437 -214 C467 -214 494 -209 518 -198 L518 -117 C507 -121 497 -123 490 -122 C473 -122 465 -113 465 -95 C465 -69 483 -37 518 0 L518 500 L389 500 Z " />
<glyph glyph-name="Wcircumflex" unicode="&#x174;" horiz-adv-x="999" d="M569 755 L697 755 L591 900 L460 900 L354 755 L482 755 L526 820 L569 755 Z M705 181 L558 700 L440 700 L294 181 L160 700 L15 700 L211 0 L368 0 L499 462 L631 0 L788 0 L984 700 L839 700 L705 181 Z " />
<glyph glyph-name="Wcircumflex100" unicode="&#x175;" horiz-adv-x="770" d="M425 555 L553 555 L447 700 L316 700 L210 555 L338 555 L382 620 L425 555 Z M537 192 L446 500 L324 500 L233 193 L148 500 L11 500 L170 0 L293 0 L385 303 L477 0 L600 0 L759 500 L622 500 L537 192 Z " />
<glyph glyph-name="Ycircumflex" unicode="&#x176;" horiz-adv-x="621" d="M350 755 L478 755 L372 900 L241 900 L135 755 L263 755 L307 820 L350 755 Z M463 700 L311 408 L159 700 L3 700 L242 273 L242 0 L379 0 L379 273 L619 700 L463 700 Z " />
<glyph glyph-name="Ycircumflex101" unicode="&#x177;" horiz-adv-x="525" d="M303 555 L431 555 L325 700 L194 700 L88 555 L216 555 L260 620 L303 555 Z M274 164 L144 500 L3 500 L208 16 C185 -49 142 -81 77 -80 L77 -200 C202 -207 290 -140 341 0 L523 500 L385 500 L274 164 Z " />
<glyph glyph-name="Ydieresis102" unicode="&#x178;" horiz-adv-x="621" d="M215 749 C234 749 249 755 262 768 C275 781 282 797 282 816 C282 835 275 851 262 864 C249 877 234 884 215 884 C196 884 180 877 167 864 C154 851 147 835 147 816 C147 797 154 781 167 768 C180 755 196 749 215 749 L215 749 Z M405 749 C424 749 439 755 452 768 C465 781 472 797 472 816 C472 835 465 851 452 864 C439 877 424 884 405 884 C386 884 370 877 357 864 C344 851 337 835 337 816 C337 797 344 781 357 768 C370 755 386 749 405 749 L405 749 Z M463 700 L311 408 L159 700 L3 700 L242 273 L242 0 L379 0 L379 273 L619 700 L463 700 Z " />
<glyph glyph-name="Zacute" unicode="&#x179;" horiz-adv-x="535" d="M273 900 L193 763 L317 763 L428 900 L273 900 Z M503 591 L503 700 L43 700 L43 568 L327 568 L36 110 L36 0 L509 0 L509 132 L212 132 L503 591 Z " />
<glyph glyph-name="Zacute103" unicode="&#x17a;" horiz-adv-x="474" d="M241 700 L161 563 L285 563 L396 700 L241 700 Z M428 414 L428 500 L53 500 L53 379 L254 379 L43 86 L43 0 L438 0 L438 121 L216 121 L428 414 Z " />
<glyph glyph-name="Zdotaccent" unicode="&#x17b;" horiz-adv-x="535" d="M218 774 C233 759 252 751 273 751 C294 751 312 759 327 774 C342 789 350 808 350 829 C350 850 342 868 327 883 C312 898 294 906 273 906 C252 906 233 899 218 884 C203 869 195 850 195 829 C195 808 203 789 218 774 L218 774 Z M503 591 L503 700 L43 700 L43 568 L327 568 L36 110 L36 0 L509 0 L509 132 L212 132 L503 591 Z " />
<glyph glyph-name="Zdotaccent104" unicode="&#x17c;" horiz-adv-x="474" d="M186 574 C201 559 220 551 241 551 C262 551 280 559 295 574 C310 589 318 608 318 629 C318 650 310 668 295 683 C280 698 262 706 241 706 C220 706 201 699 186 684 C171 669 163 650 163 629 C163 608 171 589 186 574 L186 574 Z M428 414 L428 500 L53 500 L53 379 L254 379 L43 86 L43 0 L438 0 L438 121 L216 121 L428 414 Z " />
<glyph glyph-name="Zcaron" unicode="&#x17d;" horiz-adv-x="535" d="M335 755 L441 900 L313 900 L270 835 L226 900 L98 900 L204 755 L335 755 Z M503 591 L503 700 L43 700 L43 568 L327 568 L36 110 L36 0 L509 0 L509 132 L212 132 L503 591 Z " />
<glyph glyph-name="Zcaron105" unicode="&#x17e;" horiz-adv-x="474" d="M303 555 L409 700 L281 700 L238 635 L194 700 L66 700 L172 555 L303 555 Z M428 414 L428 500 L53 500 L53 379 L254 379 L43 86 L43 0 L438 0 L438 121 L216 121 L428 414 Z " />
<glyph glyph-name="florin" unicode="&#x192;" horiz-adv-x="441" d="M441 705 C380 722 328 717 287 690 C244 662 216 614 204 545 L182 414 L76 414 L76 290 L160 290 L108 -17 C103 -47 89 -67 67 -76 C44 -86 22 -85 0 -73 L0 -201 C62 -218 114 -213 155 -186 C198 -158 226 -110 238 -41 L294 290 L406 290 L406 414 L315 414 L333 520 C338 549 352 569 375 579 C398 589 420 588 441 576 L441 705 Z " />
<glyph glyph-name="Ohorn" unicode="&#x1a0;" horiz-adv-x="792" d="M396 121 C331 121 278 142 235 185 C192 228 170 283 170 350 C170 417 192 472 235 515 C278 558 332 580 396 580 C460 580 514 558 557 515 C600 472 622 417 622 350 C622 283 600 228 557 185 C514 142 461 121 396 121 L396 121 Z M602 652 C605 654 607 656 610 659 C639 686 653 719 653 760 L566 760 C566 720 545 700 504 699 C470 709 434 714 396 714 C295 714 209 679 138 608 C68 538 33 452 33 350 C33 249 68 162 138 91 C209 21 295 -14 396 -14 C497 -14 583 21 654 91 C725 162 760 248 760 350 C760 452 725 538 654 608 C637 625 620 639 602 652 L602 652 Z " />
<glyph glyph-name="Ohorn135" unicode="&#x1a1;" horiz-adv-x="594" d="M297 112 C258 112 226 125 200 151 C175 178 162 211 162 250 C162 289 175 322 200 349 C226 375 258 388 297 388 C336 388 368 375 394 349 C420 323 433 290 433 250 C433 210 420 177 394 151 C368 125 336 112 297 112 L297 112 Z M476 445 C482 450 488 454 493 459 C522 486 536 519 536 560 L449 560 C449 521 429 500 388 499 C360 509 330 514 297 514 C223 514 160 488 109 437 C58 386 33 324 33 250 C33 175 58 113 109 62 C160 11 222 -14 297 -14 C372 -14 434 11 485 62 C536 113 562 176 562 250 C562 323 536 386 485 437 C482 440 479 442 476 445 L476 445 Z " />
<glyph glyph-name="Uhorn" unicode="&#x1af;" horiz-adv-x="653" d="M594 622 C623 627 647 640 668 659 C697 686 711 719 711 760 L624 760 C624 725 608 705 575 700 L456 700 L456 240 C456 161 413 121 326 121 C239 121 196 161 196 240 L196 700 L59 700 L59 229 C59 155 84 96 134 52 C184 8 248 -14 326 -14 C405 -14 469 8 519 52 C569 96 594 155 594 229 L594 622 L594 622 Z " />
<glyph glyph-name="Uhorn148" unicode="&#x1b0;" horiz-adv-x="577" d="M518 428 C537 435 554 445 569 459 C598 486 612 519 612 560 L525 560 C525 525 509 505 476 500 L389 500 L389 230 C389 147 352 106 279 106 C248 106 224 115 207 132 C189 151 180 176 180 209 L180 500 L51 500 L51 193 C51 129 69 78 104 41 C140 4 185 -14 240 -14 C309 -14 358 9 389 56 L389 0 L518 0 L518 428 L518 428 Z " />
<glyph glyph-name="Scommaaccent" unicode="&#x218;" horiz-adv-x="583" d="M129 32 C177 1 235 -14 304 -14 C379 -14 440 5 487 43 C534 81 558 132 558 197 C558 235 549 268 532 296 C526 307 516 318 502 331 C491 341 479 350 466 358 C457 365 442 372 422 379 C401 388 386 393 377 396 L329 412 C278 427 243 442 223 456 C205 470 196 488 196 510 C196 531 204 547 221 560 C238 573 260 580 288 580 C349 580 394 550 422 490 L538 557 C487 662 404 714 288 714 C225 714 170 695 125 657 C80 620 58 570 58 506 C58 443 80 395 124 362 C159 337 208 316 269 297 C326 281 365 266 387 252 C409 239 420 220 420 195 C420 146 383 121 308 121 C228 121 174 157 147 228 L29 159 C49 105 82 63 129 32 L129 32 Z M341 -263 L371 -63 L249 -63 L239 -263 L341 -263 Z " />
<glyph glyph-name="Scommaaccent106" unicode="&#x219;" horiz-adv-x="465" d="M269 303 C208 318 178 337 178 358 C178 385 197 399 236 399 C273 399 300 382 316 348 L426 408 C385 479 322 514 236 514 C182 514 137 500 100 471 C64 443 46 404 46 355 C46 309 65 273 102 246 C117 235 135 226 156 218 C171 213 190 207 213 201 C274 186 304 167 304 146 C304 117 281 103 235 103 C185 103 152 125 137 168 L25 105 C62 26 132 -14 235 -14 C292 -14 339 0 378 27 C417 55 436 95 436 146 C437 194 418 232 380 259 C353 278 316 293 269 303 L269 303 Z M280 -263 L310 -63 L188 -63 L178 -263 L280 -263 Z " />
<glyph glyph-name="Tcommaaccent" unicode="&#x21a;" horiz-adv-x="540" d="M13 700 L13 568 L201 568 L201 0 L339 0 L339 568 L528 568 L528 700 L13 700 Z M307 -263 L337 -63 L215 -63 L205 -263 L307 -263 Z " />
<glyph glyph-name="Tcommaaccent107" unicode="&#x21b;" horiz-adv-x="385" d="M345 500 L232 500 L232 640 L103 601 L103 500 L16 500 L16 376 L103 376 L103 168 C103 99 121 51 158 25 C195 -2 258 -10 345 0 L345 117 C303 115 275 116 261 121 C242 128 232 143 232 168 L232 376 L345 376 L345 500 Z M264 -263 L294 -63 L172 -63 L162 -263 L264 -263 Z " />
<glyph glyph-name="circumflex" unicode="&#x2c6;" horiz-adv-x="383" d="M237 657 L146 657 L71 555 L161 555 L192 601 L222 555 L312 555 L237 657 Z " />
<glyph glyph-name="caron" unicode="&#x2c7;" horiz-adv-x="383" d="M192 635 L148 700 L20 700 L126 555 L257 555 L363 700 L235 700 L192 635 Z " />
<glyph glyph-name="breve" unicode="&#x2d8;" horiz-adv-x="373" d="M101 574 C121 556 149 547 186 547 C223 547 252 556 273 574 C293 591 303 616 303 649 L223 649 C223 624 211 612 186 612 C162 612 150 624 150 649 L70 649 C70 616 80 591 101 574 L101 574 Z " />
<glyph glyph-name="dotaccent" unicode="&#x2d9;" horiz-adv-x="203" d="M27 599 C41 565 65 549 98 551 C119 551 137 559 152 574 C167 589 175 608 175 629 C177 662 161 685 127 699 C93 714 65 708 43 683 C18 662 12 634 27 599 L27 599 Z " />
<glyph glyph-name="ring" unicode="&#x2da;" horiz-adv-x="293" d="M56 573 C79 550 109 539 146 539 C183 539 214 550 237 573 C260 595 272 623 272 658 C272 692 260 720 237 743 C214 765 183 776 146 776 C109 776 79 765 56 743 C32 720 20 692 20 658 C20 624 32 596 56 573 L56 573 Z M186 658 C186 633 173 620 146 620 C120 620 107 633 107 658 C107 683 120 695 146 695 C173 695 186 683 186 658 L186 658 Z " />
<glyph glyph-name="ogonek" unicode="&#x2db;" horiz-adv-x="216" d="M47 -191 C64 -206 87 -214 116 -214 C145 -214 172 -209 196 -198 L196 -117 C185 -121 176 -123 169 -122 C152 -122 143 -113 144 -95 C144 -68 161 -37 196 0 L86 0 C42 -46 20 -88 20 -126 C20 -154 29 -176 47 -191 L47 -191 Z " />
<glyph glyph-name="tilde" unicode="&#x2dc;" horiz-adv-x="379" d="M145 559 C145 575 148 584 153 587 C158 589 168 585 182 575 C215 554 243 550 268 561 C295 575 309 608 309 660 L236 660 C236 644 233 635 228 632 C223 630 213 634 199 643 C166 664 138 669 113 657 C86 643 72 610 72 559 L145 559 Z " />
<glyph glyph-name="hungarumlaut" unicode="&#x2dd;" horiz-adv-x="435" d="M20 555 L148 555 L232 693 L98 693 L20 555 Z M193 555 L321 555 L415 693 L281 693 L193 555 Z " />
<glyph glyph-name="gravecomb" unicode="&#x300;" d="M-20 563 L-100 700 L-255 700 L-144 563 L-20 563 Z " />
<glyph glyph-name="acutecomb" unicode="&#x301;" d="M-255 563 L-131 563 L-20 700 L-175 700 L-255 563 Z " />
<glyph glyph-name="uni0302" unicode="&#x302;" d="M-126 700 L-257 700 L-363 555 L-235 555 L-191 620 L-148 555 L-20 555 L-126 700 Z " />
<glyph glyph-name="tildecomb" unicode="&#x303;" d="M-247 560 C-247 583 -243 597 -235 600 C-228 603 -214 598 -194 584 C-147 554 -106 547 -71 564 C-32 583 -12 630 -12 705 L-117 705 C-117 682 -121 668 -128 665 C-135 662 -149 667 -169 681 C-216 712 -257 718 -292 700 C-331 681 -351 634 -351 560 L-247 560 Z " />
<glyph glyph-name="uni0304" unicode="&#x304;" d="M-20 564 L-20 669 L-310 669 L-310 564 L-20 564 Z " />
<glyph glyph-name="uni0306" unicode="&#x306;" d="M-309 585 C-280 560 -240 547 -187 547 C-134 547 -92 560 -63 585 C-34 610 -20 646 -20 692 L-135 692 C-135 657 -152 640 -187 640 C-221 640 -238 657 -238 692 L-353 692 C-353 646 -338 610 -309 585 L-309 585 Z " />
<glyph glyph-name="uni0307" unicode="&#x307;" d="M-152 574 C-137 559 -118 551 -97 551 C-76 551 -58 559 -43 574 C-28 589 -20 608 -20 629 C-20 650 -28 668 -43 683 C-58 698 -76 706 -97 706 C-118 706 -137 699 -152 684 C-167 669 -175 650 -175 629 C-175 608 -167 589 -152 574 L-152 574 Z " />
<glyph glyph-name="uni0308" unicode="&#x308;" d="M-277 549 C-258 549 -242 555 -229 568 C-216 581 -210 597 -210 616 C-210 635 -216 651 -229 664 C-242 677 -258 684 -277 684 C-296 684 -312 677 -325 664 C-338 651 -345 635 -345 616 C-345 597 -338 581 -325 568 C-312 555 -296 549 -277 549 L-277 549 Z M-87 549 C-68 549 -52 555 -39 568 C-26 581 -20 597 -20 616 C-20 635 -26 651 -39 664 C-52 677 -68 684 -87 684 C-106 684 -122 677 -135 664 C-148 651 -155 635 -155 616 C-155 597 -148 581 -135 568 C-122 555 -106 549 -87 549 L-87 549 Z " />
<glyph glyph-name="hookabovecomb" unicode="&#x309;" horiz-adv-x="546" d="M266 547 C266 559 268 567 271 571 C273 574 275 576 277 579 C295 597 304 615 304 633 C304 654 296 670 281 682 C267 693 250 698 231 698 C214 698 199 694 186 686 C172 677 161 662 152 640 L201 612 C208 633 218 643 231 643 C237 643 242 642 245 640 C247 638 248 635 248 631 C248 628 246 624 243 619 C242 617 236 611 226 601 C215 591 210 573 210 547 L266 547 Z " />
<glyph glyph-name="uni030A" unicode="&#x30a;" d="M-240 573 C-217 550 -187 539 -150 539 C-113 539 -82 550 -59 573 C-36 595 -24 623 -24 658 C-24 692 -36 720 -59 743 C-82 765 -113 776 -150 776 C-187 776 -217 765 -240 743 C-264 720 -276 692 -276 658 C-276 624 -264 596 -240 573 L-240 573 Z M-110 658 C-110 633 -123 620 -150 620 C-176 620 -189 633 -189 658 C-189 683 -176 695 -150 695 C-123 695 -110 683 -110 658 L-110 658 Z " />
<glyph glyph-name="uni030B" unicode="&#x30b;" d="M-415 555 L-287 555 L-203 693 L-337 693 L-415 555 Z M-242 555 L-114 555 L-20 693 L-154 693 L-242 555 Z " />
<glyph glyph-name="uni030C" unicode="&#x30c;" d="M-191 635 L-235 700 L-363 700 L-257 555 L-126 555 L-20 700 L-148 700 L-191 635 Z " />
<glyph glyph-name="uni0312" unicode="&#x312;" d="M-122 975 L-152 775 L-30 775 L-20 975 L-122 975 Z " />
<glyph glyph-name="uni031B" unicode="&#x31b;" horiz-adv-x="339" d="M234 428 C234 387 212 367 169 367 L169 287 C213 287 249 300 278 327 C307 354 321 387 321 428 L234 428 Z " />
<glyph glyph-name="dotbelowcomb" unicode="&#x323;" d="M-188 -190 C-171 -190 -157 -184 -146 -173 C-134 -161 -128 -147 -128 -131 C-128 -114 -134 -100 -146 -89 C-157 -77 -171 -71 -188 -71 C-204 -71 -218 -77 -230 -89 C-241 -100 -247 -114 -247 -131 C-247 -147 -241 -161 -230 -173 C-218 -184 -204 -190 -188 -190 L-188 -190 Z " />
<glyph glyph-name="uni0326" unicode="&#x326;" d="M-50 -263 L-20 -63 L-142 -63 L-152 -263 L-50 -263 Z " />
<glyph glyph-name="uni0327" unicode="&#x327;" d="M-90 0 L-195 0 L-195 -80 C-153 -83 -132 -91 -132 -105 C-132 -123 -168 -130 -240 -125 L-240 -216 C-93 -225 -20 -194 -20 -124 C-20 -83 -43 -57 -90 -46 L-90 0 Z " />
<glyph glyph-name="uni0328" unicode="&#x328;" d="M-177 -191 C-160 -206 -137 -214 -108 -214 C-79 -214 -52 -209 -28 -198 L-28 -117 C-39 -121 -48 -123 -55 -122 C-72 -122 -81 -113 -80 -95 C-80 -68 -63 -37 -28 0 L-138 0 C-182 -46 -204 -88 -204 -126 C-204 -154 -195 -176 -177 -191 L-177 -191 Z " />
<glyph glyph-name="Delta" unicode="&#x394;" horiz-adv-x="653" d="M241 700 L3 0 L650 0 L412 700 L241 700 Z M326 547 L459 129 L193 129 L326 547 Z " />
<glyph glyph-name="Omega" unicode="&#x3a9;" horiz-adv-x="777" d="M645 132 C716 193 752 271 752 365 C752 464 717 546 646 613 C575 680 489 714 389 714 C288 714 202 680 131 613 C60 546 25 464 25 365 C25 271 61 193 132 132 L39 132 L39 0 L315 0 L315 132 C269 147 232 174 205 213 C177 252 163 298 163 350 C163 417 185 472 228 515 C271 558 325 580 389 580 C453 580 507 558 550 515 C593 472 615 417 615 350 C615 298 601 252 573 213 C545 174 508 147 462 132 L462 0 L739 0 L739 132 L645 132 L645 132 Z " />
<glyph glyph-name="pi" unicode="&#x3c0;" horiz-adv-x="665" d="M23 500 L23 379 L106 379 L106 0 L235 0 L235 379 L434 379 L434 0 L563 0 L563 379 L643 379 L643 500 L23 500 Z " />
<glyph glyph-name="uni0401" unicode="&#x401;" horiz-adv-x="530" d="M184 749 C203 749 218 755 231 768 C244 781 251 797 251 816 C251 835 244 851 231 864 C218 877 203 884 184 884 C165 884 149 877 136 864 C123 851 116 835 116 816 C116 797 123 781 136 768 C149 755 165 749 184 749 L184 749 Z M374 749 C393 749 408 755 421 768 C434 781 441 797 441 816 C441 835 434 851 421 864 C408 877 393 884 374 884 C355 884 339 877 326 864 C313 851 306 835 306 816 C306 797 313 781 326 768 C339 755 355 749 374 749 L374 749 Z M203 289 L468 289 L468 419 L203 419 L203 568 L493 568 L493 700 L65 700 L65 0 L498 0 L498 132 L203 132 L203 289 Z " />
<glyph glyph-name="uni0402" unicode="&#x402;" horiz-adv-x="703" d="M602 415 C569 449 523 466 465 466 C419 466 373 459 326 444 L326 568 L525 568 L525 700 L13 700 L13 568 L189 568 L189 0 L326 0 L326 322 C368 335 404 342 435 342 C489 342 516 314 516 257 L516 194 C516 165 510 144 498 132 C486 121 465 116 436 118 L436 -10 C581 -19 653 49 653 194 L653 271 C653 333 636 381 602 415 L602 415 Z " />
<glyph glyph-name="uni0403" unicode="&#x403;" horiz-adv-x="475" d="M269 899 L189 762 L313 762 L424 899 L269 899 Z M65 700 L65 0 L203 0 L203 568 L463 568 L463 700 L65 700 Z " />
<glyph glyph-name="uni0404" unicode="&#x404;" horiz-adv-x="724" d="M504 148 C471 130 435 121 396 121 C340 121 292 136 253 166 C214 195 189 235 177 286 L489 286 L489 415 L177 415 C189 466 214 506 253 535 C292 565 340 580 396 580 C479 580 540 547 577 480 L696 549 C666 600 624 640 570 669 C517 699 459 714 396 714 C291 714 204 679 135 609 C66 540 32 454 32 350 C32 247 66 160 135 91 C204 21 291 -14 396 -14 C459 -14 518 1 571 31 C624 60 666 100 696 151 L577 220 C560 189 536 165 504 148 L504 148 Z " />
<glyph glyph-name="uni0405" unicode="&#x405;" horiz-adv-x="583" d="M129 32 C177 1 235 -14 304 -14 C379 -14 440 5 487 43 C534 81 558 132 558 197 C558 235 549 268 532 296 C526 307 516 318 502 331 C491 341 479 350 466 358 C457 365 442 372 422 379 C401 388 386 393 377 396 L329 412 C278 427 243 442 223 456 C205 470 196 488 196 510 C196 531 204 547 221 560 C238 573 260 580 288 580 C349 580 394 550 422 490 L538 557 C487 662 404 714 288 714 C225 714 170 695 125 657 C80 620 58 570 58 506 C58 443 80 395 124 362 C159 337 208 316 269 297 C326 281 365 266 387 252 C409 239 420 220 420 195 C420 146 383 121 308 121 C228 121 174 157 147 228 L29 159 C49 105 82 63 129 32 L129 32 Z " />
<glyph glyph-name="uni0406" unicode="&#x406;" horiz-adv-x="268" d="M65 0 L203 0 L203 700 L65 700 L65 0 Z " />
<glyph glyph-name="uni0407" unicode="&#x407;" horiz-adv-x="268" d="M39 749 C58 749 73 755 86 768 C99 781 106 797 106 816 C106 835 99 851 86 864 C73 877 58 884 39 884 C20 884 4 877 -9 864 C-22 851 -29 835 -29 816 C-29 797 -22 781 -9 768 C4 755 20 749 39 749 L39 749 Z M229 749 C248 749 263 755 276 768 C289 781 296 797 296 816 C296 835 289 851 276 864 C263 877 248 884 229 884 C210 884 194 877 181 864 C168 851 161 835 161 816 C161 797 168 781 181 768 C194 755 210 749 229 749 L229 749 Z M65 0 L203 0 L203 700 L65 700 L65 0 Z " />
<glyph glyph-name="uni0408" unicode="&#x408;" horiz-adv-x="569" d="M33 119 C77 30 154 -14 264 -14 C337 -14 396 6 441 47 C487 88 510 145 510 218 L510 700 L373 700 L373 218 C373 153 337 121 264 121 C211 121 174 143 152 187 L33 119 L33 119 Z " />
<glyph glyph-name="uni0409" unicode="&#x409;" horiz-adv-x="961" d="M596 438 L596 700 L135 700 L135 286 C135 222 125 178 104 153 C85 130 54 121 11 126 L11 -2 C82 -9 141 7 189 44 C244 87 272 169 272 290 L272 568 L459 568 L459 0 L700 0 C767 0 823 20 868 61 C913 102 936 155 936 219 C936 282 913 335 868 376 C823 417 767 438 700 438 L596 438 Z M596 129 L596 309 L700 309 C729 309 753 301 771 285 C790 268 799 246 799 219 C799 192 790 170 771 153 C753 137 729 129 700 129 L596 129 Z " />
<glyph glyph-name="uni040A" unicode="&#x40a;" horiz-adv-x="958" d="M593 438 L593 700 L455 700 L455 438 L203 438 L203 700 L65 700 L65 0 L203 0 L203 309 L455 309 L455 0 L696 0 C764 0 820 20 865 61 C910 102 933 155 933 219 C933 282 910 335 865 376 C820 417 763 438 696 438 L593 438 Z M593 129 L593 309 L696 309 C725 309 749 301 767 285 C786 268 795 246 795 219 C795 192 786 170 767 153 C749 137 725 129 696 129 L593 129 Z " />
<glyph glyph-name="uni040B" unicode="&#x40b;" horiz-adv-x="708" d="M602 415 C569 449 523 466 465 466 C419 466 373 459 326 444 L326 568 L525 568 L525 700 L13 700 L13 568 L189 568 L189 0 L326 0 L326 322 C368 335 404 342 435 342 C489 342 516 314 516 257 L516 0 L653 0 L653 271 C653 333 636 381 602 415 L602 415 Z " />
<glyph glyph-name="uni040C" unicode="&#x40c;" horiz-adv-x="615" d="M309 899 L229 762 L353 762 L464 899 L309 899 Z M343 360 L602 700 L443 700 L203 391 L203 700 L65 700 L65 0 L203 0 L203 328 L453 0 L612 0 L343 360 Z " />
<glyph glyph-name="uni040E" unicode="&#x40e;" horiz-adv-x="600" d="M157 875 L157 763 L447 763 L447 875 L157 875 Z M314 362 L161 700 L23 700 L252 211 C221 150 172 123 104 129 L104 0 C232 -7 324 57 380 193 L590 700 L452 700 L314 362 Z " />
<glyph glyph-name="uni040F" unicode="&#x40f;" horiz-adv-x="653" d="M450 132 L203 132 L203 700 L65 700 L65 0 L258 0 L258 -134 L395 -134 L395 0 L588 0 L588 700 L450 700 L450 132 Z " />
<glyph glyph-name="uni0410" unicode="&#x410;" horiz-adv-x="668" d="M665 0 L419 700 L248 700 L3 0 L152 0 L194 126 L473 126 L515 0 L665 0 Z M334 541 L430 255 L238 255 L334 541 Z " />
<glyph glyph-name="uni0411" unicode="&#x411;" horiz-adv-x="585" d="M203 435 L203 568 L505 568 L505 700 L65 700 L65 0 L333 0 C402 0 457 20 500 60 C543 101 565 154 565 218 C565 282 543 334 500 374 C457 415 402 435 333 435 L203 435 Z M203 129 L203 306 L333 306 C361 306 384 298 401 283 C419 267 428 245 428 218 C428 191 419 169 401 153 C384 137 361 129 333 129 L203 129 Z " />
<glyph glyph-name="uni0412" unicode="&#x412;" horiz-adv-x="605" d="M580 203 C580 274 549 328 488 363 C532 398 554 445 554 503 C554 560 533 607 492 644 C451 681 400 700 341 700 L65 700 L65 0 L362 0 C423 0 475 19 517 57 C559 95 580 144 580 203 L580 203 Z M341 571 C363 571 381 564 395 549 C409 534 416 516 416 494 C416 472 409 454 395 439 C380 424 362 417 341 417 L203 417 L203 571 L341 571 Z M203 129 L203 294 L362 294 C385 294 405 286 420 271 C435 255 443 235 443 212 C443 188 435 168 420 153 C405 137 385 129 362 129 L203 129 Z " />
<glyph glyph-name="uni0413" unicode="&#x413;" horiz-adv-x="475" d="M65 700 L65 0 L203 0 L203 568 L463 568 L463 700 L65 700 Z " />
<glyph glyph-name="uni0414" unicode="&#x414;" horiz-adv-x="705" d="M603 700 L141 700 L141 369 C141 264 122 185 83 132 L15 132 L15 -134 L153 -134 L153 0 L540 0 L540 -134 L678 -134 L678 132 L603 132 L603 700 Z M231 132 C263 187 279 266 279 367 L279 571 L465 571 L465 132 L231 132 Z " />
<glyph glyph-name="uni0415" unicode="&#x415;" horiz-adv-x="530" d="M203 289 L468 289 L468 419 L203 419 L203 568 L493 568 L493 700 L65 700 L65 0 L498 0 L498 132 L203 132 L203 289 Z " />
<glyph glyph-name="uni0416" unicode="&#x416;" horiz-adv-x="904" d="M648 357 L882 700 L728 700 L521 388 L521 700 L383 700 L383 388 L176 700 L23 700 L256 357 L13 0 L166 0 L383 319 L383 0 L521 0 L521 319 L738 0 L892 0 L648 357 Z " />
<glyph glyph-name="uni0417" unicode="&#x417;" horiz-adv-x="561" d="M536 196 C536 272 503 327 436 362 C486 398 511 447 511 510 C511 572 489 621 445 658 C400 695 344 714 275 714 C160 714 79 664 32 565 L149 497 C173 556 215 585 275 585 C341 585 374 557 374 501 C374 475 364 455 345 440 C326 425 299 417 264 417 L198 417 L198 294 L285 294 C361 294 399 264 399 205 C399 146 360 116 282 116 C209 116 161 150 140 218 L21 151 C65 41 152 -14 282 -14 C357 -14 418 5 465 44 C512 83 536 134 536 196 L536 196 Z " />
<glyph glyph-name="uni0418" unicode="&#x418;" horiz-adv-x="673" d="M608 0 L608 700 L503 700 L203 272 L203 700 L65 700 L65 0 L170 0 L470 427 L470 0 L608 0 Z " />
<glyph glyph-name="uni0419" unicode="&#x419;" horiz-adv-x="673" d="M481 764 L481 876 L191 876 L191 764 L481 764 Z M608 0 L608 700 L503 700 L203 272 L203 700 L65 700 L65 0 L170 0 L470 427 L470 0 L608 0 Z " />
<glyph glyph-name="uni041A" unicode="&#x41a;" horiz-adv-x="615" d="M343 360 L602 700 L443 700 L203 391 L203 700 L65 700 L65 0 L203 0 L203 328 L453 0 L612 0 L343 360 Z " />
<glyph glyph-name="uni041B" unicode="&#x41b;" horiz-adv-x="676" d="M11 0 C82 -7 142 8 189 45 C244 88 272 169 272 290 L272 568 L474 568 L474 0 L611 0 L611 700 L135 700 L135 286 C135 222 125 178 104 153 C85 130 54 122 11 128 L11 0 Z " />
<glyph glyph-name="uni041C" unicode="&#x41c;" horiz-adv-x="815" d="M608 700 L408 369 L207 700 L65 700 L65 0 L203 0 L203 453 L400 129 L416 129 L613 454 L613 0 L750 0 L750 700 L608 700 Z " />
<glyph glyph-name="uni041D" unicode="&#x41d;" horiz-adv-x="665" d="M463 422 L203 422 L203 700 L65 700 L65 0 L203 0 L203 290 L463 290 L463 0 L600 0 L600 700 L463 700 L463 422 Z " />
<glyph glyph-name="uni041E" unicode="&#x41e;" horiz-adv-x="792" d="M396 -14 C497 -14 583 21 654 91 C725 162 760 248 760 350 C760 452 725 538 654 608 C583 679 497 714 396 714 C295 714 209 679 138 608 C68 538 33 452 33 350 C33 249 68 162 138 91 C209 21 295 -14 396 -14 L396 -14 Z M396 121 C331 121 278 142 235 185 C192 228 170 283 170 350 C170 417 192 472 235 515 C278 558 332 580 396 580 C460 580 514 558 557 515 C600 472 622 417 622 350 C622 283 600 228 557 185 C514 142 461 121 396 121 L396 121 Z " />
<glyph glyph-name="uni041F" unicode="&#x41f;" horiz-adv-x="653" d="M65 700 L65 0 L203 0 L203 568 L450 568 L450 0 L588 0 L588 700 L65 700 Z " />
<glyph glyph-name="uni0420" unicode="&#x420;" horiz-adv-x="590" d="M65 700 L65 0 L203 0 L203 230 L326 230 C393 230 449 253 496 298 C542 343 565 399 565 465 C565 532 542 587 496 632 C449 677 393 700 326 700 L65 700 Z M203 359 L203 571 L326 571 C355 571 380 561 399 541 C418 521 428 496 428 465 C428 435 418 410 399 390 C380 369 355 359 326 359 L203 359 Z " />
<glyph glyph-name="uni0421" unicode="&#x421;" horiz-adv-x="726" d="M136 91 C205 21 292 -14 397 -14 C460 -14 519 1 573 31 C626 60 668 100 698 151 L579 220 C562 189 538 165 506 148 C473 130 437 121 397 121 C329 121 274 142 232 185 C191 228 170 283 170 350 C170 417 191 473 232 516 C274 559 329 580 397 580 C481 580 542 547 579 480 L698 549 C668 600 626 640 573 669 C519 699 460 714 397 714 C292 714 205 679 136 609 C67 540 33 454 33 350 C33 247 67 160 136 91 L136 91 Z " />
<glyph glyph-name="uni0422" unicode="&#x422;" horiz-adv-x="540" d="M13 700 L13 568 L201 568 L201 0 L339 0 L339 568 L528 568 L528 700 L13 700 Z " />
<glyph glyph-name="uni0423" unicode="&#x423;" horiz-adv-x="600" d="M314 362 L161 700 L23 700 L252 211 C221 150 172 123 104 129 L104 0 C232 -7 324 57 380 193 L590 700 L452 700 L314 362 Z " />
<glyph glyph-name="uni0424" unicode="&#x424;" horiz-adv-x="819" d="M477 66 C574 75 651 104 710 155 C768 205 797 270 797 350 C797 430 768 495 710 545 C651 596 574 625 477 634 L477 715 L342 715 L342 634 C243 624 166 594 109 544 C52 495 23 430 23 350 C23 270 52 205 109 155 C166 106 244 76 342 66 L342 -15 L477 -15 L477 66 Z M477 509 C598 495 659 442 659 350 C659 259 598 206 477 192 L477 509 Z M342 193 C221 206 160 259 160 350 C160 442 221 495 342 508 L342 193 Z " />
<glyph glyph-name="uni0425" unicode="&#x425;" horiz-adv-x="610" d="M383 360 L586 700 L430 700 L305 490 L180 700 L24 700 L227 359 L13 0 L169 0 L305 228 L441 0 L598 0 L383 360 Z " />
<glyph glyph-name="uni0426" unicode="&#x426;" horiz-adv-x="690" d="M588 700 L450 700 L450 132 L203 132 L203 700 L65 700 L65 0 L525 0 L525 -134 L663 -134 L663 132 L588 132 L588 700 Z " />
<glyph glyph-name="uni0427" unicode="&#x427;" horiz-adv-x="633" d="M430 390 C388 371 343 361 296 361 C263 361 237 370 218 389 C198 408 188 435 188 468 L188 700 L50 700 L50 450 C50 382 73 328 118 288 C165 249 223 229 293 229 C342 229 387 238 430 256 L430 0 L568 0 L568 700 L430 700 L430 390 Z " />
<glyph glyph-name="uni0428" unicode="&#x428;" horiz-adv-x="943" d="M740 132 L540 132 L540 700 L403 700 L403 132 L203 132 L203 700 L65 700 L65 0 L878 0 L878 700 L740 700 L740 132 Z " />
<glyph glyph-name="uni0429" unicode="&#x429;" horiz-adv-x="980" d="M878 700 L740 700 L740 132 L540 132 L540 700 L403 700 L403 132 L203 132 L203 700 L65 700 L65 0 L815 0 L815 -134 L953 -134 L953 132 L878 132 L878 700 Z " />
<glyph glyph-name="uni042A" unicode="&#x42a;" horiz-adv-x="693" d="M429 0 C496 0 552 23 599 68 C645 113 668 169 668 235 C668 302 645 357 599 402 C552 447 496 470 429 470 L305 470 L305 700 L0 700 L0 568 L168 568 L168 0 L429 0 Z M305 341 L429 341 C458 341 483 331 502 311 C521 291 530 266 530 235 C530 204 521 179 502 159 C483 139 458 129 429 129 L305 129 L305 341 Z " />
<glyph glyph-name="uni042B" unicode="&#x42b;" horiz-adv-x="831" d="M326 0 C393 0 449 23 496 68 C542 113 565 169 565 235 C565 302 542 357 496 402 C449 447 393 470 326 470 L203 470 L203 700 L65 700 L65 0 L326 0 Z M766 0 L766 700 L629 700 L629 0 L766 0 Z M203 341 L326 341 C355 341 380 331 399 311 C418 291 428 266 428 235 C428 204 418 179 399 159 C380 139 355 129 326 129 L203 129 L203 341 Z " />
<glyph glyph-name="uni042C" unicode="&#x42c;" horiz-adv-x="590" d="M203 470 L203 700 L65 700 L65 0 L326 0 C393 0 449 23 496 68 C542 113 565 169 565 235 C565 302 542 357 496 402 C449 447 393 470 326 470 L203 470 Z M203 129 L203 341 L326 341 C355 341 380 331 399 311 C418 290 428 265 428 235 C428 204 418 179 399 159 C380 139 355 129 326 129 L203 129 Z " />
<glyph glyph-name="uni042D" unicode="&#x42d;" horiz-adv-x="724" d="M589 609 C520 679 433 714 328 714 C265 714 207 699 154 669 C100 640 58 600 28 549 L147 480 C184 547 245 580 328 580 C384 580 432 565 471 535 C510 506 535 466 547 415 L235 415 L235 286 L547 286 C535 235 510 195 471 166 C432 136 384 121 328 121 C289 121 253 130 220 148 C188 165 164 189 147 220 L28 151 C58 100 100 60 153 31 C206 1 265 -14 328 -14 C433 -14 520 21 589 91 C658 160 692 247 692 350 C692 454 658 540 589 609 L589 609 Z " />
<glyph glyph-name="uni042E" unicode="&#x42e;" horiz-adv-x="1055" d="M917 608 C846 679 760 714 659 714 C572 714 495 687 430 633 C365 579 324 510 307 426 L203 426 L203 700 L65 700 L65 0 L203 0 L203 294 L304 294 C317 205 357 131 423 73 C490 15 569 -14 659 -14 C760 -14 846 21 917 92 C988 163 1023 249 1023 350 C1023 452 988 538 917 608 L917 608 Z M497 516 C540 559 594 580 659 580 C723 580 777 558 820 515 C863 472 885 417 885 350 C885 283 863 228 820 185 C777 142 724 121 659 121 C594 121 541 142 498 185 C455 228 433 283 433 350 C433 418 454 473 497 516 L497 516 Z " />
<glyph glyph-name="uni042F" unicode="&#x42f;" horiz-adv-x="624" d="M279 700 C214 700 159 677 114 632 C69 587 46 532 46 468 C46 421 60 379 88 340 C116 301 152 274 197 258 L26 0 L181 0 L342 243 L421 243 L421 0 L559 0 L559 700 L279 700 Z M279 364 C253 364 231 374 212 395 C193 415 184 439 184 468 C184 497 193 521 212 541 C231 561 253 571 279 571 L421 571 L421 364 L279 364 Z " />
<glyph glyph-name="uni0430" unicode="&#x430;" horiz-adv-x="626" d="M439 441 C400 490 346 514 276 514 C209 514 152 488 104 437 C57 386 33 323 33 250 C33 176 57 113 104 62 C152 11 209 -14 276 -14 C346 -14 400 10 439 59 L439 0 L568 0 L568 500 L439 500 L439 441 Z M300 109 C260 109 227 122 201 148 C175 175 162 209 162 250 C162 291 175 325 201 351 C227 378 260 391 300 391 C340 391 373 378 399 351 C426 325 439 291 439 250 C439 209 426 175 399 148 C373 122 340 109 300 109 L300 109 Z " />
<glyph glyph-name="uni0431" unicode="&#x431;" horiz-adv-x="567" d="M105 62 C154 11 217 -14 296 -14 C371 -14 432 8 478 52 C525 96 548 152 548 221 C548 288 526 341 483 381 C440 422 391 442 335 442 C272 442 222 423 185 385 C201 430 246 466 320 495 C379 518 425 540 456 563 C487 586 506 617 515 658 L409 719 C393 682 372 656 346 640 C335 633 324 627 314 622 L272 601 C263 598 254 594 244 589 L233 583 L224 579 C147 541 96 499 71 452 C46 405 33 340 33 255 C33 178 57 113 105 62 L105 62 Z M206 308 C231 329 261 339 294 339 C331 339 361 328 384 306 C407 283 419 255 419 221 C419 187 407 159 384 137 C361 115 332 104 295 104 C259 104 229 115 204 138 C180 161 168 190 168 225 C168 259 181 287 206 308 L206 308 Z " />
<glyph glyph-name="uni0432" unicode="&#x432;" horiz-adv-x="511" d="M489 142 C489 195 466 233 419 256 C452 281 468 315 468 359 C468 402 453 436 424 461 C395 487 354 500 302 500 L59 500 L59 0 L322 0 C375 0 416 13 446 40 C475 65 489 99 489 142 L489 142 Z M290 394 C327 394 345 379 345 349 C345 319 327 304 290 304 L180 304 L180 394 L290 394 Z M180 109 L180 202 L307 202 C344 202 363 187 363 157 C363 125 344 109 307 109 L180 109 Z " />
<glyph glyph-name="uni0433" unicode="&#x433;" horiz-adv-x="411" d="M59 500 L59 0 L188 0 L188 376 L401 376 L401 500 L59 500 Z " />
<glyph glyph-name="uni0434" unicode="&#x434;" horiz-adv-x="598" d="M509 500 L117 500 L117 298 C117 223 103 164 74 121 L13 121 L13 -134 L139 -134 L139 0 L449 0 L449 -134 L575 -134 L575 121 L509 121 L509 500 Z M212 121 C233 167 243 226 243 298 L243 384 L383 384 L383 121 L212 121 Z " />
<glyph glyph-name="uni0435" unicode="&#x435;" horiz-adv-x="581" d="M545 197 C548 218 550 236 550 250 C550 325 526 387 478 438 C431 489 371 514 297 514 C219 514 156 489 107 438 C58 387 33 325 33 250 C33 174 58 111 108 61 C158 11 224 -14 307 -14 C403 -14 476 22 525 93 L421 153 C396 120 358 103 309 103 C232 103 185 134 168 197 L545 197 Z M166 297 C182 364 226 398 297 398 C365 398 406 364 421 297 L166 297 Z " />
<glyph glyph-name="uni0436" unicode="&#x436;" horiz-adv-x="746" d="M553 253 L724 500 L579 500 L436 283 L436 500 L310 500 L310 283 L167 500 L23 500 L193 253 L13 0 L157 0 L310 224 L310 0 L436 0 L436 224 L589 0 L734 0 L553 253 Z " />
<glyph glyph-name="uni0437" unicode="&#x437;" horiz-adv-x="450" d="M428 136 C428 191 403 230 352 255 C389 280 407 316 407 365 C407 406 390 441 356 470 C323 499 277 514 220 514 C128 514 63 476 25 399 L129 339 C148 381 179 402 222 402 C263 402 284 386 284 354 C284 323 265 308 226 308 L172 308 L172 198 L243 198 C282 198 302 183 302 152 C302 117 277 100 227 100 C174 100 140 123 124 168 L19 106 C56 26 125 -14 226 -14 C289 -14 338 0 375 29 C410 56 428 92 428 136 L428 136 Z " />
<glyph glyph-name="uni0438" unicode="&#x438;" horiz-adv-x="575" d="M185 216 L185 500 L59 500 L59 0 L155 0 L390 284 L390 0 L516 0 L516 500 L420 500 L185 216 Z " />
<glyph glyph-name="uni0439" unicode="&#x439;" horiz-adv-x="575" d="M433 564 L433 676 L143 676 L143 564 L433 564 Z M185 216 L185 500 L59 500 L59 0 L155 0 L390 284 L390 0 L516 0 L516 500 L420 500 L185 216 Z " />
<glyph glyph-name="uni043A" unicode="&#x43a;" horiz-adv-x="525" d="M313 253 L514 500 L360 500 L188 280 L188 500 L59 500 L59 0 L188 0 L188 227 L370 0 L520 0 L313 253 Z " />
<glyph glyph-name="uni043B" unicode="&#x43b;" horiz-adv-x="546" d="M92 500 L92 216 C92 139 65 108 10 121 L10 0 C151 -15 221 55 221 209 L221 376 L359 376 L359 0 L488 0 L488 500 L92 500 Z " />
<glyph glyph-name="uni043C" unicode="&#x43c;" horiz-adv-x="638" d="M452 500 L319 290 L186 500 L59 500 L59 0 L183 0 L183 294 L311 92 L327 92 L454 292 L454 0 L579 0 L579 500 L452 500 Z " />
<glyph glyph-name="uni043D" unicode="&#x43d;" horiz-adv-x="575" d="M387 311 L188 311 L188 500 L59 500 L59 0 L188 0 L188 190 L387 190 L387 0 L516 0 L516 500 L387 500 L387 311 Z " />
<glyph glyph-name="uni043E" unicode="&#x43e;" horiz-adv-x="594" d="M297 -14 C372 -14 434 11 485 62 C536 113 562 176 562 250 C562 323 536 386 485 437 C434 488 371 514 297 514 C223 514 160 488 109 437 C58 386 33 324 33 250 C33 175 58 113 109 62 C160 11 222 -14 297 -14 L297 -14 Z M297 112 C258 112 226 125 200 151 C175 178 162 211 162 250 C162 289 175 322 200 349 C226 375 258 388 297 388 C336 388 368 375 394 349 C420 323 433 290 433 250 C433 210 420 177 394 151 C368 125 336 112 297 112 L297 112 Z " />
<glyph glyph-name="uni043F" unicode="&#x43f;" horiz-adv-x="575" d="M59 500 L59 0 L188 0 L188 379 L387 379 L387 0 L516 0 L516 500 L59 500 Z " />
<glyph glyph-name="uni0440" unicode="&#x440;" horiz-adv-x="626" d="M522 437 C475 488 417 514 350 514 C280 514 226 490 188 441 L188 500 L59 500 L59 -200 L188 -200 L188 59 C226 10 280 -14 350 -14 C418 -14 475 11 522 62 C570 113 594 176 594 250 C594 324 570 386 522 437 L522 437 Z M326 109 C286 109 253 122 227 148 C201 175 188 209 188 250 C188 291 201 325 227 351 C253 378 286 391 326 391 C366 391 399 378 425 351 C452 325 465 291 465 250 C465 209 452 175 425 148 C399 122 366 109 326 109 L326 109 Z " />
<glyph glyph-name="uni0441" unicode="&#x441;" horiz-adv-x="536" d="M108 62 C159 11 222 -14 297 -14 C345 -14 389 -2 430 21 C470 44 501 76 523 116 L411 180 C390 136 351 114 296 114 C257 114 225 127 200 152 C175 179 162 211 162 250 C162 290 175 323 200 349 C225 374 257 387 296 387 C350 387 388 365 410 320 L521 385 C500 424 470 456 430 479 C390 502 346 514 297 514 C222 514 159 489 108 438 C58 387 33 325 33 250 C33 176 58 113 108 62 L108 62 Z " />
<glyph glyph-name="uni0442" unicode="&#x442;" horiz-adv-x="463" d="M10 500 L10 376 L168 376 L168 0 L297 0 L297 376 L453 376 L453 500 L10 500 Z " />
<glyph glyph-name="uni0443" unicode="&#x443;" horiz-adv-x="525" d="M274 164 L140 500 L3 500 L205 6 C193 -25 177 -48 158 -61 C138 -74 111 -81 77 -80 L77 -200 C202 -207 290 -141 341 0 L523 500 L385 500 L274 164 Z " />
<glyph glyph-name="uni0444" unicode="&#x444;" horiz-adv-x="685" d="M406 -8 C483 3 543 32 587 79 C631 126 653 183 653 250 C653 317 631 374 587 421 C543 468 483 497 406 508 L406 700 L280 700 L280 508 C203 497 143 468 99 421 C55 374 33 317 33 250 C33 183 55 126 99 79 C143 32 203 3 280 -8 L280 -200 L406 -200 L406 -8 Z M191 164 C170 187 160 216 160 250 C160 323 200 368 280 385 L280 115 C242 124 212 140 191 164 L191 164 Z M406 385 C485 368 525 323 525 250 C525 178 485 133 406 116 L406 385 Z " />
<glyph glyph-name="uni0445" unicode="&#x445;" horiz-adv-x="525" d="M337 256 L512 500 L364 500 L263 359 L162 500 L13 500 L188 255 L5 0 L154 0 L263 152 L371 0 L520 0 L337 256 Z " />
<glyph glyph-name="uni0446" unicode="&#x446;" horiz-adv-x="605" d="M499 500 L370 500 L370 121 L188 121 L188 500 L59 500 L59 0 L457 0 L457 -134 L583 -134 L583 121 L499 121 L499 500 Z " />
<glyph glyph-name="uni0447" unicode="&#x447;" horiz-adv-x="541" d="M354 280 C326 267 294 261 257 261 C195 261 164 286 164 336 L164 500 L35 500 L35 321 C35 264 53 219 90 187 C125 156 174 141 235 141 C278 141 317 147 354 159 L354 0 L483 0 L483 500 L354 500 L354 280 Z " />
<glyph glyph-name="uni0448" unicode="&#x448;" horiz-adv-x="833" d="M645 121 L481 121 L481 500 L352 500 L352 121 L188 121 L188 500 L59 500 L59 0 L774 0 L774 500 L645 500 L645 121 Z " />
<glyph glyph-name="uni0449" unicode="&#x449;" horiz-adv-x="848" d="M759 500 L630 500 L630 121 L473 121 L473 500 L344 500 L344 121 L188 121 L188 500 L59 500 L59 0 L699 0 L699 -134 L825 -134 L825 121 L759 121 L759 500 Z " />
<glyph glyph-name="uni044A" unicode="&#x44a;" horiz-adv-x="574" d="M265 340 L265 500 L0 500 L0 376 L136 376 L136 0 L363 0 C420 0 465 15 499 46 C534 77 551 119 551 170 C551 221 534 263 499 294 C465 325 420 340 363 340 L265 340 Z M265 114 L265 227 L363 227 C381 227 396 222 408 211 C419 200 425 187 425 170 C425 153 419 140 408 130 C396 119 381 114 363 114 L265 114 Z " />
<glyph glyph-name="uni044B" unicode="&#x44b;" horiz-adv-x="717" d="M188 340 L188 500 L59 500 L59 0 L285 0 C342 0 387 15 422 46 C457 77 474 119 474 170 C474 221 457 263 422 294 C387 325 342 340 285 340 L188 340 Z M529 0 L658 0 L658 500 L529 500 L529 0 Z M188 114 L188 227 L286 227 C304 227 319 222 331 211 C342 200 348 187 348 170 C348 153 342 140 331 130 C319 119 304 114 286 114 L188 114 Z " />
<glyph glyph-name="uni044C" unicode="&#x44c;" horiz-adv-x="496" d="M188 340 L188 500 L59 500 L59 0 L285 0 C342 0 387 15 422 46 C457 77 474 119 474 170 C474 221 457 263 422 294 C387 325 342 340 285 340 L188 340 Z M188 114 L188 227 L286 227 C304 227 319 222 331 211 C342 200 348 187 348 170 C348 153 342 140 331 130 C319 119 304 114 286 114 L188 114 Z " />
<glyph glyph-name="uni044D" unicode="&#x44d;" horiz-adv-x="537" d="M430 440 C381 489 318 514 243 514 C193 514 148 502 107 479 C67 456 36 425 14 385 L123 322 C145 367 185 390 244 390 C303 390 344 363 366 308 L196 308 L196 192 L366 192 C344 137 303 110 244 110 C182 110 141 133 122 179 L13 116 C33 76 63 44 104 21 C145 -2 191 -14 242 -14 C319 -14 381 10 430 59 C479 108 504 172 504 250 C504 327 479 391 430 440 L430 440 Z " />
<glyph glyph-name="uni044E" unicode="&#x44e;" horiz-adv-x="811" d="M702 437 C651 488 588 514 514 514 C453 514 398 495 351 457 C304 419 274 370 261 311 L188 311 L188 500 L59 500 L59 0 L188 0 L188 190 L260 190 C273 130 303 81 350 43 C397 5 452 -14 514 -14 C589 -14 651 11 702 62 C753 113 779 176 779 250 C779 323 753 386 702 437 L702 437 Z M514 112 C475 112 443 125 417 151 C392 178 379 211 379 250 C379 289 392 322 417 349 C443 375 475 388 514 388 C553 388 585 375 611 349 C637 323 650 290 650 250 C650 210 637 177 611 151 C585 125 553 112 514 112 L514 112 Z " />
<glyph glyph-name="uni044F" unicode="&#x44f;" horiz-adv-x="519" d="M226 500 C172 500 128 483 95 449 C62 414 45 374 45 328 C45 294 55 263 74 235 C93 206 118 184 150 171 L25 0 L174 0 L289 156 L334 156 L334 0 L460 0 L460 500 L226 500 Z M334 385 L334 265 L236 265 C217 265 202 270 190 281 C177 292 171 306 171 324 C171 342 177 357 190 368 C202 379 217 385 236 385 L334 385 Z " />
<glyph glyph-name="uni0451" unicode="&#x451;" horiz-adv-x="581" d="M196 553 C215 553 230 559 243 572 C256 585 263 601 263 620 C263 639 256 655 243 668 C230 681 215 688 196 688 C177 688 161 681 148 668 C135 655 128 639 128 620 C128 601 135 585 148 572 C161 559 177 553 196 553 L196 553 Z M386 553 C405 553 420 559 433 572 C446 585 453 601 453 620 C453 639 446 655 433 668 C420 681 405 688 386 688 C367 688 351 681 338 668 C325 655 318 639 318 620 C318 601 325 585 338 572 C351 559 367 553 386 553 L386 553 Z M545 197 C548 218 550 236 550 250 C550 325 526 387 478 438 C431 489 371 514 297 514 C219 514 156 489 107 438 C58 387 33 325 33 250 C33 174 58 111 108 61 C158 11 224 -14 307 -14 C403 -14 476 22 525 93 L421 153 C396 120 358 103 309 103 C232 103 185 134 168 197 L545 197 Z M166 297 C182 364 226 398 297 398 C365 398 406 364 421 297 L166 297 Z " />
<glyph glyph-name="uni0452" unicode="&#x452;" horiz-adv-x="583" d="M479 459 C444 496 399 514 343 514 C275 514 225 490 194 443 L194 554 L335 554 L335 638 L194 638 L194 700 L65 700 L65 638 L3 638 L3 554 L65 554 L65 0 L194 0 L194 270 C194 353 231 394 304 394 C335 394 359 385 377 368 C395 349 404 324 404 291 L404 -10 C404 -67 374 -94 315 -90 L315 -214 C460 -223 533 -155 533 -10 L533 307 C533 372 515 422 479 459 L479 459 Z " />
<glyph glyph-name="uni0453" unicode="&#x453;" horiz-adv-x="411" d="M214 700 L134 563 L258 563 L369 700 L214 700 Z M59 500 L59 0 L188 0 L188 376 L401 376 L401 500 L59 500 Z " />
<glyph glyph-name="uni0454" unicode="&#x454;" horiz-adv-x="537" d="M415 179 C396 133 355 110 293 110 C234 110 193 137 171 192 L341 192 L341 308 L171 308 C193 363 234 390 293 390 C352 390 392 367 414 322 L523 385 C501 425 470 456 430 479 C389 502 344 514 294 514 C218 514 155 489 106 440 C57 391 33 328 33 250 C33 171 57 108 106 59 C155 10 218 -14 295 -14 C346 -14 392 -2 433 21 C474 44 504 76 524 116 L415 179 Z " />
<glyph glyph-name="uni0455" unicode="&#x455;" horiz-adv-x="465" d="M269 303 C208 318 178 337 178 358 C178 385 197 399 236 399 C273 399 300 382 316 348 L426 408 C385 479 322 514 236 514 C182 514 137 500 100 471 C64 443 46 404 46 355 C46 309 65 273 102 246 C117 235 135 226 156 218 C171 213 190 207 213 201 C274 186 304 167 304 146 C304 117 281 103 235 103 C185 103 152 125 137 168 L25 105 C62 26 132 -14 235 -14 C292 -14 339 0 378 27 C417 55 436 95 436 146 C437 194 418 232 380 259 C353 278 316 293 269 303 L269 303 Z " />
<glyph glyph-name="uni0456" unicode="&#x456;" horiz-adv-x="247" d="M67 583 C83 568 102 560 123 560 C145 560 164 568 180 583 C195 599 203 618 203 639 C203 660 195 679 180 695 C164 711 145 719 123 719 C102 719 83 711 67 695 C52 679 44 660 44 639 C44 618 52 599 67 583 L67 583 Z M188 0 L188 500 L59 500 L59 0 L188 0 Z " />
<glyph glyph-name="uni0457" unicode="&#x457;" horiz-adv-x="247" d="M28 549 C47 549 62 555 75 568 C88 581 95 597 95 616 C95 635 88 651 75 664 C62 677 47 684 28 684 C9 684 -7 677 -20 664 C-33 651 -40 635 -40 616 C-40 597 -33 581 -20 568 C-7 555 9 549 28 549 L28 549 Z M218 549 C237 549 252 555 265 568 C278 581 285 597 285 616 C285 635 278 651 265 664 C252 677 237 684 218 684 C199 684 183 677 170 664 C157 651 150 635 150 616 C150 597 157 581 170 568 C183 555 199 549 218 549 L218 549 Z M188 0 L188 500 L59 500 L59 0 L188 0 Z " />
<glyph glyph-name="uni0458" unicode="&#x458;" horiz-adv-x="264" d="M85 583 C100 568 119 560 141 560 C162 560 181 568 197 583 C212 599 220 618 220 639 C220 660 212 679 197 695 C181 711 162 719 141 719 C119 719 100 711 85 695 C69 679 61 660 61 639 C61 618 69 599 85 583 L85 583 Z M76 -10 C76 -67 46 -94 -13 -90 L-13 -214 C132 -223 205 -155 205 -10 L205 500 L76 500 L76 -10 Z " />
<glyph glyph-name="uni0459" unicode="&#x459;" horiz-adv-x="764" d="M478 328 L478 500 L92 500 L92 216 C92 142 65 108 10 115 L10 -6 C151 -15 221 57 221 209 L221 376 L349 376 L349 0 L570 0 C622 0 663 15 694 44 C725 74 741 114 741 164 C741 215 726 255 695 284 C664 313 623 328 570 328 L478 328 Z M478 114 L478 214 L571 214 C606 214 623 197 623 164 C623 131 606 114 571 114 L478 114 Z " />
<glyph glyph-name="uni045A" unicode="&#x45a;" horiz-adv-x="790" d="M496 328 L496 500 L367 500 L367 328 L180 328 L180 500 L51 500 L51 0 L180 0 L180 207 L367 207 L367 0 L589 0 C642 0 684 15 717 45 C750 75 767 115 767 164 C767 213 750 253 717 284 C684 313 642 328 589 328 L496 328 Z M496 114 L496 214 L589 214 C624 214 641 197 641 164 C641 131 624 114 589 114 L496 114 Z " />
<glyph glyph-name="uni045B" unicode="&#x45b;" horiz-adv-x="583" d="M479 459 C444 496 399 514 343 514 C275 514 225 490 194 443 L194 554 L335 554 L335 638 L194 638 L194 700 L65 700 L65 638 L3 638 L3 554 L65 554 L65 0 L194 0 L194 270 C194 353 231 394 304 394 C335 394 359 385 377 368 C395 349 404 324 404 291 L404 0 L533 0 L533 307 C533 372 515 422 479 459 L479 459 Z " />
<glyph glyph-name="uni045C" unicode="&#x45c;" horiz-adv-x="525" d="M269 700 L189 563 L313 563 L424 700 L269 700 Z M313 253 L514 500 L360 500 L188 280 L188 500 L59 500 L59 0 L188 0 L188 227 L370 0 L520 0 L313 253 Z " />
<glyph glyph-name="uni045E" unicode="&#x45e;" horiz-adv-x="525" d="M118 676 L118 564 L408 564 L408 676 L118 676 Z M274 164 L140 500 L3 500 L205 6 C193 -25 177 -48 158 -61 C138 -74 111 -81 77 -80 L77 -200 C202 -207 290 -141 341 0 L523 500 L385 500 L274 164 Z " />
<glyph glyph-name="uni045F" unicode="&#x45f;" horiz-adv-x="575" d="M387 121 L188 121 L188 500 L59 500 L59 0 L225 0 L225 -134 L351 -134 L351 0 L516 0 L516 500 L387 500 L387 121 Z " />
<glyph glyph-name="uni0490" unicode="&#x490;" horiz-adv-x="475" d="M325 700 L65 700 L65 0 L203 0 L203 568 L463 568 L463 820 L325 820 L325 700 Z " />
<glyph glyph-name="uni0491" unicode="&#x491;" horiz-adv-x="411" d="M275 500 L59 500 L59 0 L188 0 L188 376 L401 376 L401 601 L275 601 L275 500 Z " />
<glyph glyph-name="Wgrave" unicode="&#x1e80;" horiz-adv-x="999" d="M487 763 L376 900 L531 900 L611 763 L487 763 Z M368 0 L499 462 L631 0 L788 0 L984 700 L839 700 L705 181 L558 700 L440 700 L294 181 L160 700 L15 700 L211 0 L368 0 Z " />
<glyph glyph-name="Wgrave108" unicode="&#x1e81;" horiz-adv-x="770" d="M387 700 L232 700 L343 563 L467 563 L387 700 Z M537 192 L446 500 L324 500 L233 193 L148 500 L11 500 L170 0 L293 0 L385 303 L477 0 L600 0 L759 500 L622 500 L537 192 Z " />
<glyph glyph-name="Wacute" unicode="&#x1e82;" horiz-adv-x="999" d="M529 900 L684 900 L573 763 L449 763 L529 900 Z M368 0 L499 462 L631 0 L788 0 L984 700 L839 700 L705 181 L558 700 L440 700 L294 181 L160 700 L15 700 L211 0 L368 0 Z " />
<glyph glyph-name="Wacute109" unicode="&#x1e83;" horiz-adv-x="770" d="M385 700 L305 563 L429 563 L540 700 L385 700 Z M537 192 L446 500 L324 500 L233 193 L148 500 L11 500 L170 0 L293 0 L385 303 L477 0 L600 0 L759 500 L622 500 L537 192 Z " />
<glyph glyph-name="Wdieresis" unicode="&#x1e84;" horiz-adv-x="999" d="M434 749 C453 749 468 755 481 768 C494 781 501 797 501 816 C501 835 494 851 481 864 C468 877 453 884 434 884 C415 884 399 877 386 864 C373 851 366 835 366 816 C366 797 373 781 386 768 C399 755 415 749 434 749 L434 749 Z M624 749 C643 749 658 755 671 768 C684 781 691 797 691 816 C691 835 684 851 671 864 C658 877 643 884 624 884 C605 884 589 877 576 864 C563 851 556 835 556 816 C556 797 563 781 576 768 C589 755 605 749 624 749 L624 749 Z M368 0 L499 462 L631 0 L788 0 L984 700 L839 700 L705 181 L558 700 L440 700 L294 181 L160 700 L15 700 L211 0 L368 0 Z " />
<glyph glyph-name="Wdieresis110" unicode="&#x1e85;" horiz-adv-x="770" d="M290 549 C309 549 324 555 337 568 C350 581 357 597 357 616 C357 635 350 651 337 664 C324 677 309 684 290 684 C271 684 255 677 242 664 C229 651 222 635 222 616 C222 597 229 581 242 568 C255 555 271 549 290 549 L290 549 Z M480 549 C499 549 514 555 527 568 C540 581 547 597 547 616 C547 635 540 651 527 664 C514 677 499 684 480 684 C461 684 445 677 432 664 C419 651 412 635 412 616 C412 597 419 581 432 568 C445 555 461 549 480 549 L480 549 Z M537 192 L446 500 L324 500 L233 193 L148 500 L11 500 L170 0 L293 0 L385 303 L477 0 L600 0 L759 500 L622 500 L537 192 Z " />
<glyph glyph-name="A.dotbl" unicode="&#x1ea0;" horiz-adv-x="668" d="M665 0 L419 700 L248 700 L3 0 L152 0 L194 126 L473 126 L515 0 L665 0 Z M334 541 L430 255 L238 255 L334 541 Z M334 -190 C351 -190 365 -184 376 -173 C388 -161 394 -147 394 -131 C394 -114 388 -100 376 -89 C365 -77 351 -71 334 -71 C318 -71 304 -77 292 -89 C281 -100 275 -114 275 -131 C275 -147 281 -161 292 -173 C304 -184 318 -190 334 -190 L334 -190 Z " />
<glyph glyph-name="A.dotbl112" unicode="&#x1ea1;" horiz-adv-x="626" d="M439 441 C400 490 346 514 276 514 C209 514 152 488 104 437 C57 386 33 323 33 250 C33 176 57 113 104 62 C152 11 209 -14 276 -14 C346 -14 400 10 439 59 L439 0 L568 0 L568 500 L439 500 L439 441 Z M300 109 C260 109 227 122 201 148 C175 175 162 209 162 250 C162 291 175 325 201 351 C227 378 260 391 300 391 C340 391 373 378 399 351 C426 325 439 291 439 250 C439 209 426 175 399 148 C373 122 340 109 300 109 L300 109 Z M301 -190 C318 -190 332 -184 343 -173 C355 -161 361 -147 361 -131 C361 -114 355 -100 343 -89 C332 -77 318 -71 301 -71 C285 -71 271 -77 259 -89 C248 -100 242 -114 242 -131 C242 -147 248 -161 259 -173 C271 -184 285 -190 301 -190 L301 -190 Z " />
<glyph glyph-name="A.hook" unicode="&#x1ea2;" horiz-adv-x="668" d="M665 0 L419 700 L248 700 L3 0 L152 0 L194 126 L473 126 L515 0 L665 0 Z M334 541 L430 255 L238 255 L334 541 Z M372 747 C372 759 374 767 377 771 C379 774 381 776 383 779 C401 797 410 815 410 833 C410 854 402 870 387 882 C373 893 356 898 337 898 C320 898 305 894 292 886 C278 877 267 862 258 840 L307 812 C314 833 324 843 337 843 C343 843 348 842 351 840 C353 838 354 835 354 831 C354 828 352 824 349 819 C348 817 342 811 332 801 C321 791 316 773 316 747 L372 747 Z " />
<glyph glyph-name="A.hook113" unicode="&#x1ea3;" horiz-adv-x="626" d="M439 441 C400 490 346 514 276 514 C209 514 152 488 104 437 C57 386 33 323 33 250 C33 176 57 113 104 62 C152 11 209 -14 276 -14 C346 -14 400 10 439 59 L439 0 L568 0 L568 500 L439 500 L439 441 Z M300 109 C260 109 227 122 201 148 C175 175 162 209 162 250 C162 291 175 325 201 351 C227 378 260 391 300 391 C340 391 373 378 399 351 C426 325 439 291 439 250 C439 209 426 175 399 148 C373 122 340 109 300 109 L300 109 Z M339 547 C339 559 341 567 344 571 C346 574 348 576 350 579 C368 597 377 615 377 633 C377 654 369 670 354 682 C340 693 323 698 304 698 C287 698 272 694 259 686 C245 677 234 662 225 640 L274 612 C281 633 291 643 304 643 C310 643 315 642 318 640 C320 638 321 635 321 631 C321 628 319 624 316 619 C315 617 309 611 299 601 C288 591 283 573 283 547 L339 547 Z " />
<glyph glyph-name="Acir.acute" unicode="&#x1ea4;" horiz-adv-x="668" d="M665 0 L419 700 L248 700 L3 0 L152 0 L194 126 L473 126 L515 0 L665 0 Z M334 541 L430 255 L238 255 L334 541 Z M388 858 L297 858 L222 756 L312 756 L343 802 L373 756 L463 756 L388 858 Z M450 832 L537 832 L615 928 L506 928 L450 832 Z " />
<glyph glyph-name="Acir.acute114" unicode="&#x1ea5;" horiz-adv-x="626" d="M439 441 C400 490 346 514 276 514 C209 514 152 488 104 437 C57 386 33 323 33 250 C33 176 57 113 104 62 C152 11 209 -14 276 -14 C346 -14 400 10 439 59 L439 0 L568 0 L568 500 L439 500 L439 441 Z M300 109 C260 109 227 122 201 148 C175 175 162 209 162 250 C162 291 175 325 201 351 C227 378 260 391 300 391 C340 391 373 378 399 351 C426 325 439 291 439 250 C439 209 426 175 399 148 C373 122 340 109 300 109 L300 109 Z M346 657 L255 657 L180 555 L270 555 L301 601 L331 555 L421 555 L346 657 Z M434 606 L521 606 L599 702 L490 702 L434 606 Z " />
<glyph glyph-name="Acir.grave" unicode="&#x1ea6;" horiz-adv-x="668" d="M665 0 L419 700 L248 700 L3 0 L152 0 L194 126 L473 126 L515 0 L665 0 Z M334 541 L430 255 L238 255 L334 541 Z M388 857 L297 857 L222 755 L312 755 L343 801 L373 755 L463 755 L388 857 Z M536 829 L480 925 L371 925 L449 829 L536 829 Z " />
<glyph glyph-name="Acir.grave115" unicode="&#x1ea7;" horiz-adv-x="626" d="M439 441 C400 490 346 514 276 514 C209 514 152 488 104 437 C57 386 33 323 33 250 C33 176 57 113 104 62 C152 11 209 -14 276 -14 C346 -14 400 10 439 59 L439 0 L568 0 L568 500 L439 500 L439 441 Z M300 109 C260 109 227 122 201 148 C175 175 162 209 162 250 C162 291 175 325 201 351 C227 378 260 391 300 391 C340 391 373 378 399 351 C426 325 439 291 439 250 C439 209 426 175 399 148 C373 122 340 109 300 109 L300 109 Z M346 657 L255 657 L180 555 L270 555 L301 601 L331 555 L421 555 L346 657 Z M502 659 L446 755 L337 755 L415 659 L502 659 Z " />
<glyph glyph-name="Acir.hook" unicode="&#x1ea8;" horiz-adv-x="668" d="M665 0 L419 700 L248 700 L3 0 L152 0 L194 126 L473 126 L515 0 L665 0 Z M334 541 L430 255 L238 255 L334 541 Z M380 857 L289 857 L214 755 L304 755 L335 801 L365 755 L455 755 L380 857 Z M507 827 C507 839 509 847 512 851 C514 854 516 856 518 859 C536 877 545 895 545 913 C545 934 537 950 522 962 C508 973 491 978 472 978 C455 978 440 974 427 966 C413 957 402 942 393 920 L442 892 C449 913 459 923 472 923 C478 923 483 922 486 920 C488 918 489 915 489 911 C489 908 487 904 484 899 C483 897 477 891 467 881 C456 871 451 853 451 827 L507 827 Z " />
<glyph glyph-name="Acir.hook116" unicode="&#x1ea9;" horiz-adv-x="626" d="M439 441 C400 490 346 514 276 514 C209 514 152 488 104 437 C57 386 33 323 33 250 C33 176 57 113 104 62 C152 11 209 -14 276 -14 C346 -14 400 10 439 59 L439 0 L568 0 L568 500 L439 500 L439 441 Z M300 109 C260 109 227 122 201 148 C175 175 162 209 162 250 C162 291 175 325 201 351 C227 378 260 391 300 391 C340 391 373 378 399 351 C426 325 439 291 439 250 C439 209 426 175 399 148 C373 122 340 109 300 109 L300 109 Z M346 657 L255 657 L180 555 L270 555 L301 601 L331 555 L421 555 L346 657 Z M468 606 C468 618 470 626 473 630 C475 633 477 635 479 638 C497 656 506 674 506 692 C506 713 498 729 483 741 C469 752 452 757 433 757 C416 757 401 753 388 745 C374 736 363 721 354 699 L403 671 C410 692 420 702 433 702 C439 702 444 701 447 699 C449 697 450 694 450 690 C450 687 448 683 445 678 C444 676 438 670 428 660 C417 650 412 632 412 606 L468 606 Z " />
<glyph glyph-name="Acir.tilde" unicode="&#x1eaa;" horiz-adv-x="668" d="M665 0 L419 700 L248 700 L3 0 L152 0 L194 126 L473 126 L515 0 L665 0 Z M334 541 L430 255 L238 255 L334 541 Z M380 858 L289 858 L214 756 L304 756 L335 802 L365 756 L455 756 L380 858 Z M299 891 C299 907 302 916 307 919 C312 921 322 917 336 907 C369 886 397 882 422 893 C449 907 463 940 463 992 L390 992 C390 976 387 967 382 964 C377 962 367 966 353 975 C320 996 292 1001 267 989 C240 975 226 942 226 891 L299 891 Z " />
<glyph glyph-name="Acir.tilde117" unicode="&#x1eab;" horiz-adv-x="626" d="M439 441 C400 490 346 514 276 514 C209 514 152 488 104 437 C57 386 33 323 33 250 C33 176 57 113 104 62 C152 11 209 -14 276 -14 C346 -14 400 10 439 59 L439 0 L568 0 L568 500 L439 500 L439 441 Z M300 109 C260 109 227 122 201 148 C175 175 162 209 162 250 C162 291 175 325 201 351 C227 378 260 391 300 391 C340 391 373 378 399 351 C426 325 439 291 439 250 C439 209 426 175 399 148 C373 122 340 109 300 109 L300 109 Z M346 657 L255 657 L180 555 L270 555 L301 601 L331 555 L421 555 L346 657 Z M255 688 C255 704 258 713 263 716 C268 718 278 714 292 704 C325 683 353 679 378 690 C405 704 419 737 419 789 L346 789 C346 773 343 764 338 761 C333 759 323 763 309 772 C276 793 248 798 223 786 C196 772 182 739 182 688 L255 688 Z " />
<glyph glyph-name="Acir.dotbl" unicode="&#x1eac;" horiz-adv-x="668" d="M665 0 L419 700 L248 700 L3 0 L152 0 L194 126 L473 126 L515 0 L665 0 Z M334 541 L430 255 L238 255 L334 541 Z M380 857 L289 857 L214 755 L304 755 L335 801 L365 755 L455 755 L380 857 Z M334 -190 C351 -190 365 -184 376 -173 C388 -161 394 -147 394 -131 C394 -114 388 -100 376 -89 C365 -77 351 -71 334 -71 C318 -71 304 -77 292 -89 C281 -100 275 -114 275 -131 C275 -147 281 -161 292 -173 C304 -184 318 -190 334 -190 L334 -190 Z " />
<glyph glyph-name="Acir.dotbl118" unicode="&#x1ead;" horiz-adv-x="626" d="M439 441 C400 490 346 514 276 514 C209 514 152 488 104 437 C57 386 33 323 33 250 C33 176 57 113 104 62 C152 11 209 -14 276 -14 C346 -14 400 10 439 59 L439 0 L568 0 L568 500 L439 500 L439 441 Z M300 109 C260 109 227 122 201 148 C175 175 162 209 162 250 C162 291 175 325 201 351 C227 378 260 391 300 391 C340 391 373 378 399 351 C426 325 439 291 439 250 C439 209 426 175 399 148 C373 122 340 109 300 109 L300 109 Z M346 657 L255 657 L180 555 L270 555 L301 601 L331 555 L421 555 L346 657 Z M301 -190 C318 -190 332 -184 343 -173 C355 -161 361 -147 361 -131 C361 -114 355 -100 343 -89 C332 -77 318 -71 301 -71 C285 -71 271 -77 259 -89 C248 -100 242 -114 242 -131 C242 -147 248 -161 259 -173 C271 -184 285 -190 301 -190 L301 -190 Z " />
<glyph glyph-name="Abrv.acute" unicode="&#x1eae;" horiz-adv-x="668" d="M665 0 L419 700 L248 700 L3 0 L152 0 L194 126 L473 126 L515 0 L665 0 Z M334 541 L430 255 L238 255 L334 541 Z M256 782 C276 764 304 755 341 755 C378 755 407 764 428 782 C448 799 458 824 458 857 L378 857 C378 832 366 820 341 820 C317 820 305 832 305 857 L225 857 C225 824 235 799 256 782 L256 782 Z M311 888 L398 888 L476 984 L367 984 L311 888 Z " />
<glyph glyph-name="Abrv.acute119" unicode="&#x1eaf;" horiz-adv-x="626" d="M439 441 C400 490 346 514 276 514 C209 514 152 488 104 437 C57 386 33 323 33 250 C33 176 57 113 104 62 C152 11 209 -14 276 -14 C346 -14 400 10 439 59 L439 0 L568 0 L568 500 L439 500 L439 441 Z M300 109 C260 109 227 122 201 148 C175 175 162 209 162 250 C162 291 175 325 201 351 C227 378 260 391 300 391 C340 391 373 378 399 351 C426 325 439 291 439 250 C439 209 426 175 399 148 C373 122 340 109 300 109 L300 109 Z M215 574 C235 556 263 547 300 547 C337 547 366 556 387 574 C407 591 417 616 417 649 L337 649 C337 624 325 612 300 612 C276 612 264 624 264 649 L184 649 C184 616 194 591 215 574 L215 574 Z M246 672 L333 672 L411 768 L302 768 L246 672 Z " />
<glyph glyph-name="Abrv.grave" unicode="&#x1eb0;" horiz-adv-x="668" d="M665 0 L419 700 L248 700 L3 0 L152 0 L194 126 L473 126 L515 0 L665 0 Z M334 541 L430 255 L238 255 L334 541 Z M256 782 C276 764 304 755 341 755 C378 755 407 764 428 782 C448 799 458 824 458 857 L378 857 C378 832 366 820 341 820 C317 820 305 832 305 857 L225 857 C225 824 235 799 256 782 L256 782 Z M372 888 L316 984 L207 984 L285 888 L372 888 Z " />
<glyph glyph-name="Abrv.grave120" unicode="&#x1eb1;" horiz-adv-x="626" d="M439 441 C400 490 346 514 276 514 C209 514 152 488 104 437 C57 386 33 323 33 250 C33 176 57 113 104 62 C152 11 209 -14 276 -14 C346 -14 400 10 439 59 L439 0 L568 0 L568 500 L439 500 L439 441 Z M300 109 C260 109 227 122 201 148 C175 175 162 209 162 250 C162 291 175 325 201 351 C227 378 260 391 300 391 C340 391 373 378 399 351 C426 325 439 291 439 250 C439 209 426 175 399 148 C373 122 340 109 300 109 L300 109 Z M215 574 C235 556 263 547 300 547 C337 547 366 556 387 574 C407 591 417 616 417 649 L337 649 C337 624 325 612 300 612 C276 612 264 624 264 649 L184 649 C184 616 194 591 215 574 L215 574 Z M355 672 L299 768 L190 768 L268 672 L355 672 Z " />
<glyph glyph-name="Abrv.hook" unicode="&#x1eb2;" horiz-adv-x="668" d="M665 0 L419 700 L248 700 L3 0 L152 0 L194 126 L473 126 L515 0 L665 0 Z M334 541 L430 255 L238 255 L334 541 Z M248 782 C268 764 296 755 333 755 C370 755 399 764 420 782 C440 799 450 824 450 857 L370 857 C370 832 358 820 333 820 C309 820 297 832 297 857 L217 857 C217 824 227 799 248 782 L248 782 Z M363 890 C363 899 365 905 368 908 C370 910 372 912 374 914 C392 928 401 942 401 955 C401 970 393 983 378 992 C364 1000 347 1004 328 1004 C311 1004 296 1001 283 995 C269 988 258 977 249 960 L298 939 C305 954 315 962 328 962 C334 962 339 961 342 960 C344 959 345 956 345 953 C345 951 343 948 340 944 C339 943 333 938 323 931 C312 924 307 910 307 890 L363 890 Z " />
<glyph glyph-name="Abrv.hook121" unicode="&#x1eb3;" horiz-adv-x="626" d="M439 441 C400 490 346 514 276 514 C209 514 152 488 104 437 C57 386 33 323 33 250 C33 176 57 113 104 62 C152 11 209 -14 276 -14 C346 -14 400 10 439 59 L439 0 L568 0 L568 500 L439 500 L439 441 Z M300 109 C260 109 227 122 201 148 C175 175 162 209 162 250 C162 291 175 325 201 351 C227 378 260 391 300 391 C340 391 373 378 399 351 C426 325 439 291 439 250 C439 209 426 175 399 148 C373 122 340 109 300 109 L300 109 Z M215 574 C235 556 263 547 300 547 C337 547 366 556 387 574 C407 591 417 616 417 649 L337 649 C337 624 325 612 300 612 C276 612 264 624 264 649 L184 649 C184 616 194 591 215 574 L215 574 Z M339 649 C339 661 341 669 344 673 C346 676 348 678 350 681 C368 699 377 717 377 735 C377 756 369 772 354 784 C340 795 323 800 304 800 C287 800 272 796 259 788 C245 779 234 764 225 742 L274 714 C281 735 291 745 304 745 C310 745 315 744 318 742 C320 740 321 737 321 733 C321 730 319 726 316 721 C315 719 309 713 299 703 C288 693 283 675 283 649 L339 649 Z " />
<glyph glyph-name="Abrv.tilde" unicode="&#x1eb4;" horiz-adv-x="668" d="M665 0 L419 700 L248 700 L3 0 L152 0 L194 126 L473 126 L515 0 L665 0 Z M334 541 L430 255 L238 255 L334 541 Z M245 783 C265 765 293 756 330 756 C367 756 396 765 417 783 C437 800 447 825 447 858 L367 858 C367 833 355 821 330 821 C306 821 294 833 294 858 L214 858 C214 825 224 800 245 783 L245 783 Z M281 894 C281 910 284 919 289 922 C294 924 304 920 318 910 C351 889 379 885 404 896 C431 910 445 943 445 995 L372 995 C372 979 369 970 364 967 C359 965 349 969 335 978 C302 999 274 1004 249 992 C222 978 208 945 208 894 L281 894 Z " />
<glyph glyph-name="Abrv.tilde122" unicode="&#x1eb5;" horiz-adv-x="626" d="M439 441 C400 490 346 514 276 514 C209 514 152 488 104 437 C57 386 33 323 33 250 C33 176 57 113 104 62 C152 11 209 -14 276 -14 C346 -14 400 10 439 59 L439 0 L568 0 L568 500 L439 500 L439 441 Z M300 109 C260 109 227 122 201 148 C175 175 162 209 162 250 C162 291 175 325 201 351 C227 378 260 391 300 391 C340 391 373 378 399 351 C426 325 439 291 439 250 C439 209 426 175 399 148 C373 122 340 109 300 109 L300 109 Z M215 574 C235 556 263 547 300 547 C337 547 366 556 387 574 C407 591 417 616 417 649 L337 649 C337 624 325 612 300 612 C276 612 264 624 264 649 L184 649 C184 616 194 591 215 574 L215 574 Z M255 680 C255 696 258 705 263 708 C268 710 278 706 292 696 C325 675 353 671 378 682 C405 696 419 729 419 781 L346 781 C346 765 343 756 338 753 C333 751 323 755 309 764 C276 785 248 790 223 778 C196 764 182 731 182 680 L255 680 Z " />
<glyph glyph-name="Abrv.dotbl" unicode="&#x1eb6;" horiz-adv-x="668" d="M665 0 L419 700 L248 700 L3 0 L152 0 L194 126 L473 126 L515 0 L665 0 Z M334 541 L430 255 L238 255 L334 541 Z M249 774 C269 756 297 747 334 747 C371 747 400 756 421 774 C441 791 451 816 451 849 L371 849 C371 824 359 812 334 812 C310 812 298 824 298 849 L218 849 C218 816 228 791 249 774 L249 774 Z M334 -190 C351 -190 365 -184 376 -173 C388 -161 394 -147 394 -131 C394 -114 388 -100 376 -89 C365 -77 351 -71 334 -71 C318 -71 304 -77 292 -89 C281 -100 275 -114 275 -131 C275 -147 281 -161 292 -173 C304 -184 318 -190 334 -190 L334 -190 Z " />
<glyph glyph-name="Abrv.dotbl123" unicode="&#x1eb7;" horiz-adv-x="626" d="M439 441 C400 490 346 514 276 514 C209 514 152 488 104 437 C57 386 33 323 33 250 C33 176 57 113 104 62 C152 11 209 -14 276 -14 C346 -14 400 10 439 59 L439 0 L568 0 L568 500 L439 500 L439 441 Z M300 109 C260 109 227 122 201 148 C175 175 162 209 162 250 C162 291 175 325 201 351 C227 378 260 391 300 391 C340 391 373 378 399 351 C426 325 439 291 439 250 C439 209 426 175 399 148 C373 122 340 109 300 109 L300 109 Z M215 574 C235 556 263 547 300 547 C337 547 366 556 387 574 C407 591 417 616 417 649 L337 649 C337 624 325 612 300 612 C276 612 264 624 264 649 L184 649 C184 616 194 591 215 574 L215 574 Z M301 -190 C318 -190 332 -184 343 -173 C355 -161 361 -147 361 -131 C361 -114 355 -100 343 -89 C332 -77 318 -71 301 -71 C285 -71 271 -77 259 -89 C248 -100 242 -114 242 -131 C242 -147 248 -161 259 -173 C271 -184 285 -190 301 -190 L301 -190 Z " />
<glyph glyph-name="E.dotbl" unicode="&#x1eb8;" horiz-adv-x="530" d="M203 289 L468 289 L468 419 L203 419 L203 568 L493 568 L493 700 L65 700 L65 0 L498 0 L498 132 L203 132 L203 289 Z M282 -190 C299 -190 313 -184 324 -173 C336 -161 342 -147 342 -131 C342 -114 336 -100 324 -89 C313 -77 299 -71 282 -71 C266 -71 252 -77 240 -89 C229 -100 223 -114 223 -131 C223 -147 229 -161 240 -173 C252 -184 266 -190 282 -190 L282 -190 Z " />
<glyph glyph-name="E.dotbl124" unicode="&#x1eb9;" horiz-adv-x="581" d="M545 197 C548 218 550 236 550 250 C550 325 526 387 478 438 C431 489 371 514 297 514 C219 514 156 489 107 438 C58 387 33 325 33 250 C33 174 58 111 108 61 C158 11 224 -14 307 -14 C403 -14 476 22 525 93 L421 153 C396 120 358 103 309 103 C232 103 185 134 168 197 L545 197 Z M166 297 C182 364 226 398 297 398 C365 398 406 364 421 297 L166 297 Z M292 -190 C309 -190 323 -184 334 -173 C346 -161 352 -147 352 -131 C352 -114 346 -100 334 -89 C323 -77 309 -71 292 -71 C276 -71 262 -77 250 -89 C239 -100 233 -114 233 -131 C233 -147 239 -161 250 -173 C262 -184 276 -190 292 -190 L292 -190 Z " />
<glyph glyph-name="E.hook" unicode="&#x1eba;" horiz-adv-x="530" d="M203 289 L468 289 L468 419 L203 419 L203 568 L493 568 L493 700 L65 700 L65 0 L498 0 L498 132 L203 132 L203 289 Z M320 747 C320 759 322 767 325 771 C327 774 329 776 331 779 C349 797 358 815 358 833 C358 854 350 870 335 882 C321 893 304 898 285 898 C268 898 253 894 240 886 C226 877 215 862 206 840 L255 812 C262 833 272 843 285 843 C291 843 296 842 299 840 C301 838 302 835 302 831 C302 828 300 824 297 819 C296 817 290 811 280 801 C269 791 264 773 264 747 L320 747 Z " />
<glyph glyph-name="E.hook125" unicode="&#x1ebb;" horiz-adv-x="581" d="M545 197 C548 218 550 236 550 250 C550 325 526 387 478 438 C431 489 371 514 297 514 C219 514 156 489 107 438 C58 387 33 325 33 250 C33 174 58 111 108 61 C158 11 224 -14 307 -14 C403 -14 476 22 525 93 L421 153 C396 120 358 103 309 103 C232 103 185 134 168 197 L545 197 Z M166 297 C182 364 226 398 297 398 C365 398 406 364 421 297 L166 297 Z M330 547 C330 559 332 567 335 571 C337 574 339 576 341 579 C359 597 368 615 368 633 C368 654 360 670 345 682 C331 693 314 698 295 698 C278 698 263 694 250 686 C236 677 225 662 216 640 L265 612 C272 633 282 643 295 643 C301 643 306 642 309 640 C311 638 312 635 312 631 C312 628 310 624 307 619 C306 617 300 611 290 601 C279 591 274 573 274 547 L330 547 Z " />
<glyph glyph-name="E.tilde" unicode="&#x1ebc;" horiz-adv-x="530" d="M203 289 L468 289 L468 419 L203 419 L203 568 L493 568 L493 700 L65 700 L65 0 L498 0 L498 132 L203 132 L203 289 Z M236 759 C236 775 239 784 244 787 C249 789 259 785 273 775 C306 754 334 750 359 761 C386 775 400 808 400 860 L327 860 C327 844 324 835 319 832 C314 830 304 834 290 843 C257 864 229 869 204 857 C177 843 163 810 163 759 L236 759 Z " />
<glyph glyph-name="E.tilde126" unicode="&#x1ebd;" horiz-adv-x="581" d="M545 197 C548 218 550 236 550 250 C550 325 526 387 478 438 C431 489 371 514 297 514 C219 514 156 489 107 438 C58 387 33 325 33 250 C33 174 58 111 108 61 C158 11 224 -14 307 -14 C403 -14 476 22 525 93 L421 153 C396 120 358 103 309 103 C232 103 185 134 168 197 L545 197 Z M166 297 C182 364 226 398 297 398 C365 398 406 364 421 297 L166 297 Z M246 559 C246 575 249 584 254 587 C259 589 269 585 283 575 C316 554 344 550 369 561 C396 575 410 608 410 660 L337 660 C337 644 334 635 329 632 C324 630 314 634 300 643 C267 664 239 669 214 657 C187 643 173 610 173 559 L246 559 Z " />
<glyph glyph-name="Ecir.acute" unicode="&#x1ebe;" horiz-adv-x="530" d="M203 289 L468 289 L468 419 L203 419 L203 568 L493 568 L493 700 L65 700 L65 0 L498 0 L498 132 L203 132 L203 289 Z M335 858 L244 858 L169 756 L259 756 L290 802 L320 756 L410 756 L335 858 Z M397 832 L484 832 L562 928 L453 928 L397 832 Z " />
<glyph glyph-name="Ecir.acute127" unicode="&#x1ebf;" horiz-adv-x="581" d="M545 197 C548 218 550 236 550 250 C550 325 526 387 478 438 C431 489 371 514 297 514 C219 514 156 489 107 438 C58 387 33 325 33 250 C33 174 58 111 108 61 C158 11 224 -14 307 -14 C403 -14 476 22 525 93 L421 153 C396 120 358 103 309 103 C232 103 185 134 168 197 L545 197 Z M166 297 C182 364 226 398 297 398 C365 398 406 364 421 297 L166 297 Z M337 657 L246 657 L171 555 L261 555 L292 601 L322 555 L412 555 L337 657 Z M421 606 L508 606 L586 702 L477 702 L421 606 Z " />
<glyph glyph-name="Ecir.grave" unicode="&#x1ec0;" horiz-adv-x="530" d="M203 289 L468 289 L468 419 L203 419 L203 568 L493 568 L493 700 L65 700 L65 0 L498 0 L498 132 L203 132 L203 289 Z M335 857 L244 857 L169 755 L259 755 L290 801 L320 755 L410 755 L335 857 Z M483 829 L427 925 L318 925 L396 829 L483 829 Z " />
<glyph glyph-name="Ecir.grave128" unicode="&#x1ec1;" horiz-adv-x="581" d="M545 197 C548 218 550 236 550 250 C550 325 526 387 478 438 C431 489 371 514 297 514 C219 514 156 489 107 438 C58 387 33 325 33 250 C33 174 58 111 108 61 C158 11 224 -14 307 -14 C403 -14 476 22 525 93 L421 153 C396 120 358 103 309 103 C232 103 185 134 168 197 L545 197 Z M166 297 C182 364 226 398 297 398 C365 398 406 364 421 297 L166 297 Z M337 657 L246 657 L171 555 L261 555 L292 601 L322 555 L412 555 L337 657 Z M486 659 L430 755 L321 755 L399 659 L486 659 Z " />
<glyph glyph-name="Ecir.hook" unicode="&#x1ec2;" horiz-adv-x="530" d="M203 289 L468 289 L468 419 L203 419 L203 568 L493 568 L493 700 L65 700 L65 0 L498 0 L498 132 L203 132 L203 289 Z M327 857 L236 857 L161 755 L251 755 L282 801 L312 755 L402 755 L327 857 Z M454 827 C454 839 456 847 459 851 C461 854 463 856 465 859 C483 877 492 895 492 913 C492 934 484 950 469 962 C455 973 438 978 419 978 C402 978 387 974 374 966 C360 957 349 942 340 920 L389 892 C396 913 406 923 419 923 C425 923 430 922 433 920 C435 918 436 915 436 911 C436 908 434 904 431 899 C430 897 424 891 414 881 C403 871 398 853 398 827 L454 827 Z " />
<glyph glyph-name="Ecir.hook129" unicode="&#x1ec3;" horiz-adv-x="581" d="M545 197 C548 218 550 236 550 250 C550 325 526 387 478 438 C431 489 371 514 297 514 C219 514 156 489 107 438 C58 387 33 325 33 250 C33 174 58 111 108 61 C158 11 224 -14 307 -14 C403 -14 476 22 525 93 L421 153 C396 120 358 103 309 103 C232 103 185 134 168 197 L545 197 Z M166 297 C182 364 226 398 297 398 C365 398 406 364 421 297 L166 297 Z M337 657 L246 657 L171 555 L261 555 L292 601 L322 555 L412 555 L337 657 Z M457 606 C457 618 459 626 462 630 C464 633 466 635 468 638 C486 656 495 674 495 692 C495 713 487 729 472 741 C458 752 441 757 422 757 C405 757 390 753 377 745 C363 736 352 721 343 699 L392 671 C399 692 409 702 422 702 C428 702 433 701 436 699 C438 697 439 694 439 690 C439 687 437 683 434 678 C433 676 427 670 417 660 C406 650 401 632 401 606 L457 606 Z " />
<glyph glyph-name="Ecir.tilde" unicode="&#x1ec4;" horiz-adv-x="530" d="M203 289 L468 289 L468 419 L203 419 L203 568 L493 568 L493 700 L65 700 L65 0 L498 0 L498 132 L203 132 L203 289 Z M327 858 L236 858 L161 756 L251 756 L282 802 L312 756 L402 756 L327 858 Z M246 891 C246 907 249 916 254 919 C259 921 269 917 283 907 C316 886 344 882 369 893 C396 907 410 940 410 992 L337 992 C337 976 334 967 329 964 C324 962 314 966 300 975 C267 996 239 1001 214 989 C187 975 173 942 173 891 L246 891 Z " />
<glyph glyph-name="Ecir.tilde130" unicode="&#x1ec5;" horiz-adv-x="581" d="M545 197 C548 218 550 236 550 250 C550 325 526 387 478 438 C431 489 371 514 297 514 C219 514 156 489 107 438 C58 387 33 325 33 250 C33 174 58 111 108 61 C158 11 224 -14 307 -14 C403 -14 476 22 525 93 L421 153 C396 120 358 103 309 103 C232 103 185 134 168 197 L545 197 Z M166 297 C182 364 226 398 297 398 C365 398 406 364 421 297 L166 297 Z M337 657 L246 657 L171 555 L261 555 L292 601 L322 555 L412 555 L337 657 Z M246 688 C246 704 249 713 254 716 C259 718 269 714 283 704 C316 683 344 679 369 690 C396 704 410 737 410 789 L337 789 C337 773 334 764 329 761 C324 759 314 763 300 772 C267 793 239 798 214 786 C187 772 173 739 173 688 L246 688 Z " />
<glyph glyph-name="Ecir.dotbl" unicode="&#x1ec6;" horiz-adv-x="530" d="M203 289 L468 289 L468 419 L203 419 L203 568 L493 568 L493 700 L65 700 L65 0 L498 0 L498 132 L203 132 L203 289 Z M327 857 L236 857 L161 755 L251 755 L282 801 L312 755 L402 755 L327 857 Z M282 -190 C299 -190 313 -184 324 -173 C336 -161 342 -147 342 -131 C342 -114 336 -100 324 -89 C313 -77 299 -71 282 -71 C266 -71 252 -77 240 -89 C229 -100 223 -114 223 -131 C223 -147 229 -161 240 -173 C252 -184 266 -190 282 -190 L282 -190 Z " />
<glyph glyph-name="Ecir.dotbl131" unicode="&#x1ec7;" horiz-adv-x="581" d="M545 197 C548 218 550 236 550 250 C550 325 526 387 478 438 C431 489 371 514 297 514 C219 514 156 489 107 438 C58 387 33 325 33 250 C33 174 58 111 108 61 C158 11 224 -14 307 -14 C403 -14 476 22 525 93 L421 153 C396 120 358 103 309 103 C232 103 185 134 168 197 L545 197 Z M166 297 C182 364 226 398 297 398 C365 398 406 364 421 297 L166 297 Z M337 657 L246 657 L171 555 L261 555 L292 601 L322 555 L412 555 L337 657 Z M292 -190 C309 -190 323 -184 334 -173 C346 -161 352 -147 352 -131 C352 -114 346 -100 334 -89 C323 -77 309 -71 292 -71 C276 -71 262 -77 250 -89 C239 -100 233 -114 233 -131 C233 -147 239 -161 250 -173 C262 -184 276 -190 292 -190 L292 -190 Z " />
<glyph glyph-name="I.hook" unicode="&#x1ec8;" horiz-adv-x="268" d="M65 0 L203 0 L203 700 L65 700 L65 0 Z M172 747 C172 759 174 767 177 771 C179 774 181 776 183 779 C201 797 210 815 210 833 C210 854 202 870 187 882 C173 893 156 898 137 898 C120 898 105 894 92 886 C78 877 67 862 58 840 L107 812 C114 833 124 843 137 843 C143 843 148 842 151 840 C153 838 154 835 154 831 C154 828 152 824 149 819 C148 817 142 811 132 801 C121 791 116 773 116 747 L172 747 Z " />
<glyph glyph-name="I.hook132" unicode="&#x1ec9;" horiz-adv-x="247" d="M188 0 L188 500 L59 500 L59 0 L188 0 Z M162 547 C162 559 164 567 167 571 C169 574 171 576 173 579 C191 597 200 615 200 633 C200 654 192 670 177 682 C163 693 146 698 127 698 C110 698 95 694 82 686 C68 677 57 662 48 640 L97 612 C104 633 114 643 127 643 C133 643 138 642 141 640 C143 638 144 635 144 631 C144 628 142 624 139 619 C138 617 132 611 122 601 C111 591 106 573 106 547 L162 547 Z " />
<glyph glyph-name="I.dotbl" unicode="&#x1eca;" horiz-adv-x="268" d="M65 0 L203 0 L203 700 L65 700 L65 0 Z M134 -190 C151 -190 165 -184 176 -173 C188 -161 194 -147 194 -131 C194 -114 188 -100 176 -89 C165 -77 151 -71 134 -71 C118 -71 104 -77 92 -89 C81 -100 75 -114 75 -131 C75 -147 81 -161 92 -173 C104 -184 118 -190 134 -190 L134 -190 Z " />
<glyph glyph-name="I.dotbl133" unicode="&#x1ecb;" horiz-adv-x="247" d="M67 583 C83 568 102 560 123 560 C145 560 164 568 180 583 C195 599 203 618 203 639 C203 660 195 679 180 695 C164 711 145 719 123 719 C102 719 83 711 67 695 C52 679 44 660 44 639 C44 618 52 599 67 583 L67 583 Z M188 0 L188 500 L59 500 L59 0 L188 0 Z M124 -190 C141 -190 155 -184 166 -173 C178 -161 184 -147 184 -131 C184 -114 178 -100 166 -89 C155 -77 141 -71 124 -71 C108 -71 94 -77 82 -89 C71 -100 65 -114 65 -131 C65 -147 71 -161 82 -173 C94 -184 108 -190 124 -190 L124 -190 Z " />
<glyph glyph-name="O.dotbl" unicode="&#x1ecc;" horiz-adv-x="792" d="M396 -14 C497 -14 583 21 654 91 C725 162 760 248 760 350 C760 452 725 538 654 608 C583 679 497 714 396 714 C295 714 209 679 138 608 C68 538 33 452 33 350 C33 249 68 162 138 91 C209 21 295 -14 396 -14 L396 -14 Z M396 121 C331 121 278 142 235 185 C192 228 170 283 170 350 C170 417 192 472 235 515 C278 558 332 580 396 580 C460 580 514 558 557 515 C600 472 622 417 622 350 C622 283 600 228 557 185 C514 142 461 121 396 121 L396 121 Z M397 -190 C414 -190 428 -184 439 -173 C451 -161 457 -147 457 -131 C457 -114 451 -100 439 -89 C428 -77 414 -71 397 -71 C381 -71 367 -77 355 -89 C344 -100 338 -114 338 -131 C338 -147 344 -161 355 -173 C367 -184 381 -190 397 -190 L397 -190 Z " />
<glyph glyph-name="O.dotbl134" unicode="&#x1ecd;" horiz-adv-x="594" d="M297 -14 C372 -14 434 11 485 62 C536 113 562 176 562 250 C562 323 536 386 485 437 C434 488 371 514 297 514 C223 514 160 488 109 437 C58 386 33 324 33 250 C33 175 58 113 109 62 C160 11 222 -14 297 -14 L297 -14 Z M297 112 C258 112 226 125 200 151 C175 178 162 211 162 250 C162 289 175 322 200 349 C226 375 258 388 297 388 C336 388 368 375 394 349 C420 323 433 290 433 250 C433 210 420 177 394 151 C368 125 336 112 297 112 L297 112 Z M298 -190 C315 -190 329 -184 340 -173 C352 -161 358 -147 358 -131 C358 -114 352 -100 340 -89 C329 -77 315 -71 298 -71 C282 -71 268 -77 256 -89 C245 -100 239 -114 239 -131 C239 -147 245 -161 256 -173 C268 -184 282 -190 298 -190 L298 -190 Z " />
<glyph glyph-name="O.hook" unicode="&#x1ece;" horiz-adv-x="792" d="M396 -14 C497 -14 583 21 654 91 C725 162 760 248 760 350 C760 452 725 538 654 608 C583 679 497 714 396 714 C295 714 209 679 138 608 C68 538 33 452 33 350 C33 249 68 162 138 91 C209 21 295 -14 396 -14 L396 -14 Z M396 121 C331 121 278 142 235 185 C192 228 170 283 170 350 C170 417 192 472 235 515 C278 558 332 580 396 580 C460 580 514 558 557 515 C600 472 622 417 622 350 C622 283 600 228 557 185 C514 142 461 121 396 121 L396 121 Z M435 747 C435 759 437 767 440 771 C442 774 444 776 446 779 C464 797 473 815 473 833 C473 854 465 870 450 882 C436 893 419 898 400 898 C383 898 368 894 355 886 C341 877 330 862 321 840 L370 812 C377 833 387 843 400 843 C406 843 411 842 414 840 C416 838 417 835 417 831 C417 828 415 824 412 819 C411 817 405 811 395 801 C384 791 379 773 379 747 L435 747 Z " />
<glyph glyph-name="O.hook136" unicode="&#x1ecf;" horiz-adv-x="594" d="M297 -14 C372 -14 434 11 485 62 C536 113 562 176 562 250 C562 323 536 386 485 437 C434 488 371 514 297 514 C223 514 160 488 109 437 C58 386 33 324 33 250 C33 175 58 113 109 62 C160 11 222 -14 297 -14 L297 -14 Z M297 112 C258 112 226 125 200 151 C175 178 162 211 162 250 C162 289 175 322 200 349 C226 375 258 388 297 388 C336 388 368 375 394 349 C420 323 433 290 433 250 C433 210 420 177 394 151 C368 125 336 112 297 112 L297 112 Z M336 547 C336 559 338 567 341 571 C343 574 345 576 347 579 C365 597 374 615 374 633 C374 654 366 670 351 682 C337 693 320 698 301 698 C284 698 269 694 256 686 C242 677 231 662 222 640 L271 612 C278 633 288 643 301 643 C307 643 312 642 315 640 C317 638 318 635 318 631 C318 628 316 624 313 619 C312 617 306 611 296 601 C285 591 280 573 280 547 L336 547 Z " />
<glyph glyph-name="Ocir.acute" unicode="&#x1ed0;" horiz-adv-x="792" d="M396 -14 C497 -14 583 21 654 91 C725 162 760 248 760 350 C760 452 725 538 654 608 C583 679 497 714 396 714 C295 714 209 679 138 608 C68 538 33 452 33 350 C33 249 68 162 138 91 C209 21 295 -14 396 -14 L396 -14 Z M396 121 C331 121 278 142 235 185 C192 228 170 283 170 350 C170 417 192 472 235 515 C278 558 332 580 396 580 C460 580 514 558 557 515 C600 472 622 417 622 350 C622 283 600 228 557 185 C514 142 461 121 396 121 L396 121 Z M450 858 L359 858 L284 756 L374 756 L405 802 L435 756 L525 756 L450 858 Z M512 832 L599 832 L677 928 L568 928 L512 832 Z " />
<glyph glyph-name="Ocir.acute137" unicode="&#x1ed1;" horiz-adv-x="594" d="M297 -14 C372 -14 434 11 485 62 C536 113 562 176 562 250 C562 323 536 386 485 437 C434 488 371 514 297 514 C223 514 160 488 109 437 C58 386 33 324 33 250 C33 175 58 113 109 62 C160 11 222 -14 297 -14 L297 -14 Z M297 112 C258 112 226 125 200 151 C175 178 162 211 162 250 C162 289 175 322 200 349 C226 375 258 388 297 388 C336 388 368 375 394 349 C420 323 433 290 433 250 C433 210 420 177 394 151 C368 125 336 112 297 112 L297 112 Z M343 657 L252 657 L177 555 L267 555 L298 601 L328 555 L418 555 L343 657 Z M396 626 L483 626 L561 722 L452 722 L396 626 Z " />
<glyph glyph-name="Ocir.grave" unicode="&#x1ed2;" horiz-adv-x="792" d="M396 -14 C497 -14 583 21 654 91 C725 162 760 248 760 350 C760 452 725 538 654 608 C583 679 497 714 396 714 C295 714 209 679 138 608 C68 538 33 452 33 350 C33 249 68 162 138 91 C209 21 295 -14 396 -14 L396 -14 Z M396 121 C331 121 278 142 235 185 C192 228 170 283 170 350 C170 417 192 472 235 515 C278 558 332 580 396 580 C460 580 514 558 557 515 C600 472 622 417 622 350 C622 283 600 228 557 185 C514 142 461 121 396 121 L396 121 Z M450 857 L359 857 L284 755 L374 755 L405 801 L435 755 L525 755 L450 857 Z M598 829 L542 925 L433 925 L511 829 L598 829 Z " />
<glyph glyph-name="Ocir.grave138" unicode="&#x1ed3;" horiz-adv-x="594" d="M297 -14 C372 -14 434 11 485 62 C536 113 562 176 562 250 C562 323 536 386 485 437 C434 488 371 514 297 514 C223 514 160 488 109 437 C58 386 33 324 33 250 C33 175 58 113 109 62 C160 11 222 -14 297 -14 L297 -14 Z M297 112 C258 112 226 125 200 151 C175 178 162 211 162 250 C162 289 175 322 200 349 C226 375 258 388 297 388 C336 388 368 375 394 349 C420 323 433 290 433 250 C433 210 420 177 394 151 C368 125 336 112 297 112 L297 112 Z M343 657 L252 657 L177 555 L267 555 L298 601 L328 555 L418 555 L343 657 Z M508 636 L452 732 L343 732 L421 636 L508 636 Z " />
<glyph glyph-name="Ocir.hook" unicode="&#x1ed4;" horiz-adv-x="792" d="M396 -14 C497 -14 583 21 654 91 C725 162 760 248 760 350 C760 452 725 538 654 608 C583 679 497 714 396 714 C295 714 209 679 138 608 C68 538 33 452 33 350 C33 249 68 162 138 91 C209 21 295 -14 396 -14 L396 -14 Z M396 121 C331 121 278 142 235 185 C192 228 170 283 170 350 C170 417 192 472 235 515 C278 558 332 580 396 580 C460 580 514 558 557 515 C600 472 622 417 622 350 C622 283 600 228 557 185 C514 142 461 121 396 121 L396 121 Z M442 857 L351 857 L276 755 L366 755 L397 801 L427 755 L517 755 L442 857 Z M569 827 C569 839 571 847 574 851 C576 854 578 856 580 859 C598 877 607 895 607 913 C607 934 599 950 584 962 C570 973 553 978 534 978 C517 978 502 974 489 966 C475 957 464 942 455 920 L504 892 C511 913 521 923 534 923 C540 923 545 922 548 920 C550 918 551 915 551 911 C551 908 549 904 546 899 C545 897 539 891 529 881 C518 871 513 853 513 827 L569 827 Z " />
<glyph glyph-name="Ocir.hook139" unicode="&#x1ed5;" horiz-adv-x="594" d="M297 -14 C372 -14 434 11 485 62 C536 113 562 176 562 250 C562 323 536 386 485 437 C434 488 371 514 297 514 C223 514 160 488 109 437 C58 386 33 324 33 250 C33 175 58 113 109 62 C160 11 222 -14 297 -14 L297 -14 Z M297 112 C258 112 226 125 200 151 C175 178 162 211 162 250 C162 289 175 322 200 349 C226 375 258 388 297 388 C336 388 368 375 394 349 C420 323 433 290 433 250 C433 210 420 177 394 151 C368 125 336 112 297 112 L297 112 Z M343 657 L252 657 L177 555 L267 555 L298 601 L328 555 L418 555 L343 657 Z M464 606 C464 618 466 626 469 630 C471 633 473 635 475 638 C493 656 502 674 502 692 C502 713 494 729 479 741 C465 752 448 757 429 757 C412 757 397 753 384 745 C370 736 359 721 350 699 L399 671 C406 692 416 702 429 702 C435 702 440 701 443 699 C445 697 446 694 446 690 C446 687 444 683 441 678 C440 676 434 670 424 660 C413 650 408 632 408 606 L464 606 Z " />
<glyph glyph-name="Ocir.tilde" unicode="&#x1ed6;" horiz-adv-x="792" d="M396 -14 C497 -14 583 21 654 91 C725 162 760 248 760 350 C760 452 725 538 654 608 C583 679 497 714 396 714 C295 714 209 679 138 608 C68 538 33 452 33 350 C33 249 68 162 138 91 C209 21 295 -14 396 -14 L396 -14 Z M396 121 C331 121 278 142 235 185 C192 228 170 283 170 350 C170 417 192 472 235 515 C278 558 332 580 396 580 C460 580 514 558 557 515 C600 472 622 417 622 350 C622 283 600 228 557 185 C514 142 461 121 396 121 L396 121 Z M442 858 L351 858 L276 756 L366 756 L397 802 L427 756 L517 756 L442 858 Z M361 891 C361 907 364 916 369 919 C374 921 384 917 398 907 C431 886 459 882 484 893 C511 907 525 940 525 992 L452 992 C452 976 449 967 444 964 C439 962 429 966 415 975 C382 996 354 1001 329 989 C302 975 288 942 288 891 L361 891 Z " />
<glyph glyph-name="Ocir.tilde140" unicode="&#x1ed7;" horiz-adv-x="594" d="M297 -14 C372 -14 434 11 485 62 C536 113 562 176 562 250 C562 323 536 386 485 437 C434 488 371 514 297 514 C223 514 160 488 109 437 C58 386 33 324 33 250 C33 175 58 113 109 62 C160 11 222 -14 297 -14 L297 -14 Z M297 112 C258 112 226 125 200 151 C175 178 162 211 162 250 C162 289 175 322 200 349 C226 375 258 388 297 388 C336 388 368 375 394 349 C420 323 433 290 433 250 C433 210 420 177 394 151 C368 125 336 112 297 112 L297 112 Z M343 657 L252 657 L177 555 L267 555 L298 601 L328 555 L418 555 L343 657 Z M252 688 C252 704 255 713 260 716 C265 718 275 714 289 704 C322 683 350 679 375 690 C402 704 416 737 416 789 L343 789 C343 773 340 764 335 761 C330 759 320 763 306 772 C273 793 245 798 220 786 C193 772 179 739 179 688 L252 688 Z " />
<glyph glyph-name="Ocir.dotbl" unicode="&#x1ed8;" horiz-adv-x="792" d="M396 -14 C497 -14 583 21 654 91 C725 162 760 248 760 350 C760 452 725 538 654 608 C583 679 497 714 396 714 C295 714 209 679 138 608 C68 538 33 452 33 350 C33 249 68 162 138 91 C209 21 295 -14 396 -14 L396 -14 Z M396 121 C331 121 278 142 235 185 C192 228 170 283 170 350 C170 417 192 472 235 515 C278 558 332 580 396 580 C460 580 514 558 557 515 C600 472 622 417 622 350 C622 283 600 228 557 185 C514 142 461 121 396 121 L396 121 Z M442 857 L351 857 L276 755 L366 755 L397 801 L427 755 L517 755 L442 857 Z M397 -190 C414 -190 428 -184 439 -173 C451 -161 457 -147 457 -131 C457 -114 451 -100 439 -89 C428 -77 414 -71 397 -71 C381 -71 367 -77 355 -89 C344 -100 338 -114 338 -131 C338 -147 344 -161 355 -173 C367 -184 381 -190 397 -190 L397 -190 Z " />
<glyph glyph-name="Ocir.dotbl142" unicode="&#x1ed9;" horiz-adv-x="594" d="M297 -14 C372 -14 434 11 485 62 C536 113 562 176 562 250 C562 323 536 386 485 437 C434 488 371 514 297 514 C223 514 160 488 109 437 C58 386 33 324 33 250 C33 175 58 113 109 62 C160 11 222 -14 297 -14 L297 -14 Z M297 112 C258 112 226 125 200 151 C175 178 162 211 162 250 C162 289 175 322 200 349 C226 375 258 388 297 388 C336 388 368 375 394 349 C420 323 433 290 433 250 C433 210 420 177 394 151 C368 125 336 112 297 112 L297 112 Z M343 657 L252 657 L177 555 L267 555 L298 601 L328 555 L418 555 L343 657 Z M298 -190 C315 -190 329 -184 340 -173 C352 -161 358 -147 358 -131 C358 -114 352 -100 340 -89 C329 -77 315 -71 298 -71 C282 -71 268 -77 256 -89 C245 -100 239 -114 239 -131 C239 -147 245 -161 256 -173 C268 -184 282 -190 298 -190 L298 -190 Z " />
<glyph glyph-name="Ohorn.acute" unicode="&#x1eda;" horiz-adv-x="792" d="M396 121 C331 121 278 142 235 185 C192 228 170 283 170 350 C170 417 192 472 235 515 C278 558 332 580 396 580 C460 580 514 558 557 515 C600 472 622 417 622 350 C622 283 600 228 557 185 C514 142 461 121 396 121 L396 121 Z M602 652 C605 654 607 656 610 659 C639 686 653 719 653 760 L566 760 C566 720 545 700 504 699 C470 709 434 714 396 714 C295 714 209 679 138 608 C68 538 33 452 33 350 C33 249 68 162 138 91 C209 21 295 -14 396 -14 C497 -14 583 21 654 91 C725 162 760 248 760 350 C760 452 725 538 654 608 C637 625 620 639 602 652 L602 652 Z M341 763 L428 763 L506 859 L397 859 L341 763 Z " />
<glyph glyph-name="Ohorn.acute143" unicode="&#x1edb;" horiz-adv-x="594" d="M297 112 C258 112 226 125 200 151 C175 178 162 211 162 250 C162 289 175 322 200 349 C226 375 258 388 297 388 C336 388 368 375 394 349 C420 323 433 290 433 250 C433 210 420 177 394 151 C368 125 336 112 297 112 L297 112 Z M476 445 C482 450 488 454 493 459 C522 486 536 519 536 560 L449 560 C449 521 429 500 388 499 C360 509 330 514 297 514 C223 514 160 488 109 437 C58 386 33 324 33 250 C33 175 58 113 109 62 C160 11 222 -14 297 -14 C372 -14 434 11 485 62 C536 113 562 176 562 250 C562 323 536 386 485 437 C482 440 479 442 476 445 L476 445 Z M216 563 L303 563 L381 659 L272 659 L216 563 Z " />
<glyph glyph-name="Ohorn.grave" unicode="&#x1edc;" horiz-adv-x="792" d="M396 121 C331 121 278 142 235 185 C192 228 170 283 170 350 C170 417 192 472 235 515 C278 558 332 580 396 580 C460 580 514 558 557 515 C600 472 622 417 622 350 C622 283 600 228 557 185 C514 142 461 121 396 121 L396 121 Z M602 652 C605 654 607 656 610 659 C639 686 653 719 653 760 L566 760 C566 720 545 700 504 699 C470 709 434 714 396 714 C295 714 209 679 138 608 C68 538 33 452 33 350 C33 249 68 162 138 91 C209 21 295 -14 396 -14 C497 -14 583 21 654 91 C725 162 760 248 760 350 C760 452 725 538 654 608 C637 625 620 639 602 652 L602 652 Z M452 763 L396 859 L287 859 L365 763 L452 763 Z " />
<glyph glyph-name="Ohorn.grave141" unicode="&#x1edd;" horiz-adv-x="594" d="M297 112 C258 112 226 125 200 151 C175 178 162 211 162 250 C162 289 175 322 200 349 C226 375 258 388 297 388 C336 388 368 375 394 349 C420 323 433 290 433 250 C433 210 420 177 394 151 C368 125 336 112 297 112 L297 112 Z M476 445 C482 450 488 454 493 459 C522 486 536 519 536 560 L449 560 C449 521 429 500 388 499 C360 509 330 514 297 514 C223 514 160 488 109 437 C58 386 33 324 33 250 C33 175 58 113 109 62 C160 11 222 -14 297 -14 C372 -14 434 11 485 62 C536 113 562 176 562 250 C562 323 536 386 485 437 C482 440 479 442 476 445 L476 445 Z M307 563 L251 659 L142 659 L220 563 L307 563 Z " />
<glyph glyph-name="Ohorn.hook" unicode="&#x1ede;" horiz-adv-x="792" d="M396 121 C331 121 278 142 235 185 C192 228 170 283 170 350 C170 417 192 472 235 515 C278 558 332 580 396 580 C460 580 514 558 557 515 C600 472 622 417 622 350 C622 283 600 228 557 185 C514 142 461 121 396 121 L396 121 Z M602 652 C605 654 607 656 610 659 C639 686 653 719 653 760 L566 760 C566 720 545 700 504 699 C470 709 434 714 396 714 C295 714 209 679 138 608 C68 538 33 452 33 350 C33 249 68 162 138 91 C209 21 295 -14 396 -14 C497 -14 583 21 654 91 C725 162 760 248 760 350 C760 452 725 538 654 608 C637 625 620 639 602 652 L602 652 Z M435 747 C435 759 437 767 440 771 C442 774 444 776 446 779 C464 797 473 815 473 833 C473 854 465 870 450 882 C436 893 419 898 400 898 C383 898 368 894 355 886 C341 877 330 862 321 840 L370 812 C377 833 387 843 400 843 C406 843 411 842 414 840 C416 838 417 835 417 831 C417 828 415 824 412 819 C411 817 405 811 395 801 C384 791 379 773 379 747 L435 747 Z " />
<glyph glyph-name="Ohorn.hook144" unicode="&#x1edf;" horiz-adv-x="594" d="M297 112 C258 112 226 125 200 151 C175 178 162 211 162 250 C162 289 175 322 200 349 C226 375 258 388 297 388 C336 388 368 375 394 349 C420 323 433 290 433 250 C433 210 420 177 394 151 C368 125 336 112 297 112 L297 112 Z M476 445 C482 450 488 454 493 459 C522 486 536 519 536 560 L449 560 C449 521 429 500 388 499 C360 509 330 514 297 514 C223 514 160 488 109 437 C58 386 33 324 33 250 C33 175 58 113 109 62 C160 11 222 -14 297 -14 C372 -14 434 11 485 62 C536 113 562 176 562 250 C562 323 536 386 485 437 C482 440 479 442 476 445 L476 445 Z M319 547 C319 559 321 567 324 571 C326 574 328 576 330 579 C348 597 357 615 357 633 C357 654 349 670 334 682 C320 693 303 698 284 698 C267 698 252 694 239 686 C225 677 214 662 205 640 L254 612 C261 633 271 643 284 643 C290 643 295 642 298 640 C300 638 301 635 301 631 C301 628 299 624 296 619 C295 617 289 611 279 601 C268 591 263 573 263 547 L319 547 Z " />
</font>
</svg>
